<ttFont>
    <TTGlyph name="A" xMin="8" yMin="-104" xMax="695" yMax="772">
      <contour>
        <pt x="632" y="-98" on="1"/>
        <pt x="622" y="-98" on="0"/>
        <pt x="615" y="-104" on="1"/>
        <pt x="598" y="-40" on="0"/>
        <pt x="576" y="206" on="0"/>
        <pt x="560" y="269" on="1"/>
        <pt x="532" y="271" on="0"/>
        <pt x="371" y="310" on="0"/>
        <pt x="336" y="310" on="1"/>
        <pt x="311" y="282" on="0"/>
        <pt x="216" y="137" on="1"/>
        <pt x="188" y="95" on="0"/>
        <pt x="107" y="28" on="0"/>
        <pt x="68" y="28" on="1"/>
        <pt x="67" y="28" on="0"/>
        <pt x="66" y="28" on="1"/>
        <pt x="18" y="29" on="1"/>
        <pt x="8" y="35" on="0"/>
        <pt x="8" y="51" on="0"/>
        <pt x="18" y="57" on="1"/>
        <pt x="28" y="55" on="0"/>
        <pt x="69" y="55" on="0"/>
        <pt x="146" y="98" on="0"/>
        <pt x="186" y="148" on="1"/>
        <pt x="251" y="228" on="0"/>
        <pt x="307" y="329" on="1"/>
        <pt x="303" y="330" on="0"/>
        <pt x="273" y="353" on="0"/>
        <pt x="266" y="360" on="0"/>
        <pt x="230" y="394" on="0"/>
        <pt x="216" y="408" on="1"/>
        <pt x="178" y="444" on="0"/>
        <pt x="174" y="462" on="1"/>
        <pt x="174" y="475" on="0"/>
        <pt x="191" y="481" on="0"/>
        <pt x="201" y="481" on="1"/>
        <pt x="213" y="481" on="1"/>
        <pt x="244" y="481" on="0"/>
        <pt x="362" y="443" on="0"/>
        <pt x="392" y="443" on="1"/>
        <pt x="416" y="472" on="0"/>
        <pt x="507" y="699" on="0"/>
        <pt x="529" y="729" on="1"/>
        <pt x="553" y="772" on="0"/>
        <pt x="562" y="772" on="1"/>
        <pt x="567" y="772" on="0"/>
        <pt x="567" y="758" on="1"/>
        <pt x="567" y="747" on="1"/>
        <pt x="590" y="329" on="1"/>
        <pt x="600" y="329" on="1"/>
        <pt x="663" y="359" on="0"/>
        <pt x="695" y="359" on="0"/>
        <pt x="695" y="351" on="1"/>
        <pt x="695" y="339" on="0"/>
        <pt x="631" y="298" on="0"/>
        <pt x="600" y="292" on="1"/>
        <pt x="599" y="282" on="0"/>
        <pt x="599" y="213" on="0"/>
        <pt x="633" y="-69" on="0"/>
        <pt x="634" y="-98" on="0"/>
      </contour>
      <contour>
        <pt x="363" y="338" on="1"/>
        <pt x="390" y="331" on="0"/>
        <pt x="486" y="317" on="0"/>
        <pt x="499" y="313" on="1"/>
        <pt x="461" y="366" on="0"/>
        <pt x="400" y="395" on="1"/>
        <pt x="399" y="393" on="0"/>
        <pt x="390" y="380" on="1"/>
        <pt x="371" y="356" on="0"/>
      </contour>
      <contour>
        <pt x="425" y="424" on="1"/>
        <pt x="554" y="319" on="1"/>
        <pt x="555" y="339" on="0"/>
        <pt x="555" y="422" on="0"/>
        <pt x="547" y="628" on="0"/>
        <pt x="541" y="684" on="1"/>
      </contour>
      <contour>
        <pt x="250" y="452" on="1"/>
        <pt x="244" y="453" on="0"/>
        <pt x="239" y="453" on="1"/>
        <pt x="224" y="453" on="0"/>
        <pt x="224" y="443" on="1"/>
        <pt x="224" y="421" on="0"/>
        <pt x="315" y="355" on="0"/>
        <pt x="336" y="355" on="1"/>
        <pt x="341" y="355" on="0"/>
        <pt x="345" y="357" on="1"/>
        <pt x="351" y="364" on="0"/>
        <pt x="363" y="398" on="0"/>
        <pt x="373" y="414" on="1"/>
        <pt x="365" y="418" on="0"/>
      </contour>
    </TTGlyph>
    <TTGlyph name="AE" xMin="8" yMin="-104" xMax="1069" yMax="772">
      <contour>
        <pt x="615" y="-104" on="1"/>
        <pt x="598" y="-40" on="0"/>
        <pt x="576" y="206" on="0"/>
        <pt x="560" y="269" on="1"/>
        <pt x="532" y="271" on="0"/>
        <pt x="371" y="310" on="0"/>
        <pt x="336" y="310" on="1"/>
        <pt x="311" y="282" on="0"/>
        <pt x="216" y="137" on="1"/>
        <pt x="188" y="95" on="0"/>
        <pt x="107" y="28" on="0"/>
        <pt x="68" y="28" on="1"/>
        <pt x="67" y="28" on="0"/>
        <pt x="66" y="28" on="1"/>
        <pt x="56" y="28" on="1"/>
        <pt x="28" y="29" on="1"/>
        <pt x="18" y="29" on="1"/>
        <pt x="8" y="35" on="0"/>
        <pt x="8" y="51" on="0"/>
        <pt x="18" y="57" on="1"/>
        <pt x="28" y="55" on="0"/>
        <pt x="69" y="55" on="0"/>
        <pt x="146" y="98" on="0"/>
        <pt x="186" y="148" on="1"/>
        <pt x="251" y="228" on="0"/>
        <pt x="307" y="329" on="1"/>
        <pt x="303" y="330" on="0"/>
        <pt x="273" y="353" on="0"/>
        <pt x="266" y="360" on="0"/>
        <pt x="230" y="394" on="0"/>
        <pt x="216" y="408" on="1"/>
        <pt x="178" y="444" on="0"/>
        <pt x="174" y="462" on="1"/>
        <pt x="174" y="481" on="0"/>
        <pt x="198" y="481" on="1"/>
        <pt x="213" y="481" on="1"/>
        <pt x="244" y="481" on="0"/>
        <pt x="362" y="443" on="0"/>
        <pt x="392" y="443" on="1"/>
        <pt x="416" y="472" on="0"/>
        <pt x="507" y="699" on="0"/>
        <pt x="529" y="729" on="1"/>
        <pt x="553" y="772" on="0"/>
        <pt x="562" y="772" on="1"/>
        <pt x="567" y="772" on="0"/>
        <pt x="567" y="758" on="1"/>
        <pt x="567" y="747" on="1"/>
        <pt x="590" y="329" on="1"/>
        <pt x="600" y="329" on="1"/>
        <pt x="665" y="345" on="0"/>
        <pt x="705" y="351" on="1"/>
        <pt x="704" y="359" on="0"/>
        <pt x="695" y="415" on="0"/>
        <pt x="695" y="432" on="1"/>
        <pt x="695" y="476" on="0"/>
        <pt x="749" y="605" on="0"/>
        <pt x="842" y="709" on="0"/>
        <pt x="928" y="709" on="0"/>
        <pt x="981" y="647" on="0"/>
        <pt x="981" y="607" on="1"/>
        <pt x="981" y="606" on="0"/>
        <pt x="982" y="592" on="0"/>
        <pt x="981" y="584" on="0"/>
        <pt x="980" y="578" on="1"/>
        <pt x="976" y="567" on="0"/>
        <pt x="965" y="567" on="1"/>
        <pt x="960" y="567" on="1"/>
        <pt x="960" y="568" on="0"/>
        <pt x="952" y="605" on="0"/>
        <pt x="943" y="630" on="0"/>
        <pt x="936" y="646" on="1"/>
        <pt x="921" y="681" on="0"/>
        <pt x="895" y="681" on="1"/>
        <pt x="829" y="681" on="0"/>
        <pt x="724" y="510" on="0"/>
        <pt x="724" y="439" on="1"/>
        <pt x="724" y="424" on="0"/>
        <pt x="733" y="368" on="1"/>
        <pt x="742" y="368" on="1"/>
        <pt x="767" y="368" on="0"/>
        <pt x="875" y="409" on="0"/>
        <pt x="904" y="409" on="1"/>
        <pt x="925" y="409" on="1"/>
        <pt x="981" y="409" on="0"/>
        <pt x="981" y="342" on="0"/>
        <pt x="950" y="320" on="1"/>
        <pt x="897" y="283" on="0"/>
        <pt x="819" y="283" on="1"/>
        <pt x="799" y="283" on="0"/>
        <pt x="744" y="312" on="0"/>
        <pt x="729" y="312" on="1"/>
        <pt x="724" y="312" on="1"/>
        <pt x="628" y="240" on="0"/>
        <pt x="628" y="131" on="1"/>
        <pt x="628" y="81" on="0"/>
        <pt x="672" y="28" on="0"/>
        <pt x="724" y="9" on="1"/>
        <pt x="751" y="4" on="0"/>
        <pt x="812" y="4" on="0"/>
        <pt x="899" y="29" on="0"/>
        <pt x="1035" y="109" on="0"/>
        <pt x="1060" y="119" on="1"/>
        <pt x="1069" y="103" on="0"/>
        <pt x="1069" y="86" on="0"/>
        <pt x="1060" y="80" on="1"/>
        <pt x="839" y="-29" on="0"/>
        <pt x="771" y="-29" on="1"/>
        <pt x="727" y="-29" on="0"/>
        <pt x="645" y="9" on="0"/>
        <pt x="619" y="42" on="1"/>
        <pt x="641" y="-98" on="0"/>
        <pt x="622" y="-98" on="0"/>
      </contour>
      <contour>
        <pt x="425" y="424" on="1"/>
        <pt x="554" y="319" on="1"/>
        <pt x="555" y="339" on="0"/>
        <pt x="555" y="422" on="0"/>
        <pt x="547" y="628" on="0"/>
        <pt x="541" y="684" on="1"/>
      </contour>
      <contour>
        <pt x="771" y="336" on="1"/>
        <pt x="771" y="311" on="0"/>
        <pt x="828" y="311" on="1"/>
        <pt x="861" y="311" on="0"/>
        <pt x="935" y="336" on="0"/>
        <pt x="951" y="359" on="1"/>
        <pt x="939" y="379" on="0"/>
        <pt x="880" y="379" on="0"/>
        <pt x="771" y="354" on="0"/>
      </contour>
      <contour>
        <pt x="250" y="452" on="1"/>
        <pt x="244" y="453" on="0"/>
        <pt x="239" y="453" on="1"/>
        <pt x="224" y="453" on="0"/>
        <pt x="224" y="443" on="1"/>
        <pt x="224" y="421" on="0"/>
        <pt x="315" y="355" on="0"/>
        <pt x="336" y="355" on="1"/>
        <pt x="341" y="355" on="0"/>
        <pt x="345" y="357" on="1"/>
        <pt x="351" y="364" on="0"/>
        <pt x="363" y="398" on="0"/>
        <pt x="373" y="414" on="1"/>
        <pt x="365" y="418" on="0"/>
      </contour>
      <contour>
        <pt x="363" y="338" on="1"/>
        <pt x="390" y="331" on="0"/>
        <pt x="486" y="317" on="0"/>
        <pt x="499" y="313" on="1"/>
        <pt x="461" y="366" on="0"/>
        <pt x="400" y="395" on="1"/>
        <pt x="399" y="393" on="0"/>
        <pt x="390" y="380" on="1"/>
        <pt x="371" y="356" on="0"/>
      </contour>
      <contour>
        <pt x="601" y="188" on="1"/>
        <pt x="621" y="245" on="0"/>
        <pt x="679" y="312" on="1"/>
        <pt x="636" y="296" on="0"/>
        <pt x="600" y="292" on="1"/>
        <pt x="597" y="277" on="0"/>
        <pt x="597" y="226" on="0"/>
      </contour>
    </TTGlyph>
    <TTGlyph name="Aacute" xMin="8" yMin="-104" xMax="695" yMax="956">
      <contour>
        <pt x="632" y="-98" on="1"/>
        <pt x="622" y="-98" on="0"/>
        <pt x="615" y="-104" on="1"/>
        <pt x="598" y="-40" on="0"/>
        <pt x="576" y="206" on="0"/>
        <pt x="560" y="269" on="1"/>
        <pt x="532" y="271" on="0"/>
        <pt x="371" y="310" on="0"/>
        <pt x="336" y="310" on="1"/>
        <pt x="311" y="282" on="0"/>
        <pt x="216" y="137" on="1"/>
        <pt x="188" y="95" on="0"/>
        <pt x="107" y="28" on="0"/>
        <pt x="68" y="28" on="1"/>
        <pt x="67" y="28" on="0"/>
        <pt x="66" y="28" on="1"/>
        <pt x="18" y="29" on="1"/>
        <pt x="8" y="35" on="0"/>
        <pt x="8" y="51" on="0"/>
        <pt x="18" y="57" on="1"/>
        <pt x="28" y="55" on="0"/>
        <pt x="69" y="55" on="0"/>
        <pt x="146" y="98" on="0"/>
        <pt x="186" y="148" on="1"/>
        <pt x="251" y="228" on="0"/>
        <pt x="307" y="329" on="1"/>
        <pt x="303" y="330" on="0"/>
        <pt x="273" y="353" on="0"/>
        <pt x="266" y="360" on="0"/>
        <pt x="230" y="394" on="0"/>
        <pt x="216" y="408" on="1"/>
        <pt x="178" y="444" on="0"/>
        <pt x="174" y="462" on="1"/>
        <pt x="174" y="475" on="0"/>
        <pt x="191" y="481" on="0"/>
        <pt x="201" y="481" on="1"/>
        <pt x="213" y="481" on="1"/>
        <pt x="244" y="481" on="0"/>
        <pt x="362" y="443" on="0"/>
        <pt x="392" y="443" on="1"/>
        <pt x="416" y="472" on="0"/>
        <pt x="507" y="699" on="0"/>
        <pt x="529" y="729" on="1"/>
        <pt x="553" y="772" on="0"/>
        <pt x="562" y="772" on="1"/>
        <pt x="567" y="772" on="0"/>
        <pt x="567" y="758" on="1"/>
        <pt x="567" y="747" on="1"/>
        <pt x="590" y="329" on="1"/>
        <pt x="600" y="329" on="1"/>
        <pt x="663" y="359" on="0"/>
        <pt x="695" y="359" on="0"/>
        <pt x="695" y="351" on="1"/>
        <pt x="695" y="339" on="0"/>
        <pt x="631" y="298" on="0"/>
        <pt x="600" y="292" on="1"/>
        <pt x="599" y="282" on="0"/>
        <pt x="599" y="213" on="0"/>
        <pt x="633" y="-69" on="0"/>
        <pt x="634" y="-98" on="0"/>
      </contour>
      <contour>
        <pt x="363" y="338" on="1"/>
        <pt x="390" y="331" on="0"/>
        <pt x="486" y="317" on="0"/>
        <pt x="499" y="313" on="1"/>
        <pt x="461" y="366" on="0"/>
        <pt x="400" y="395" on="1"/>
        <pt x="399" y="393" on="0"/>
        <pt x="390" y="380" on="1"/>
        <pt x="371" y="356" on="0"/>
      </contour>
      <contour>
        <pt x="425" y="424" on="1"/>
        <pt x="554" y="319" on="1"/>
        <pt x="555" y="339" on="0"/>
        <pt x="555" y="422" on="0"/>
        <pt x="547" y="628" on="0"/>
        <pt x="541" y="684" on="1"/>
      </contour>
      <contour>
        <pt x="250" y="452" on="1"/>
        <pt x="244" y="453" on="0"/>
        <pt x="239" y="453" on="1"/>
        <pt x="224" y="453" on="0"/>
        <pt x="224" y="443" on="1"/>
        <pt x="224" y="421" on="0"/>
        <pt x="315" y="355" on="0"/>
        <pt x="336" y="355" on="1"/>
        <pt x="341" y="355" on="0"/>
        <pt x="345" y="357" on="1"/>
        <pt x="351" y="364" on="0"/>
        <pt x="363" y="398" on="0"/>
        <pt x="373" y="414" on="1"/>
        <pt x="365" y="418" on="0"/>
      </contour>
      <contour>
        <pt x="532" y="823" on="1"/>
        <pt x="527" y="825" on="0"/>
        <pt x="527" y="836" on="0"/>
        <pt x="534" y="849" on="0"/>
        <pt x="563" y="886" on="0"/>
        <pt x="570" y="903" on="1"/>
        <pt x="596" y="956" on="0"/>
        <pt x="623" y="956" on="1"/>
        <pt x="634" y="956" on="0"/>
        <pt x="634" y="923" on="0"/>
        <pt x="597" y="865" on="0"/>
        <pt x="561" y="830" on="0"/>
      </contour>
    </TTGlyph>
    <TTGlyph name="Abreve" xMin="8" yMin="-104" xMax="696" yMax="939">
      <contour>
        <pt x="632" y="-98" on="1"/>
        <pt x="622" y="-98" on="0"/>
        <pt x="615" y="-104" on="1"/>
        <pt x="598" y="-40" on="0"/>
        <pt x="576" y="206" on="0"/>
        <pt x="560" y="269" on="1"/>
        <pt x="532" y="271" on="0"/>
        <pt x="371" y="310" on="0"/>
        <pt x="336" y="310" on="1"/>
        <pt x="311" y="282" on="0"/>
        <pt x="216" y="137" on="1"/>
        <pt x="188" y="95" on="0"/>
        <pt x="107" y="28" on="0"/>
        <pt x="68" y="28" on="1"/>
        <pt x="67" y="28" on="0"/>
        <pt x="66" y="28" on="1"/>
        <pt x="18" y="29" on="1"/>
        <pt x="8" y="35" on="0"/>
        <pt x="8" y="51" on="0"/>
        <pt x="18" y="57" on="1"/>
        <pt x="28" y="55" on="0"/>
        <pt x="69" y="55" on="0"/>
        <pt x="146" y="98" on="0"/>
        <pt x="186" y="148" on="1"/>
        <pt x="251" y="228" on="0"/>
        <pt x="307" y="329" on="1"/>
        <pt x="303" y="330" on="0"/>
        <pt x="273" y="353" on="0"/>
        <pt x="266" y="360" on="0"/>
        <pt x="230" y="394" on="0"/>
        <pt x="216" y="408" on="1"/>
        <pt x="178" y="444" on="0"/>
        <pt x="174" y="462" on="1"/>
        <pt x="174" y="475" on="0"/>
        <pt x="191" y="481" on="0"/>
        <pt x="201" y="481" on="1"/>
        <pt x="213" y="481" on="1"/>
        <pt x="244" y="481" on="0"/>
        <pt x="362" y="443" on="0"/>
        <pt x="392" y="443" on="1"/>
        <pt x="416" y="472" on="0"/>
        <pt x="507" y="699" on="0"/>
        <pt x="529" y="729" on="1"/>
        <pt x="553" y="772" on="0"/>
        <pt x="562" y="772" on="1"/>
        <pt x="567" y="772" on="0"/>
        <pt x="567" y="758" on="1"/>
        <pt x="567" y="747" on="1"/>
        <pt x="590" y="329" on="1"/>
        <pt x="600" y="329" on="1"/>
        <pt x="663" y="359" on="0"/>
        <pt x="695" y="359" on="0"/>
        <pt x="695" y="351" on="1"/>
        <pt x="695" y="339" on="0"/>
        <pt x="631" y="298" on="0"/>
        <pt x="600" y="292" on="1"/>
        <pt x="599" y="282" on="0"/>
        <pt x="599" y="213" on="0"/>
        <pt x="633" y="-69" on="0"/>
        <pt x="634" y="-98" on="0"/>
      </contour>
      <contour>
        <pt x="363" y="338" on="1"/>
        <pt x="390" y="331" on="0"/>
        <pt x="486" y="317" on="0"/>
        <pt x="499" y="313" on="1"/>
        <pt x="461" y="366" on="0"/>
        <pt x="400" y="395" on="1"/>
        <pt x="399" y="393" on="0"/>
        <pt x="390" y="380" on="1"/>
        <pt x="371" y="356" on="0"/>
      </contour>
      <contour>
        <pt x="425" y="424" on="1"/>
        <pt x="554" y="319" on="1"/>
        <pt x="555" y="339" on="0"/>
        <pt x="555" y="422" on="0"/>
        <pt x="547" y="628" on="0"/>
        <pt x="541" y="684" on="1"/>
      </contour>
      <contour>
        <pt x="250" y="452" on="1"/>
        <pt x="244" y="453" on="0"/>
        <pt x="239" y="453" on="1"/>
        <pt x="224" y="453" on="0"/>
        <pt x="224" y="443" on="1"/>
        <pt x="224" y="421" on="0"/>
        <pt x="315" y="355" on="0"/>
        <pt x="336" y="355" on="1"/>
        <pt x="341" y="355" on="0"/>
        <pt x="345" y="357" on="1"/>
        <pt x="351" y="364" on="0"/>
        <pt x="363" y="398" on="0"/>
        <pt x="373" y="414" on="1"/>
        <pt x="365" y="418" on="0"/>
      </contour>
      <contour>
        <pt x="569" y="869" on="1"/>
        <pt x="615" y="869" on="0"/>
        <pt x="657" y="935" on="1"/>
        <pt x="661" y="939" on="0"/>
        <pt x="696" y="939" on="0"/>
        <pt x="696" y="928" on="1"/>
        <pt x="695" y="927" on="1"/>
        <pt x="695" y="926" on="1"/>
        <pt x="662" y="865" on="0"/>
        <pt x="591" y="820" on="0"/>
        <pt x="563" y="820" on="1"/>
        <pt x="519" y="820" on="0"/>
        <pt x="443" y="886" on="0"/>
        <pt x="423" y="926" on="1"/>
        <pt x="425" y="928" on="0"/>
        <pt x="454" y="937" on="0"/>
        <pt x="458" y="937" on="1"/>
        <pt x="502" y="884" on="0"/>
        <pt x="536" y="874" on="1"/>
        <pt x="551" y="869" on="0"/>
      </contour>
    </TTGlyph>
    <TTGlyph name="Acircumflex" xMin="8" yMin="-104" xMax="695" yMax="977">
      <contour>
        <pt x="632" y="-98" on="1"/>
        <pt x="622" y="-98" on="0"/>
        <pt x="615" y="-104" on="1"/>
        <pt x="598" y="-40" on="0"/>
        <pt x="576" y="206" on="0"/>
        <pt x="560" y="269" on="1"/>
        <pt x="532" y="271" on="0"/>
        <pt x="371" y="310" on="0"/>
        <pt x="336" y="310" on="1"/>
        <pt x="311" y="282" on="0"/>
        <pt x="216" y="137" on="1"/>
        <pt x="188" y="95" on="0"/>
        <pt x="107" y="28" on="0"/>
        <pt x="68" y="28" on="1"/>
        <pt x="67" y="28" on="0"/>
        <pt x="66" y="28" on="1"/>
        <pt x="18" y="29" on="1"/>
        <pt x="8" y="35" on="0"/>
        <pt x="8" y="51" on="0"/>
        <pt x="18" y="57" on="1"/>
        <pt x="28" y="55" on="0"/>
        <pt x="69" y="55" on="0"/>
        <pt x="146" y="98" on="0"/>
        <pt x="186" y="148" on="1"/>
        <pt x="251" y="228" on="0"/>
        <pt x="307" y="329" on="1"/>
        <pt x="303" y="330" on="0"/>
        <pt x="273" y="353" on="0"/>
        <pt x="266" y="360" on="0"/>
        <pt x="230" y="394" on="0"/>
        <pt x="216" y="408" on="1"/>
        <pt x="178" y="444" on="0"/>
        <pt x="174" y="462" on="1"/>
        <pt x="174" y="475" on="0"/>
        <pt x="191" y="481" on="0"/>
        <pt x="201" y="481" on="1"/>
        <pt x="213" y="481" on="1"/>
        <pt x="244" y="481" on="0"/>
        <pt x="362" y="443" on="0"/>
        <pt x="392" y="443" on="1"/>
        <pt x="416" y="472" on="0"/>
        <pt x="507" y="699" on="0"/>
        <pt x="529" y="729" on="1"/>
        <pt x="553" y="772" on="0"/>
        <pt x="562" y="772" on="1"/>
        <pt x="567" y="772" on="0"/>
        <pt x="567" y="758" on="1"/>
        <pt x="567" y="747" on="1"/>
        <pt x="590" y="329" on="1"/>
        <pt x="600" y="329" on="1"/>
        <pt x="663" y="359" on="0"/>
        <pt x="695" y="359" on="0"/>
        <pt x="695" y="351" on="1"/>
        <pt x="695" y="339" on="0"/>
        <pt x="631" y="298" on="0"/>
        <pt x="600" y="292" on="1"/>
        <pt x="599" y="282" on="0"/>
        <pt x="599" y="213" on="0"/>
        <pt x="633" y="-69" on="0"/>
        <pt x="634" y="-98" on="0"/>
      </contour>
      <contour>
        <pt x="363" y="338" on="1"/>
        <pt x="390" y="331" on="0"/>
        <pt x="486" y="317" on="0"/>
        <pt x="499" y="313" on="1"/>
        <pt x="461" y="366" on="0"/>
        <pt x="400" y="395" on="1"/>
        <pt x="399" y="393" on="0"/>
        <pt x="390" y="380" on="1"/>
        <pt x="371" y="356" on="0"/>
      </contour>
      <contour>
        <pt x="425" y="424" on="1"/>
        <pt x="554" y="319" on="1"/>
        <pt x="555" y="339" on="0"/>
        <pt x="555" y="422" on="0"/>
        <pt x="547" y="628" on="0"/>
        <pt x="541" y="684" on="1"/>
      </contour>
      <contour>
        <pt x="250" y="452" on="1"/>
        <pt x="244" y="453" on="0"/>
        <pt x="239" y="453" on="1"/>
        <pt x="224" y="453" on="0"/>
        <pt x="224" y="443" on="1"/>
        <pt x="224" y="421" on="0"/>
        <pt x="315" y="355" on="0"/>
        <pt x="336" y="355" on="1"/>
        <pt x="341" y="355" on="0"/>
        <pt x="345" y="357" on="1"/>
        <pt x="351" y="364" on="0"/>
        <pt x="363" y="398" on="0"/>
        <pt x="373" y="414" on="1"/>
        <pt x="365" y="418" on="0"/>
      </contour>
      <contour>
        <pt x="585" y="977" on="1"/>
        <pt x="586" y="976" on="0"/>
        <pt x="588" y="976" on="1"/>
        <pt x="591" y="976" on="1"/>
        <pt x="591" y="945" on="0"/>
        <pt x="616" y="885" on="0"/>
        <pt x="627" y="862" on="1"/>
        <pt x="644" y="827" on="1"/>
        <pt x="653" y="811" on="0"/>
        <pt x="653" y="809" on="1"/>
        <pt x="653" y="808" on="1"/>
        <pt x="654" y="806" on="1"/>
        <pt x="654" y="801" on="0"/>
        <pt x="643" y="792" on="0"/>
        <pt x="630" y="792" on="0"/>
        <pt x="627" y="798" on="1"/>
        <pt x="617" y="818" on="0"/>
        <pt x="585" y="898" on="1"/>
        <pt x="569" y="922" on="1"/>
        <pt x="554" y="913" on="0"/>
        <pt x="517" y="852" on="0"/>
        <pt x="483" y="803" on="0"/>
        <pt x="468" y="803" on="1"/>
        <pt x="462" y="803" on="0"/>
        <pt x="459" y="809" on="1"/>
        <pt x="471" y="838" on="0"/>
        <pt x="555" y="955" on="0"/>
      </contour>
    </TTGlyph>
    <TTGlyph name="Adieresis" xMin="8" yMin="-104" xMax="695" yMax="917">
      <contour>
        <pt x="632" y="-98" on="1"/>
        <pt x="622" y="-98" on="0"/>
        <pt x="615" y="-104" on="1"/>
        <pt x="598" y="-40" on="0"/>
        <pt x="576" y="206" on="0"/>
        <pt x="560" y="269" on="1"/>
        <pt x="532" y="271" on="0"/>
        <pt x="371" y="310" on="0"/>
        <pt x="336" y="310" on="1"/>
        <pt x="311" y="282" on="0"/>
        <pt x="216" y="137" on="1"/>
        <pt x="188" y="95" on="0"/>
        <pt x="107" y="28" on="0"/>
        <pt x="68" y="28" on="1"/>
        <pt x="67" y="28" on="0"/>
        <pt x="66" y="28" on="1"/>
        <pt x="18" y="29" on="1"/>
        <pt x="8" y="35" on="0"/>
        <pt x="8" y="51" on="0"/>
        <pt x="18" y="57" on="1"/>
        <pt x="28" y="55" on="0"/>
        <pt x="69" y="55" on="0"/>
        <pt x="146" y="98" on="0"/>
        <pt x="186" y="148" on="1"/>
        <pt x="251" y="228" on="0"/>
        <pt x="307" y="329" on="1"/>
        <pt x="303" y="330" on="0"/>
        <pt x="273" y="353" on="0"/>
        <pt x="266" y="360" on="0"/>
        <pt x="230" y="394" on="0"/>
        <pt x="216" y="408" on="1"/>
        <pt x="178" y="444" on="0"/>
        <pt x="174" y="462" on="1"/>
        <pt x="174" y="475" on="0"/>
        <pt x="191" y="481" on="0"/>
        <pt x="201" y="481" on="1"/>
        <pt x="213" y="481" on="1"/>
        <pt x="244" y="481" on="0"/>
        <pt x="362" y="443" on="0"/>
        <pt x="392" y="443" on="1"/>
        <pt x="416" y="472" on="0"/>
        <pt x="507" y="699" on="0"/>
        <pt x="529" y="729" on="1"/>
        <pt x="553" y="772" on="0"/>
        <pt x="562" y="772" on="1"/>
        <pt x="567" y="772" on="0"/>
        <pt x="567" y="758" on="1"/>
        <pt x="567" y="747" on="1"/>
        <pt x="590" y="329" on="1"/>
        <pt x="600" y="329" on="1"/>
        <pt x="663" y="359" on="0"/>
        <pt x="695" y="359" on="0"/>
        <pt x="695" y="351" on="1"/>
        <pt x="695" y="339" on="0"/>
        <pt x="631" y="298" on="0"/>
        <pt x="600" y="292" on="1"/>
        <pt x="599" y="282" on="0"/>
        <pt x="599" y="213" on="0"/>
        <pt x="633" y="-69" on="0"/>
        <pt x="634" y="-98" on="0"/>
      </contour>
      <contour>
        <pt x="363" y="338" on="1"/>
        <pt x="390" y="331" on="0"/>
        <pt x="486" y="317" on="0"/>
        <pt x="499" y="313" on="1"/>
        <pt x="461" y="366" on="0"/>
        <pt x="400" y="395" on="1"/>
        <pt x="399" y="393" on="0"/>
        <pt x="390" y="380" on="1"/>
        <pt x="371" y="356" on="0"/>
      </contour>
      <contour>
        <pt x="425" y="424" on="1"/>
        <pt x="554" y="319" on="1"/>
        <pt x="555" y="339" on="0"/>
        <pt x="555" y="422" on="0"/>
        <pt x="547" y="628" on="0"/>
        <pt x="541" y="684" on="1"/>
      </contour>
      <contour>
        <pt x="250" y="452" on="1"/>
        <pt x="244" y="453" on="0"/>
        <pt x="239" y="453" on="1"/>
        <pt x="224" y="453" on="0"/>
        <pt x="224" y="443" on="1"/>
        <pt x="224" y="421" on="0"/>
        <pt x="315" y="355" on="0"/>
        <pt x="336" y="355" on="1"/>
        <pt x="341" y="355" on="0"/>
        <pt x="345" y="357" on="1"/>
        <pt x="351" y="364" on="0"/>
        <pt x="363" y="398" on="0"/>
        <pt x="373" y="414" on="1"/>
        <pt x="365" y="418" on="0"/>
      </contour>
      <contour>
        <pt x="508" y="917" on="1"/>
        <pt x="515" y="917" on="0"/>
        <pt x="537" y="896" on="0"/>
        <pt x="537" y="887" on="1"/>
        <pt x="531" y="864" on="0"/>
        <pt x="515" y="864" on="1"/>
        <pt x="511" y="864" on="0"/>
        <pt x="507" y="866" on="1"/>
        <pt x="486" y="873" on="0"/>
        <pt x="486" y="909" on="0"/>
      </contour>
      <contour>
        <pt x="632" y="917" on="1"/>
        <pt x="639" y="917" on="0"/>
        <pt x="660" y="896" on="0"/>
        <pt x="660" y="887" on="1"/>
        <pt x="654" y="864" on="0"/>
        <pt x="639" y="864" on="1"/>
        <pt x="635" y="864" on="0"/>
        <pt x="630" y="866" on="1"/>
        <pt x="610" y="873" on="0"/>
        <pt x="610" y="909" on="0"/>
      </contour>
    </TTGlyph>
    <TTGlyph name="Agrave" xMin="8" yMin="-104" xMax="695" yMax="941">
      <contour>
        <pt x="632" y="-98" on="1"/>
        <pt x="622" y="-98" on="0"/>
        <pt x="615" y="-104" on="1"/>
        <pt x="598" y="-40" on="0"/>
        <pt x="576" y="206" on="0"/>
        <pt x="560" y="269" on="1"/>
        <pt x="532" y="271" on="0"/>
        <pt x="371" y="310" on="0"/>
        <pt x="336" y="310" on="1"/>
        <pt x="311" y="282" on="0"/>
        <pt x="216" y="137" on="1"/>
        <pt x="188" y="95" on="0"/>
        <pt x="107" y="28" on="0"/>
        <pt x="68" y="28" on="1"/>
        <pt x="67" y="28" on="0"/>
        <pt x="66" y="28" on="1"/>
        <pt x="18" y="29" on="1"/>
        <pt x="8" y="35" on="0"/>
        <pt x="8" y="51" on="0"/>
        <pt x="18" y="57" on="1"/>
        <pt x="28" y="55" on="0"/>
        <pt x="69" y="55" on="0"/>
        <pt x="146" y="98" on="0"/>
        <pt x="186" y="148" on="1"/>
        <pt x="251" y="228" on="0"/>
        <pt x="307" y="329" on="1"/>
        <pt x="303" y="330" on="0"/>
        <pt x="273" y="353" on="0"/>
        <pt x="266" y="360" on="0"/>
        <pt x="230" y="394" on="0"/>
        <pt x="216" y="408" on="1"/>
        <pt x="178" y="444" on="0"/>
        <pt x="174" y="462" on="1"/>
        <pt x="174" y="475" on="0"/>
        <pt x="191" y="481" on="0"/>
        <pt x="201" y="481" on="1"/>
        <pt x="213" y="481" on="1"/>
        <pt x="244" y="481" on="0"/>
        <pt x="362" y="443" on="0"/>
        <pt x="392" y="443" on="1"/>
        <pt x="416" y="472" on="0"/>
        <pt x="507" y="699" on="0"/>
        <pt x="529" y="729" on="1"/>
        <pt x="553" y="772" on="0"/>
        <pt x="562" y="772" on="1"/>
        <pt x="567" y="772" on="0"/>
        <pt x="567" y="758" on="1"/>
        <pt x="567" y="747" on="1"/>
        <pt x="590" y="329" on="1"/>
        <pt x="600" y="329" on="1"/>
        <pt x="663" y="359" on="0"/>
        <pt x="695" y="359" on="0"/>
        <pt x="695" y="351" on="1"/>
        <pt x="695" y="339" on="0"/>
        <pt x="631" y="298" on="0"/>
        <pt x="600" y="292" on="1"/>
        <pt x="599" y="282" on="0"/>
        <pt x="599" y="213" on="0"/>
        <pt x="633" y="-69" on="0"/>
        <pt x="634" y="-98" on="0"/>
      </contour>
      <contour>
        <pt x="363" y="338" on="1"/>
        <pt x="390" y="331" on="0"/>
        <pt x="486" y="317" on="0"/>
        <pt x="499" y="313" on="1"/>
        <pt x="461" y="366" on="0"/>
        <pt x="400" y="395" on="1"/>
        <pt x="399" y="393" on="0"/>
        <pt x="390" y="380" on="1"/>
        <pt x="371" y="356" on="0"/>
      </contour>
      <contour>
        <pt x="425" y="424" on="1"/>
        <pt x="554" y="319" on="1"/>
        <pt x="555" y="339" on="0"/>
        <pt x="555" y="422" on="0"/>
        <pt x="547" y="628" on="0"/>
        <pt x="541" y="684" on="1"/>
      </contour>
      <contour>
        <pt x="250" y="452" on="1"/>
        <pt x="244" y="453" on="0"/>
        <pt x="239" y="453" on="1"/>
        <pt x="224" y="453" on="0"/>
        <pt x="224" y="443" on="1"/>
        <pt x="224" y="421" on="0"/>
        <pt x="315" y="355" on="0"/>
        <pt x="336" y="355" on="1"/>
        <pt x="341" y="355" on="0"/>
        <pt x="345" y="357" on="1"/>
        <pt x="351" y="364" on="0"/>
        <pt x="363" y="398" on="0"/>
        <pt x="373" y="414" on="1"/>
        <pt x="365" y="418" on="0"/>
      </contour>
      <contour>
        <pt x="526" y="863" on="0"/>
        <pt x="514" y="882" on="0"/>
        <pt x="496" y="912" on="0"/>
        <pt x="496" y="941" on="0"/>
        <pt x="519" y="941" on="0"/>
        <pt x="545" y="906" on="0"/>
        <pt x="559" y="876" on="0"/>
        <pt x="584" y="844" on="0"/>
        <pt x="590" y="830" on="0"/>
        <pt x="590" y="828" on="1"/>
        <pt x="590" y="820" on="0"/>
        <pt x="585" y="818" on="1"/>
        <pt x="578" y="819" on="0"/>
        <pt x="566" y="825" on="0"/>
        <pt x="557" y="829" on="0"/>
        <pt x="552" y="834" on="1"/>
        <pt x="544" y="842" on="1"/>
        <pt x="541" y="845" on="0"/>
        <pt x="529" y="860" on="0"/>
      </contour>
    </TTGlyph>
    <TTGlyph name="Aring" xMin="8" yMin="-104" xMax="695" yMax="894">
      <contour>
        <pt x="56" y="28" on="1"/>
        <pt x="28" y="29" on="1"/>
        <pt x="18" y="29" on="1"/>
        <pt x="8" y="35" on="0"/>
        <pt x="8" y="51" on="0"/>
        <pt x="18" y="57" on="1"/>
        <pt x="28" y="55" on="0"/>
        <pt x="69" y="55" on="0"/>
        <pt x="146" y="98" on="0"/>
        <pt x="186" y="148" on="1"/>
        <pt x="251" y="228" on="0"/>
        <pt x="307" y="329" on="1"/>
        <pt x="303" y="330" on="0"/>
        <pt x="273" y="353" on="0"/>
        <pt x="266" y="360" on="0"/>
        <pt x="230" y="394" on="0"/>
        <pt x="216" y="408" on="1"/>
        <pt x="178" y="444" on="0"/>
        <pt x="174" y="462" on="1"/>
        <pt x="174" y="481" on="0"/>
        <pt x="198" y="481" on="1"/>
        <pt x="213" y="481" on="1"/>
        <pt x="244" y="481" on="0"/>
        <pt x="362" y="443" on="0"/>
        <pt x="392" y="443" on="1"/>
        <pt x="416" y="472" on="0"/>
        <pt x="507" y="699" on="0"/>
        <pt x="529" y="729" on="1"/>
        <pt x="544" y="754" on="0"/>
        <pt x="549" y="760" on="1"/>
        <pt x="544" y="760" on="1"/>
        <pt x="520" y="760" on="0"/>
        <pt x="489" y="796" on="0"/>
        <pt x="489" y="818" on="1"/>
        <pt x="489" y="821" on="0"/>
        <pt x="489" y="824" on="1"/>
        <pt x="489" y="856" on="0"/>
        <pt x="525" y="894" on="0"/>
        <pt x="553" y="894" on="1"/>
        <pt x="614" y="894" on="0"/>
        <pt x="614" y="839" on="1"/>
        <pt x="614" y="804" on="0"/>
        <pt x="580" y="769" on="0"/>
        <pt x="568" y="765" on="1"/>
        <pt x="568" y="759" on="1"/>
        <pt x="567" y="754" on="0"/>
        <pt x="567" y="747" on="1"/>
        <pt x="590" y="329" on="1"/>
        <pt x="600" y="329" on="1"/>
        <pt x="663" y="359" on="0"/>
        <pt x="695" y="359" on="0"/>
        <pt x="695" y="351" on="1"/>
        <pt x="695" y="339" on="0"/>
        <pt x="631" y="298" on="0"/>
        <pt x="600" y="292" on="1"/>
        <pt x="599" y="282" on="0"/>
        <pt x="599" y="213" on="0"/>
        <pt x="633" y="-69" on="0"/>
        <pt x="634" y="-98" on="0"/>
        <pt x="632" y="-98" on="1"/>
        <pt x="622" y="-98" on="0"/>
        <pt x="615" y="-104" on="1"/>
        <pt x="598" y="-40" on="0"/>
        <pt x="576" y="206" on="0"/>
        <pt x="560" y="269" on="1"/>
        <pt x="532" y="271" on="0"/>
        <pt x="371" y="310" on="0"/>
        <pt x="336" y="310" on="1"/>
        <pt x="311" y="282" on="0"/>
        <pt x="216" y="137" on="1"/>
        <pt x="188" y="95" on="0"/>
        <pt x="107" y="28" on="0"/>
        <pt x="68" y="28" on="1"/>
        <pt x="67" y="28" on="0"/>
        <pt x="66" y="28" on="1"/>
      </contour>
      <contour>
        <pt x="425" y="424" on="1"/>
        <pt x="554" y="319" on="1"/>
        <pt x="555" y="339" on="0"/>
        <pt x="555" y="422" on="0"/>
        <pt x="547" y="628" on="0"/>
        <pt x="541" y="684" on="1"/>
      </contour>
      <contour>
        <pt x="532" y="878" on="0"/>
        <pt x="499" y="850" on="0"/>
        <pt x="499" y="800" on="0"/>
        <pt x="530" y="775" on="0"/>
        <pt x="564" y="775" on="0"/>
        <pt x="601" y="801" on="0"/>
        <pt x="601" y="818" on="1"/>
        <pt x="603" y="826" on="0"/>
        <pt x="603" y="840" on="0"/>
        <pt x="602" y="850" on="0"/>
        <pt x="597" y="859" on="0"/>
        <pt x="593" y="865" on="0"/>
        <pt x="585" y="870" on="0"/>
        <pt x="580" y="872" on="0"/>
        <pt x="570" y="875" on="0"/>
        <pt x="567" y="876" on="0"/>
        <pt x="557" y="878" on="1"/>
      </contour>
      <contour>
        <pt x="250" y="452" on="1"/>
        <pt x="244" y="453" on="0"/>
        <pt x="239" y="453" on="1"/>
        <pt x="224" y="453" on="0"/>
        <pt x="224" y="443" on="1"/>
        <pt x="224" y="421" on="0"/>
        <pt x="315" y="355" on="0"/>
        <pt x="336" y="355" on="1"/>
        <pt x="341" y="355" on="0"/>
        <pt x="345" y="357" on="1"/>
        <pt x="351" y="364" on="0"/>
        <pt x="363" y="398" on="0"/>
        <pt x="373" y="414" on="1"/>
        <pt x="365" y="418" on="0"/>
      </contour>
      <contour>
        <pt x="363" y="338" on="1"/>
        <pt x="390" y="331" on="0"/>
        <pt x="486" y="317" on="0"/>
        <pt x="499" y="313" on="1"/>
        <pt x="461" y="366" on="0"/>
        <pt x="400" y="395" on="1"/>
        <pt x="399" y="393" on="0"/>
        <pt x="390" y="380" on="1"/>
        <pt x="371" y="356" on="0"/>
      </contour>
    </TTGlyph>
    <TTGlyph name="Atilde" xMin="8" yMin="-104" xMax="707" yMax="1011">
      <contour>
        <pt x="632" y="-98" on="1"/>
        <pt x="622" y="-98" on="0"/>
        <pt x="615" y="-104" on="1"/>
        <pt x="598" y="-40" on="0"/>
        <pt x="576" y="206" on="0"/>
        <pt x="560" y="269" on="1"/>
        <pt x="532" y="271" on="0"/>
        <pt x="371" y="310" on="0"/>
        <pt x="336" y="310" on="1"/>
        <pt x="311" y="282" on="0"/>
        <pt x="216" y="137" on="1"/>
        <pt x="188" y="95" on="0"/>
        <pt x="107" y="28" on="0"/>
        <pt x="68" y="28" on="1"/>
        <pt x="67" y="28" on="0"/>
        <pt x="66" y="28" on="1"/>
        <pt x="18" y="29" on="1"/>
        <pt x="8" y="35" on="0"/>
        <pt x="8" y="51" on="0"/>
        <pt x="18" y="57" on="1"/>
        <pt x="28" y="55" on="0"/>
        <pt x="69" y="55" on="0"/>
        <pt x="146" y="98" on="0"/>
        <pt x="186" y="148" on="1"/>
        <pt x="251" y="228" on="0"/>
        <pt x="307" y="329" on="1"/>
        <pt x="303" y="330" on="0"/>
        <pt x="273" y="353" on="0"/>
        <pt x="266" y="360" on="0"/>
        <pt x="230" y="394" on="0"/>
        <pt x="216" y="408" on="1"/>
        <pt x="178" y="444" on="0"/>
        <pt x="174" y="462" on="1"/>
        <pt x="174" y="475" on="0"/>
        <pt x="191" y="481" on="0"/>
        <pt x="201" y="481" on="1"/>
        <pt x="213" y="481" on="1"/>
        <pt x="244" y="481" on="0"/>
        <pt x="362" y="443" on="0"/>
        <pt x="392" y="443" on="1"/>
        <pt x="416" y="472" on="0"/>
        <pt x="507" y="699" on="0"/>
        <pt x="529" y="729" on="1"/>
        <pt x="553" y="772" on="0"/>
        <pt x="562" y="772" on="1"/>
        <pt x="567" y="772" on="0"/>
        <pt x="567" y="758" on="1"/>
        <pt x="567" y="747" on="1"/>
        <pt x="590" y="329" on="1"/>
        <pt x="600" y="329" on="1"/>
        <pt x="663" y="359" on="0"/>
        <pt x="695" y="359" on="0"/>
        <pt x="695" y="351" on="1"/>
        <pt x="695" y="339" on="0"/>
        <pt x="631" y="298" on="0"/>
        <pt x="600" y="292" on="1"/>
        <pt x="599" y="282" on="0"/>
        <pt x="599" y="213" on="0"/>
        <pt x="633" y="-69" on="0"/>
        <pt x="634" y="-98" on="0"/>
      </contour>
      <contour>
        <pt x="363" y="338" on="1"/>
        <pt x="390" y="331" on="0"/>
        <pt x="486" y="317" on="0"/>
        <pt x="499" y="313" on="1"/>
        <pt x="461" y="366" on="0"/>
        <pt x="400" y="395" on="1"/>
        <pt x="399" y="393" on="0"/>
        <pt x="390" y="380" on="1"/>
        <pt x="371" y="356" on="0"/>
      </contour>
      <contour>
        <pt x="425" y="424" on="1"/>
        <pt x="554" y="319" on="1"/>
        <pt x="555" y="339" on="0"/>
        <pt x="555" y="422" on="0"/>
        <pt x="547" y="628" on="0"/>
        <pt x="541" y="684" on="1"/>
      </contour>
      <contour>
        <pt x="250" y="452" on="1"/>
        <pt x="244" y="453" on="0"/>
        <pt x="239" y="453" on="1"/>
        <pt x="224" y="453" on="0"/>
        <pt x="224" y="443" on="1"/>
        <pt x="224" y="421" on="0"/>
        <pt x="315" y="355" on="0"/>
        <pt x="336" y="355" on="1"/>
        <pt x="341" y="355" on="0"/>
        <pt x="345" y="357" on="1"/>
        <pt x="351" y="364" on="0"/>
        <pt x="363" y="398" on="0"/>
        <pt x="373" y="414" on="1"/>
        <pt x="365" y="418" on="0"/>
      </contour>
      <contour>
        <pt x="577" y="852" on="0"/>
        <pt x="495" y="904" on="0"/>
        <pt x="450" y="904" on="0"/>
        <pt x="416" y="865" on="1"/>
        <pt x="405" y="865" on="1"/>
        <pt x="405" y="868" on="0"/>
        <pt x="405" y="871" on="1"/>
        <pt x="405" y="908" on="0"/>
        <pt x="448" y="935" on="0"/>
        <pt x="472" y="935" on="0"/>
        <pt x="480" y="932" on="1"/>
        <pt x="503" y="932" on="0"/>
        <pt x="579" y="888" on="0"/>
        <pt x="604" y="888" on="1"/>
        <pt x="616" y="888" on="0"/>
        <pt x="632" y="888" on="0"/>
        <pt x="648" y="889" on="0"/>
        <pt x="653" y="892" on="0"/>
        <pt x="665" y="897" on="0"/>
        <pt x="669" y="905" on="0"/>
        <pt x="672" y="910" on="1"/>
        <pt x="677" y="918" on="0"/>
        <pt x="677" y="971" on="0"/>
        <pt x="662" y="995" on="0"/>
        <pt x="640" y="995" on="1"/>
        <pt x="640" y="1011" on="0"/>
        <pt x="685" y="1011" on="0"/>
        <pt x="707" y="973" on="0"/>
        <pt x="707" y="946" on="1"/>
        <pt x="707" y="892" on="0"/>
        <pt x="652" y="852" on="0"/>
        <pt x="604" y="852" on="1"/>
      </contour>
    </TTGlyph>
    <TTGlyph name="B" xMin="6" yMin="0" xMax="913" yMax="823">
      <contour>
        <pt x="391" y="212" on="1"/>
        <pt x="391" y="212" on="0"/>
        <pt x="392" y="245" on="1"/>
        <pt x="403" y="256" on="0"/>
        <pt x="438" y="256" on="0"/>
        <pt x="446" y="244" on="1"/>
        <pt x="448" y="241" on="0"/>
        <pt x="448" y="238" on="1"/>
        <pt x="448" y="229" on="0"/>
        <pt x="426" y="218" on="1"/>
        <pt x="426" y="144" on="0"/>
        <pt x="538" y="28" on="0"/>
        <pt x="675" y="28" on="0"/>
        <pt x="803" y="122" on="0"/>
        <pt x="884" y="261" on="0"/>
        <pt x="884" y="373" on="0"/>
        <pt x="806" y="454" on="0"/>
        <pt x="702" y="492" on="0"/>
        <pt x="621" y="492" on="0"/>
        <pt x="584" y="488" on="1"/>
        <pt x="538" y="483" on="0"/>
        <pt x="505" y="483" on="0"/>
        <pt x="460" y="488" on="1"/>
        <pt x="260" y="123" on="1"/>
        <pt x="236" y="82" on="0"/>
        <pt x="164" y="28" on="0"/>
        <pt x="68" y="28" on="0"/>
        <pt x="6" y="115" on="0"/>
        <pt x="6" y="168" on="1"/>
        <pt x="37" y="168" on="0"/>
        <pt x="54" y="112" on="1"/>
        <pt x="61" y="92" on="0"/>
        <pt x="100" y="57" on="0"/>
        <pt x="131" y="57" on="1"/>
        <pt x="177" y="67" on="0"/>
        <pt x="271" y="193" on="0"/>
        <pt x="305" y="268" on="1"/>
        <pt x="405" y="491" on="0"/>
        <pt x="477" y="577" on="1"/>
        <pt x="541" y="662" on="0"/>
        <pt x="603" y="718" on="1"/>
        <pt x="719" y="823" on="0"/>
        <pt x="813" y="823" on="1"/>
        <pt x="847" y="823" on="0"/>
        <pt x="884" y="776" on="0"/>
        <pt x="884" y="692" on="0"/>
        <pt x="819" y="607" on="0"/>
        <pt x="709" y="525" on="0"/>
        <pt x="704" y="520" on="1"/>
        <pt x="750" y="507" on="0"/>
        <pt x="827" y="471" on="0"/>
        <pt x="851" y="454" on="0"/>
        <pt x="884" y="424" on="0"/>
        <pt x="892" y="408" on="1"/>
        <pt x="913" y="366" on="0"/>
        <pt x="913" y="260" on="0"/>
        <pt x="819" y="108" on="0"/>
        <pt x="675" y="0" on="0"/>
        <pt x="610" y="0" on="1"/>
        <pt x="527" y="0" on="0"/>
        <pt x="391" y="130" on="0"/>
      </contour>
      <contour>
        <pt x="807" y="804" on="1"/>
        <pt x="752" y="804" on="0"/>
        <pt x="665" y="737" on="1"/>
        <pt x="632" y="704" on="1"/>
        <pt x="608" y="680" on="0"/>
        <pt x="556" y="627" on="0"/>
        <pt x="553" y="624" on="1"/>
        <pt x="519" y="584" on="0"/>
        <pt x="479" y="514" on="1"/>
        <pt x="539" y="514" on="0"/>
        <pt x="665" y="529" on="1"/>
        <pt x="848" y="654" on="0"/>
        <pt x="865" y="746" on="1"/>
        <pt x="865" y="774" on="0"/>
        <pt x="834" y="804" on="0"/>
      </contour>
    </TTGlyph>
    <TTGlyph name="C" xMin="19" yMin="0" xMax="422" yMax="758">
      <contour>
        <pt x="24" y="160" on="1"/>
        <pt x="19" y="182" on="0"/>
        <pt x="19" y="272" on="0"/>
        <pt x="42" y="366" on="1"/>
        <pt x="75" y="503" on="0"/>
        <pt x="212" y="745" on="0"/>
        <pt x="283" y="758" on="1"/>
        <pt x="304" y="758" on="0"/>
        <pt x="334" y="728" on="0"/>
        <pt x="353" y="706" on="0"/>
        <pt x="374" y="641" on="0"/>
        <pt x="374" y="599" on="0"/>
        <pt x="373" y="586" on="1"/>
        <pt x="373" y="576" on="0"/>
        <pt x="359" y="576" on="1"/>
        <pt x="356" y="576" on="1"/>
        <pt x="355" y="576" on="0"/>
        <pt x="355" y="577" on="1"/>
        <pt x="349" y="664" on="0"/>
        <pt x="328" y="694" on="1"/>
        <pt x="309" y="720" on="0"/>
        <pt x="278" y="721" on="1"/>
        <pt x="237" y="721" on="0"/>
        <pt x="126" y="529" on="0"/>
        <pt x="51" y="308" on="0"/>
        <pt x="51" y="183" on="0"/>
        <pt x="127" y="38" on="0"/>
        <pt x="265" y="38" on="0"/>
        <pt x="396" y="182" on="0"/>
        <pt x="411" y="256" on="1"/>
        <pt x="422" y="253" on="0"/>
        <pt x="422" y="224" on="0"/>
        <pt x="420" y="218" on="1"/>
        <pt x="397" y="144" on="0"/>
        <pt x="264" y="0" on="0"/>
        <pt x="133" y="0" on="0"/>
        <pt x="42" y="98" on="0"/>
      </contour>
    </TTGlyph>
    <TTGlyph name="Cacute" xMin="19" yMin="0" xMax="422" yMax="927">
      <contour>
        <pt x="24" y="160" on="1"/>
        <pt x="19" y="182" on="0"/>
        <pt x="19" y="272" on="0"/>
        <pt x="42" y="366" on="1"/>
        <pt x="75" y="503" on="0"/>
        <pt x="212" y="745" on="0"/>
        <pt x="283" y="758" on="1"/>
        <pt x="304" y="758" on="0"/>
        <pt x="334" y="728" on="0"/>
        <pt x="353" y="706" on="0"/>
        <pt x="374" y="641" on="0"/>
        <pt x="374" y="599" on="0"/>
        <pt x="373" y="586" on="1"/>
        <pt x="373" y="576" on="0"/>
        <pt x="359" y="576" on="1"/>
        <pt x="356" y="576" on="1"/>
        <pt x="355" y="576" on="0"/>
        <pt x="355" y="577" on="1"/>
        <pt x="349" y="664" on="0"/>
        <pt x="328" y="694" on="1"/>
        <pt x="309" y="720" on="0"/>
        <pt x="278" y="721" on="1"/>
        <pt x="237" y="721" on="0"/>
        <pt x="126" y="529" on="0"/>
        <pt x="51" y="308" on="0"/>
        <pt x="51" y="183" on="0"/>
        <pt x="127" y="38" on="0"/>
        <pt x="265" y="38" on="0"/>
        <pt x="396" y="182" on="0"/>
        <pt x="411" y="256" on="1"/>
        <pt x="422" y="253" on="0"/>
        <pt x="422" y="224" on="0"/>
        <pt x="420" y="218" on="1"/>
        <pt x="397" y="144" on="0"/>
        <pt x="264" y="0" on="0"/>
        <pt x="133" y="0" on="0"/>
        <pt x="42" y="98" on="0"/>
      </contour>
      <contour>
        <pt x="239" y="794" on="1"/>
        <pt x="234" y="796" on="0"/>
        <pt x="234" y="807" on="0"/>
        <pt x="241" y="820" on="0"/>
        <pt x="270" y="857" on="0"/>
        <pt x="277" y="874" on="1"/>
        <pt x="303" y="927" on="0"/>
        <pt x="330" y="927" on="1"/>
        <pt x="341" y="927" on="0"/>
        <pt x="341" y="894" on="0"/>
        <pt x="304" y="836" on="0"/>
        <pt x="268" y="801" on="0"/>
      </contour>
    </TTGlyph>
    <TTGlyph name="Ccaron" xMin="19" yMin="0" xMax="422" yMax="942">
      <contour>
        <pt x="24" y="160" on="1"/>
        <pt x="19" y="182" on="0"/>
        <pt x="19" y="272" on="0"/>
        <pt x="42" y="366" on="1"/>
        <pt x="75" y="503" on="0"/>
        <pt x="212" y="745" on="0"/>
        <pt x="283" y="758" on="1"/>
        <pt x="304" y="758" on="0"/>
        <pt x="334" y="728" on="0"/>
        <pt x="353" y="706" on="0"/>
        <pt x="374" y="641" on="0"/>
        <pt x="374" y="599" on="0"/>
        <pt x="373" y="586" on="1"/>
        <pt x="373" y="576" on="0"/>
        <pt x="359" y="576" on="1"/>
        <pt x="356" y="576" on="1"/>
        <pt x="355" y="576" on="0"/>
        <pt x="355" y="577" on="1"/>
        <pt x="349" y="664" on="0"/>
        <pt x="328" y="694" on="1"/>
        <pt x="309" y="720" on="0"/>
        <pt x="278" y="721" on="1"/>
        <pt x="237" y="721" on="0"/>
        <pt x="126" y="529" on="0"/>
        <pt x="51" y="308" on="0"/>
        <pt x="51" y="183" on="0"/>
        <pt x="127" y="38" on="0"/>
        <pt x="265" y="38" on="0"/>
        <pt x="396" y="182" on="0"/>
        <pt x="411" y="256" on="1"/>
        <pt x="422" y="253" on="0"/>
        <pt x="422" y="224" on="0"/>
        <pt x="420" y="218" on="1"/>
        <pt x="397" y="144" on="0"/>
        <pt x="264" y="0" on="0"/>
        <pt x="133" y="0" on="0"/>
        <pt x="42" y="98" on="0"/>
      </contour>
      <contour>
        <pt x="415" y="929" on="1"/>
        <pt x="366" y="816" on="0"/>
        <pt x="297" y="816" on="1"/>
        <pt x="256" y="816" on="0"/>
        <pt x="176" y="883" on="0"/>
        <pt x="143" y="929" on="1"/>
        <pt x="145" y="931" on="0"/>
        <pt x="174" y="940" on="0"/>
        <pt x="178" y="940" on="1"/>
        <pt x="206" y="912" on="1"/>
        <pt x="228" y="890" on="0"/>
        <pt x="250" y="870" on="0"/>
        <pt x="287" y="852" on="0"/>
        <pt x="304" y="852" on="0"/>
        <pt x="323" y="858" on="0"/>
        <pt x="361" y="899" on="0"/>
        <pt x="377" y="938" on="1"/>
        <pt x="381" y="942" on="0"/>
        <pt x="416" y="942" on="0"/>
        <pt x="416" y="931" on="1"/>
        <pt x="415" y="930" on="1"/>
      </contour>
    </TTGlyph>
    <TTGlyph name="Ccedilla" xMin="19" yMin="-248" xMax="422" yMax="758">
      <contour>
        <pt x="213" y="-45" on="1"/>
        <pt x="271" y="-40" on="1"/>
        <pt x="317" y="-40" on="0"/>
        <pt x="376" y="-93" on="0"/>
        <pt x="376" y="-186" on="0"/>
        <pt x="284" y="-248" on="0"/>
        <pt x="234" y="-248" on="1"/>
        <pt x="202" y="-248" on="1"/>
        <pt x="171" y="-230" on="0"/>
        <pt x="171" y="-149" on="0"/>
        <pt x="204" y="-149" on="1"/>
        <pt x="219" y="-149" on="0"/>
        <pt x="219" y="-158" on="1"/>
        <pt x="219" y="-159" on="0"/>
        <pt x="218" y="-160" on="1"/>
        <pt x="192" y="-187" on="1"/>
        <pt x="191" y="-188" on="0"/>
        <pt x="191" y="-206" on="0"/>
        <pt x="215" y="-226" on="0"/>
        <pt x="229" y="-226" on="1"/>
        <pt x="271" y="-226" on="0"/>
        <pt x="350" y="-180" on="0"/>
        <pt x="350" y="-140" on="1"/>
        <pt x="350" y="-62" on="0"/>
        <pt x="263" y="-62" on="1"/>
        <pt x="197" y="-73" on="1"/>
        <pt x="186" y="-73" on="1"/>
        <pt x="186" y="-54" on="0"/>
        <pt x="176" y="-19" on="1"/>
        <pt x="174" y="-3" on="0"/>
        <pt x="174" y="1" on="1"/>
        <pt x="152" y="4" on="0"/>
        <pt x="133" y="14" on="1"/>
        <pt x="94" y="38" on="0"/>
        <pt x="36" y="116" on="0"/>
        <pt x="19" y="182" on="0"/>
        <pt x="19" y="272" on="0"/>
        <pt x="42" y="366" on="1"/>
        <pt x="75" y="503" on="0"/>
        <pt x="212" y="745" on="0"/>
        <pt x="283" y="758" on="1"/>
        <pt x="304" y="758" on="0"/>
        <pt x="334" y="728" on="0"/>
        <pt x="353" y="706" on="0"/>
        <pt x="374" y="641" on="0"/>
        <pt x="374" y="599" on="0"/>
        <pt x="373" y="586" on="1"/>
        <pt x="373" y="576" on="0"/>
        <pt x="359" y="576" on="1"/>
        <pt x="356" y="576" on="1"/>
        <pt x="355" y="576" on="0"/>
        <pt x="355" y="577" on="1"/>
        <pt x="349" y="664" on="0"/>
        <pt x="328" y="694" on="1"/>
        <pt x="309" y="720" on="0"/>
        <pt x="278" y="721" on="1"/>
        <pt x="237" y="721" on="0"/>
        <pt x="126" y="529" on="0"/>
        <pt x="51" y="308" on="0"/>
        <pt x="51" y="183" on="0"/>
        <pt x="127" y="38" on="0"/>
        <pt x="265" y="38" on="0"/>
        <pt x="396" y="182" on="0"/>
        <pt x="411" y="256" on="1"/>
        <pt x="422" y="253" on="0"/>
        <pt x="422" y="238" on="1"/>
        <pt x="422" y="190" on="0"/>
        <pt x="362" y="109" on="1"/>
        <pt x="320" y="52" on="0"/>
        <pt x="268" y="22" on="1"/>
        <pt x="239" y="3" on="0"/>
        <pt x="204" y="0" on="1"/>
        <pt x="205" y="-4" on="0"/>
        <pt x="205" y="-23" on="0"/>
        <pt x="202" y="-41" on="1"/>
        <pt x="202" y="-45" on="0"/>
        <pt x="206" y="-45" on="1"/>
      </contour>
    </TTGlyph>
    <TTGlyph name="D" xMin="20" yMin="-6" xMax="631" yMax="809">
      <contour>
        <pt x="20" y="-5" on="1"/>
        <pt x="93" y="553" on="1"/>
        <pt x="96" y="593" on="0"/>
        <pt x="98" y="600" on="1"/>
        <pt x="102" y="629" on="1"/>
        <pt x="122" y="629" on="1"/>
        <pt x="122" y="604" on="0"/>
        <pt x="116" y="563" on="1"/>
        <pt x="89" y="361" on="0"/>
        <pt x="64" y="128" on="1"/>
        <pt x="65" y="129" on="0"/>
        <pt x="77" y="140" on="0"/>
        <pt x="80" y="143" on="0"/>
        <pt x="90" y="151" on="0"/>
        <pt x="94" y="154" on="0"/>
        <pt x="103" y="160" on="0"/>
        <pt x="106" y="161" on="1"/>
        <pt x="121" y="166" on="0"/>
        <pt x="130" y="166" on="1"/>
        <pt x="160" y="166" on="0"/>
        <pt x="211" y="119" on="0"/>
        <pt x="242" y="64" on="0"/>
        <pt x="297" y="17" on="0"/>
        <pt x="331" y="17" on="1"/>
        <pt x="385" y="17" on="0"/>
        <pt x="512" y="134" on="0"/>
        <pt x="594" y="288" on="0"/>
        <pt x="594" y="341" on="1"/>
        <pt x="594" y="342" on="0"/>
        <pt x="593" y="346" on="0"/>
        <pt x="593" y="346" on="1"/>
        <pt x="550" y="305" on="0"/>
        <pt x="467" y="270" on="0"/>
        <pt x="356" y="270" on="0"/>
        <pt x="278" y="311" on="0"/>
        <pt x="256" y="348" on="1"/>
        <pt x="215" y="418" on="0"/>
        <pt x="215" y="521" on="1"/>
        <pt x="215" y="612" on="0"/>
        <pt x="258" y="704" on="1"/>
        <pt x="280" y="750" on="0"/>
        <pt x="357" y="809" on="0"/>
        <pt x="461" y="809" on="0"/>
        <pt x="552" y="742" on="0"/>
        <pt x="578" y="690" on="1"/>
        <pt x="631" y="582" on="0"/>
        <pt x="631" y="473" on="1"/>
        <pt x="631" y="468" on="0"/>
        <pt x="631" y="464" on="1"/>
        <pt x="631" y="381" on="0"/>
        <pt x="564" y="179" on="0"/>
        <pt x="446" y="22" on="0"/>
        <pt x="368" y="-1" on="1"/>
        <pt x="350" y="-6" on="0"/>
        <pt x="331" y="-6" on="1"/>
        <pt x="270" y="-6" on="0"/>
        <pt x="205" y="52" on="1"/>
        <pt x="198" y="61" on="0"/>
        <pt x="188" y="78" on="1"/>
        <pt x="162" y="120" on="0"/>
        <pt x="138" y="134" on="1"/>
        <pt x="131" y="139" on="0"/>
        <pt x="130" y="138" on="1"/>
        <pt x="106" y="132" on="0"/>
        <pt x="74" y="84" on="0"/>
        <pt x="67" y="60" on="1"/>
        <pt x="49" y="-5" on="0"/>
      </contour>
      <contour>
        <pt x="242" y="418" on="0"/>
        <pt x="327" y="298" on="0"/>
        <pt x="418" y="298" on="1"/>
        <pt x="430" y="297" on="0"/>
        <pt x="442" y="297" on="1"/>
        <pt x="544" y="297" on="0"/>
        <pt x="583" y="389" on="1"/>
        <pt x="602" y="435" on="0"/>
        <pt x="602" y="539" on="0"/>
        <pt x="585" y="597" on="1"/>
        <pt x="552" y="712" on="0"/>
        <pt x="475" y="764" on="1"/>
        <pt x="446" y="784" on="0"/>
        <pt x="414" y="790" on="1"/>
        <pt x="369" y="790" on="0"/>
        <pt x="299" y="733" on="0"/>
        <pt x="280" y="689" on="1"/>
        <pt x="242" y="601" on="0"/>
      </contour>
    </TTGlyph>
    <TTGlyph name="Dcaron" xMin="20" yMin="-6" xMax="631" yMax="976">
      <contour>
        <pt x="20" y="-5" on="1"/>
        <pt x="93" y="553" on="1"/>
        <pt x="96" y="593" on="0"/>
        <pt x="98" y="600" on="1"/>
        <pt x="102" y="629" on="1"/>
        <pt x="122" y="629" on="1"/>
        <pt x="122" y="604" on="0"/>
        <pt x="116" y="563" on="1"/>
        <pt x="89" y="361" on="0"/>
        <pt x="64" y="128" on="1"/>
        <pt x="65" y="129" on="0"/>
        <pt x="77" y="140" on="0"/>
        <pt x="80" y="143" on="0"/>
        <pt x="90" y="151" on="0"/>
        <pt x="94" y="154" on="0"/>
        <pt x="103" y="160" on="0"/>
        <pt x="106" y="161" on="1"/>
        <pt x="121" y="166" on="0"/>
        <pt x="130" y="166" on="1"/>
        <pt x="160" y="166" on="0"/>
        <pt x="211" y="119" on="0"/>
        <pt x="242" y="64" on="0"/>
        <pt x="297" y="17" on="0"/>
        <pt x="331" y="17" on="1"/>
        <pt x="385" y="17" on="0"/>
        <pt x="512" y="134" on="0"/>
        <pt x="594" y="288" on="0"/>
        <pt x="594" y="341" on="1"/>
        <pt x="594" y="342" on="0"/>
        <pt x="593" y="346" on="0"/>
        <pt x="593" y="346" on="1"/>
        <pt x="550" y="305" on="0"/>
        <pt x="467" y="270" on="0"/>
        <pt x="356" y="270" on="0"/>
        <pt x="278" y="311" on="0"/>
        <pt x="256" y="348" on="1"/>
        <pt x="215" y="418" on="0"/>
        <pt x="215" y="521" on="1"/>
        <pt x="215" y="612" on="0"/>
        <pt x="258" y="704" on="1"/>
        <pt x="280" y="750" on="0"/>
        <pt x="357" y="809" on="0"/>
        <pt x="461" y="809" on="0"/>
        <pt x="552" y="742" on="0"/>
        <pt x="578" y="690" on="1"/>
        <pt x="631" y="582" on="0"/>
        <pt x="631" y="473" on="1"/>
        <pt x="631" y="468" on="0"/>
        <pt x="631" y="464" on="1"/>
        <pt x="631" y="381" on="0"/>
        <pt x="564" y="179" on="0"/>
        <pt x="446" y="22" on="0"/>
        <pt x="368" y="-1" on="1"/>
        <pt x="350" y="-6" on="0"/>
        <pt x="331" y="-6" on="1"/>
        <pt x="270" y="-6" on="0"/>
        <pt x="205" y="52" on="1"/>
        <pt x="198" y="61" on="0"/>
        <pt x="188" y="78" on="1"/>
        <pt x="162" y="120" on="0"/>
        <pt x="138" y="134" on="1"/>
        <pt x="131" y="139" on="0"/>
        <pt x="130" y="138" on="1"/>
        <pt x="106" y="132" on="0"/>
        <pt x="74" y="84" on="0"/>
        <pt x="67" y="60" on="1"/>
        <pt x="49" y="-5" on="0"/>
      </contour>
      <contour>
        <pt x="242" y="418" on="0"/>
        <pt x="327" y="298" on="0"/>
        <pt x="418" y="298" on="1"/>
        <pt x="430" y="297" on="0"/>
        <pt x="442" y="297" on="1"/>
        <pt x="544" y="297" on="0"/>
        <pt x="583" y="389" on="1"/>
        <pt x="602" y="435" on="0"/>
        <pt x="602" y="539" on="0"/>
        <pt x="585" y="597" on="1"/>
        <pt x="552" y="712" on="0"/>
        <pt x="475" y="764" on="1"/>
        <pt x="446" y="784" on="0"/>
        <pt x="414" y="790" on="1"/>
        <pt x="369" y="790" on="0"/>
        <pt x="299" y="733" on="0"/>
        <pt x="280" y="689" on="1"/>
        <pt x="242" y="601" on="0"/>
      </contour>
      <contour>
        <pt x="557" y="963" on="1"/>
        <pt x="508" y="850" on="0"/>
        <pt x="439" y="850" on="1"/>
        <pt x="398" y="850" on="0"/>
        <pt x="318" y="917" on="0"/>
        <pt x="285" y="963" on="1"/>
        <pt x="287" y="965" on="0"/>
        <pt x="316" y="974" on="0"/>
        <pt x="320" y="974" on="1"/>
        <pt x="348" y="946" on="1"/>
        <pt x="370" y="924" on="0"/>
        <pt x="392" y="904" on="0"/>
        <pt x="429" y="886" on="0"/>
        <pt x="446" y="886" on="0"/>
        <pt x="465" y="892" on="0"/>
        <pt x="503" y="933" on="0"/>
        <pt x="519" y="972" on="1"/>
        <pt x="523" y="976" on="0"/>
        <pt x="558" y="976" on="0"/>
        <pt x="558" y="965" on="1"/>
        <pt x="557" y="964" on="1"/>
      </contour>
    </TTGlyph>
    <TTGlyph name="E" xMin="13" yMin="0" xMax="491" yMax="738">
      <contour>
        <pt x="345" y="436" on="1"/>
        <pt x="402" y="436" on="0"/>
        <pt x="402" y="371" on="0"/>
        <pt x="371" y="348" on="1"/>
        <pt x="319" y="311" on="0"/>
        <pt x="241" y="311" on="1"/>
        <pt x="222" y="311" on="0"/>
        <pt x="166" y="341" on="0"/>
        <pt x="151" y="341" on="1"/>
        <pt x="146" y="341" on="1"/>
        <pt x="50" y="268" on="0"/>
        <pt x="50" y="160" on="1"/>
        <pt x="50" y="110" on="0"/>
        <pt x="94" y="56" on="0"/>
        <pt x="146" y="38" on="1"/>
        <pt x="166" y="32" on="0"/>
        <pt x="200" y="32" on="0"/>
        <pt x="248" y="38" on="0"/>
        <pt x="297" y="50" on="0"/>
        <pt x="361" y="80" on="0"/>
        <pt x="404" y="105" on="0"/>
        <pt x="462" y="139" on="0"/>
        <pt x="482" y="148" on="1"/>
        <pt x="491" y="128" on="0"/>
        <pt x="491" y="113" on="0"/>
        <pt x="482" y="109" on="1"/>
        <pt x="259" y="0" on="0"/>
        <pt x="122" y="0" on="0"/>
        <pt x="13" y="88" on="0"/>
        <pt x="13" y="157" on="1"/>
        <pt x="13" y="195" on="0"/>
        <pt x="55" y="281" on="0"/>
        <pt x="91" y="327" on="0"/>
        <pt x="127" y="369" on="1"/>
        <pt x="127" y="373" on="1"/>
        <pt x="117" y="461" on="1"/>
        <pt x="117" y="505" on="0"/>
        <pt x="171" y="634" on="0"/>
        <pt x="264" y="738" on="0"/>
        <pt x="350" y="738" on="0"/>
        <pt x="402" y="677" on="0"/>
        <pt x="402" y="636" on="1"/>
        <pt x="402" y="635" on="0"/>
        <pt x="403" y="621" on="0"/>
        <pt x="402" y="613" on="0"/>
        <pt x="401" y="608" on="1"/>
        <pt x="399" y="596" on="0"/>
        <pt x="387" y="596" on="1"/>
        <pt x="382" y="596" on="1"/>
        <pt x="370" y="667" on="0"/>
        <pt x="346" y="695" on="1"/>
        <pt x="333" y="709" on="0"/>
        <pt x="318" y="709" on="1"/>
        <pt x="251" y="709" on="0"/>
        <pt x="146" y="539" on="0"/>
        <pt x="146" y="468" on="1"/>
        <pt x="146" y="440" on="0"/>
        <pt x="156" y="396" on="1"/>
        <pt x="165" y="396" on="1"/>
        <pt x="189" y="396" on="0"/>
        <pt x="298" y="436" on="0"/>
        <pt x="326" y="436" on="1"/>
        <pt x="336" y="436" on="0"/>
      </contour>
      <contour>
        <pt x="193" y="364" on="1"/>
        <pt x="193" y="340" on="0"/>
        <pt x="250" y="340" on="1"/>
        <pt x="285" y="340" on="0"/>
        <pt x="357" y="364" on="0"/>
        <pt x="373" y="388" on="1"/>
        <pt x="359" y="408" on="0"/>
        <pt x="303" y="408" on="0"/>
        <pt x="193" y="382" on="0"/>
      </contour>
    </TTGlyph>
    <TTGlyph name="Eacute" xMin="13" yMin="0" xMax="491" yMax="909">
      <contour>
        <pt x="345" y="436" on="1"/>
        <pt x="402" y="436" on="0"/>
        <pt x="402" y="371" on="0"/>
        <pt x="371" y="348" on="1"/>
        <pt x="319" y="311" on="0"/>
        <pt x="241" y="311" on="1"/>
        <pt x="222" y="311" on="0"/>
        <pt x="166" y="341" on="0"/>
        <pt x="151" y="341" on="1"/>
        <pt x="146" y="341" on="1"/>
        <pt x="50" y="268" on="0"/>
        <pt x="50" y="160" on="1"/>
        <pt x="50" y="110" on="0"/>
        <pt x="94" y="56" on="0"/>
        <pt x="146" y="38" on="1"/>
        <pt x="166" y="32" on="0"/>
        <pt x="200" y="32" on="0"/>
        <pt x="248" y="38" on="0"/>
        <pt x="297" y="50" on="0"/>
        <pt x="361" y="80" on="0"/>
        <pt x="404" y="105" on="0"/>
        <pt x="462" y="139" on="0"/>
        <pt x="482" y="148" on="1"/>
        <pt x="491" y="128" on="0"/>
        <pt x="491" y="113" on="0"/>
        <pt x="482" y="109" on="1"/>
        <pt x="259" y="0" on="0"/>
        <pt x="122" y="0" on="0"/>
        <pt x="13" y="88" on="0"/>
        <pt x="13" y="157" on="1"/>
        <pt x="13" y="195" on="0"/>
        <pt x="55" y="281" on="0"/>
        <pt x="91" y="327" on="0"/>
        <pt x="127" y="369" on="1"/>
        <pt x="127" y="373" on="1"/>
        <pt x="117" y="461" on="1"/>
        <pt x="117" y="505" on="0"/>
        <pt x="171" y="634" on="0"/>
        <pt x="264" y="738" on="0"/>
        <pt x="350" y="738" on="0"/>
        <pt x="402" y="677" on="0"/>
        <pt x="402" y="636" on="1"/>
        <pt x="402" y="635" on="0"/>
        <pt x="403" y="621" on="0"/>
        <pt x="402" y="613" on="0"/>
        <pt x="401" y="608" on="1"/>
        <pt x="399" y="596" on="0"/>
        <pt x="387" y="596" on="1"/>
        <pt x="382" y="596" on="1"/>
        <pt x="370" y="667" on="0"/>
        <pt x="346" y="695" on="1"/>
        <pt x="333" y="709" on="0"/>
        <pt x="318" y="709" on="1"/>
        <pt x="251" y="709" on="0"/>
        <pt x="146" y="539" on="0"/>
        <pt x="146" y="468" on="1"/>
        <pt x="146" y="440" on="0"/>
        <pt x="156" y="396" on="1"/>
        <pt x="165" y="396" on="1"/>
        <pt x="189" y="396" on="0"/>
        <pt x="298" y="436" on="0"/>
        <pt x="326" y="436" on="1"/>
        <pt x="336" y="436" on="0"/>
      </contour>
      <contour>
        <pt x="193" y="364" on="1"/>
        <pt x="193" y="340" on="0"/>
        <pt x="250" y="340" on="1"/>
        <pt x="285" y="340" on="0"/>
        <pt x="357" y="364" on="0"/>
        <pt x="373" y="388" on="1"/>
        <pt x="359" y="408" on="0"/>
        <pt x="303" y="408" on="0"/>
        <pt x="193" y="382" on="0"/>
      </contour>
      <contour>
        <pt x="255" y="776" on="1"/>
        <pt x="250" y="778" on="0"/>
        <pt x="250" y="789" on="0"/>
        <pt x="257" y="802" on="0"/>
        <pt x="286" y="839" on="0"/>
        <pt x="293" y="856" on="1"/>
        <pt x="319" y="909" on="0"/>
        <pt x="346" y="909" on="1"/>
        <pt x="357" y="909" on="0"/>
        <pt x="357" y="876" on="0"/>
        <pt x="320" y="818" on="0"/>
        <pt x="284" y="783" on="0"/>
      </contour>
    </TTGlyph>
    <TTGlyph name="Ecaron" xMin="13" yMin="0" xMax="491" yMax="909">
      <contour>
        <pt x="345" y="436" on="1"/>
        <pt x="402" y="436" on="0"/>
        <pt x="402" y="371" on="0"/>
        <pt x="371" y="348" on="1"/>
        <pt x="319" y="311" on="0"/>
        <pt x="241" y="311" on="1"/>
        <pt x="222" y="311" on="0"/>
        <pt x="166" y="341" on="0"/>
        <pt x="151" y="341" on="1"/>
        <pt x="146" y="341" on="1"/>
        <pt x="50" y="268" on="0"/>
        <pt x="50" y="160" on="1"/>
        <pt x="50" y="110" on="0"/>
        <pt x="94" y="56" on="0"/>
        <pt x="146" y="38" on="1"/>
        <pt x="166" y="32" on="0"/>
        <pt x="200" y="32" on="0"/>
        <pt x="248" y="38" on="0"/>
        <pt x="297" y="50" on="0"/>
        <pt x="361" y="80" on="0"/>
        <pt x="404" y="105" on="0"/>
        <pt x="462" y="139" on="0"/>
        <pt x="482" y="148" on="1"/>
        <pt x="491" y="128" on="0"/>
        <pt x="491" y="113" on="0"/>
        <pt x="482" y="109" on="1"/>
        <pt x="259" y="0" on="0"/>
        <pt x="122" y="0" on="0"/>
        <pt x="13" y="88" on="0"/>
        <pt x="13" y="157" on="1"/>
        <pt x="13" y="195" on="0"/>
        <pt x="55" y="281" on="0"/>
        <pt x="91" y="327" on="0"/>
        <pt x="127" y="369" on="1"/>
        <pt x="127" y="373" on="1"/>
        <pt x="117" y="461" on="1"/>
        <pt x="117" y="505" on="0"/>
        <pt x="171" y="634" on="0"/>
        <pt x="264" y="738" on="0"/>
        <pt x="350" y="738" on="0"/>
        <pt x="402" y="677" on="0"/>
        <pt x="402" y="636" on="1"/>
        <pt x="402" y="635" on="0"/>
        <pt x="403" y="621" on="0"/>
        <pt x="402" y="613" on="0"/>
        <pt x="401" y="608" on="1"/>
        <pt x="399" y="596" on="0"/>
        <pt x="387" y="596" on="1"/>
        <pt x="382" y="596" on="1"/>
        <pt x="370" y="667" on="0"/>
        <pt x="346" y="695" on="1"/>
        <pt x="333" y="709" on="0"/>
        <pt x="318" y="709" on="1"/>
        <pt x="251" y="709" on="0"/>
        <pt x="146" y="539" on="0"/>
        <pt x="146" y="468" on="1"/>
        <pt x="146" y="440" on="0"/>
        <pt x="156" y="396" on="1"/>
        <pt x="165" y="396" on="1"/>
        <pt x="189" y="396" on="0"/>
        <pt x="298" y="436" on="0"/>
        <pt x="326" y="436" on="1"/>
        <pt x="336" y="436" on="0"/>
      </contour>
      <contour>
        <pt x="193" y="364" on="1"/>
        <pt x="193" y="340" on="0"/>
        <pt x="250" y="340" on="1"/>
        <pt x="285" y="340" on="0"/>
        <pt x="357" y="364" on="0"/>
        <pt x="373" y="388" on="1"/>
        <pt x="359" y="408" on="0"/>
        <pt x="303" y="408" on="0"/>
        <pt x="193" y="382" on="0"/>
      </contour>
      <contour>
        <pt x="436" y="896" on="1"/>
        <pt x="387" y="783" on="0"/>
        <pt x="318" y="783" on="1"/>
        <pt x="277" y="783" on="0"/>
        <pt x="197" y="850" on="0"/>
        <pt x="164" y="896" on="1"/>
        <pt x="166" y="898" on="0"/>
        <pt x="195" y="907" on="0"/>
        <pt x="199" y="907" on="1"/>
        <pt x="227" y="879" on="1"/>
        <pt x="249" y="857" on="0"/>
        <pt x="271" y="837" on="0"/>
        <pt x="308" y="819" on="0"/>
        <pt x="324" y="819" on="0"/>
        <pt x="344" y="825" on="0"/>
        <pt x="382" y="866" on="0"/>
        <pt x="398" y="905" on="1"/>
        <pt x="402" y="909" on="0"/>
        <pt x="437" y="909" on="0"/>
        <pt x="437" y="898" on="1"/>
        <pt x="436" y="897" on="1"/>
      </contour>
    </TTGlyph>
    <TTGlyph name="Ecircumflex" xMin="13" yMin="0" xMax="491" yMax="954">
      <contour>
        <pt x="345" y="436" on="1"/>
        <pt x="402" y="436" on="0"/>
        <pt x="402" y="371" on="0"/>
        <pt x="371" y="348" on="1"/>
        <pt x="319" y="311" on="0"/>
        <pt x="241" y="311" on="1"/>
        <pt x="222" y="311" on="0"/>
        <pt x="166" y="341" on="0"/>
        <pt x="151" y="341" on="1"/>
        <pt x="146" y="341" on="1"/>
        <pt x="50" y="268" on="0"/>
        <pt x="50" y="160" on="1"/>
        <pt x="50" y="110" on="0"/>
        <pt x="94" y="56" on="0"/>
        <pt x="146" y="38" on="1"/>
        <pt x="166" y="32" on="0"/>
        <pt x="200" y="32" on="0"/>
        <pt x="248" y="38" on="0"/>
        <pt x="297" y="50" on="0"/>
        <pt x="361" y="80" on="0"/>
        <pt x="404" y="105" on="0"/>
        <pt x="462" y="139" on="0"/>
        <pt x="482" y="148" on="1"/>
        <pt x="491" y="128" on="0"/>
        <pt x="491" y="113" on="0"/>
        <pt x="482" y="109" on="1"/>
        <pt x="259" y="0" on="0"/>
        <pt x="122" y="0" on="0"/>
        <pt x="13" y="88" on="0"/>
        <pt x="13" y="157" on="1"/>
        <pt x="13" y="195" on="0"/>
        <pt x="55" y="281" on="0"/>
        <pt x="91" y="327" on="0"/>
        <pt x="127" y="369" on="1"/>
        <pt x="127" y="373" on="1"/>
        <pt x="117" y="461" on="1"/>
        <pt x="117" y="505" on="0"/>
        <pt x="171" y="634" on="0"/>
        <pt x="264" y="738" on="0"/>
        <pt x="350" y="738" on="0"/>
        <pt x="402" y="677" on="0"/>
        <pt x="402" y="636" on="1"/>
        <pt x="402" y="635" on="0"/>
        <pt x="403" y="621" on="0"/>
        <pt x="402" y="613" on="0"/>
        <pt x="401" y="608" on="1"/>
        <pt x="399" y="596" on="0"/>
        <pt x="387" y="596" on="1"/>
        <pt x="382" y="596" on="1"/>
        <pt x="370" y="667" on="0"/>
        <pt x="346" y="695" on="1"/>
        <pt x="333" y="709" on="0"/>
        <pt x="318" y="709" on="1"/>
        <pt x="251" y="709" on="0"/>
        <pt x="146" y="539" on="0"/>
        <pt x="146" y="468" on="1"/>
        <pt x="146" y="440" on="0"/>
        <pt x="156" y="396" on="1"/>
        <pt x="165" y="396" on="1"/>
        <pt x="189" y="396" on="0"/>
        <pt x="298" y="436" on="0"/>
        <pt x="326" y="436" on="1"/>
        <pt x="336" y="436" on="0"/>
      </contour>
      <contour>
        <pt x="193" y="364" on="1"/>
        <pt x="193" y="340" on="0"/>
        <pt x="250" y="340" on="1"/>
        <pt x="285" y="340" on="0"/>
        <pt x="357" y="364" on="0"/>
        <pt x="373" y="388" on="1"/>
        <pt x="359" y="408" on="0"/>
        <pt x="303" y="408" on="0"/>
        <pt x="193" y="382" on="0"/>
      </contour>
      <contour>
        <pt x="339" y="954" on="1"/>
        <pt x="340" y="953" on="0"/>
        <pt x="342" y="953" on="1"/>
        <pt x="345" y="953" on="1"/>
        <pt x="345" y="922" on="0"/>
        <pt x="370" y="862" on="0"/>
        <pt x="381" y="839" on="1"/>
        <pt x="398" y="804" on="1"/>
        <pt x="407" y="788" on="0"/>
        <pt x="407" y="786" on="1"/>
        <pt x="407" y="785" on="1"/>
        <pt x="408" y="783" on="1"/>
        <pt x="408" y="778" on="0"/>
        <pt x="397" y="769" on="0"/>
        <pt x="384" y="769" on="0"/>
        <pt x="381" y="775" on="1"/>
        <pt x="371" y="795" on="0"/>
        <pt x="339" y="875" on="1"/>
        <pt x="323" y="899" on="1"/>
        <pt x="308" y="890" on="0"/>
        <pt x="271" y="829" on="0"/>
        <pt x="237" y="780" on="0"/>
        <pt x="222" y="780" on="1"/>
        <pt x="216" y="780" on="0"/>
        <pt x="213" y="786" on="1"/>
        <pt x="225" y="815" on="0"/>
        <pt x="309" y="932" on="0"/>
      </contour>
    </TTGlyph>
    <TTGlyph name="Edieresis" xMin="13" yMin="0" xMax="491" yMax="821">
      <contour>
        <pt x="345" y="436" on="1"/>
        <pt x="402" y="436" on="0"/>
        <pt x="402" y="371" on="0"/>
        <pt x="371" y="348" on="1"/>
        <pt x="319" y="311" on="0"/>
        <pt x="241" y="311" on="1"/>
        <pt x="222" y="311" on="0"/>
        <pt x="166" y="341" on="0"/>
        <pt x="151" y="341" on="1"/>
        <pt x="146" y="341" on="1"/>
        <pt x="50" y="268" on="0"/>
        <pt x="50" y="160" on="1"/>
        <pt x="50" y="110" on="0"/>
        <pt x="94" y="56" on="0"/>
        <pt x="146" y="38" on="1"/>
        <pt x="166" y="32" on="0"/>
        <pt x="200" y="32" on="0"/>
        <pt x="248" y="38" on="0"/>
        <pt x="297" y="50" on="0"/>
        <pt x="361" y="80" on="0"/>
        <pt x="404" y="105" on="0"/>
        <pt x="462" y="139" on="0"/>
        <pt x="482" y="148" on="1"/>
        <pt x="491" y="128" on="0"/>
        <pt x="491" y="113" on="0"/>
        <pt x="482" y="109" on="1"/>
        <pt x="259" y="0" on="0"/>
        <pt x="122" y="0" on="0"/>
        <pt x="13" y="88" on="0"/>
        <pt x="13" y="157" on="1"/>
        <pt x="13" y="195" on="0"/>
        <pt x="55" y="281" on="0"/>
        <pt x="91" y="327" on="0"/>
        <pt x="127" y="369" on="1"/>
        <pt x="127" y="373" on="1"/>
        <pt x="117" y="461" on="1"/>
        <pt x="117" y="505" on="0"/>
        <pt x="171" y="634" on="0"/>
        <pt x="264" y="738" on="0"/>
        <pt x="350" y="738" on="0"/>
        <pt x="402" y="677" on="0"/>
        <pt x="402" y="636" on="1"/>
        <pt x="402" y="635" on="0"/>
        <pt x="403" y="621" on="0"/>
        <pt x="402" y="613" on="0"/>
        <pt x="401" y="608" on="1"/>
        <pt x="399" y="596" on="0"/>
        <pt x="387" y="596" on="1"/>
        <pt x="382" y="596" on="1"/>
        <pt x="370" y="667" on="0"/>
        <pt x="346" y="695" on="1"/>
        <pt x="333" y="709" on="0"/>
        <pt x="318" y="709" on="1"/>
        <pt x="251" y="709" on="0"/>
        <pt x="146" y="539" on="0"/>
        <pt x="146" y="468" on="1"/>
        <pt x="146" y="440" on="0"/>
        <pt x="156" y="396" on="1"/>
        <pt x="165" y="396" on="1"/>
        <pt x="189" y="396" on="0"/>
        <pt x="298" y="436" on="0"/>
        <pt x="326" y="436" on="1"/>
        <pt x="336" y="436" on="0"/>
      </contour>
      <contour>
        <pt x="193" y="364" on="1"/>
        <pt x="193" y="340" on="0"/>
        <pt x="250" y="340" on="1"/>
        <pt x="285" y="340" on="0"/>
        <pt x="357" y="364" on="0"/>
        <pt x="373" y="388" on="1"/>
        <pt x="359" y="408" on="0"/>
        <pt x="303" y="408" on="0"/>
        <pt x="193" y="382" on="0"/>
      </contour>
      <contour>
        <pt x="247" y="821" on="1"/>
        <pt x="254" y="821" on="0"/>
        <pt x="276" y="800" on="0"/>
        <pt x="276" y="791" on="1"/>
        <pt x="270" y="768" on="0"/>
        <pt x="254" y="768" on="1"/>
        <pt x="250" y="768" on="0"/>
        <pt x="246" y="770" on="1"/>
        <pt x="225" y="777" on="0"/>
        <pt x="225" y="813" on="0"/>
      </contour>
      <contour>
        <pt x="371" y="821" on="1"/>
        <pt x="378" y="821" on="0"/>
        <pt x="399" y="800" on="0"/>
        <pt x="399" y="791" on="1"/>
        <pt x="393" y="768" on="0"/>
        <pt x="378" y="768" on="1"/>
        <pt x="374" y="768" on="0"/>
        <pt x="369" y="770" on="1"/>
        <pt x="349" y="777" on="0"/>
        <pt x="349" y="813" on="0"/>
      </contour>
    </TTGlyph>
    <TTGlyph name="Egrave" xMin="13" yMin="0" xMax="491" yMax="891">
      <contour>
        <pt x="345" y="436" on="1"/>
        <pt x="402" y="436" on="0"/>
        <pt x="402" y="371" on="0"/>
        <pt x="371" y="348" on="1"/>
        <pt x="319" y="311" on="0"/>
        <pt x="241" y="311" on="1"/>
        <pt x="222" y="311" on="0"/>
        <pt x="166" y="341" on="0"/>
        <pt x="151" y="341" on="1"/>
        <pt x="146" y="341" on="1"/>
        <pt x="50" y="268" on="0"/>
        <pt x="50" y="160" on="1"/>
        <pt x="50" y="110" on="0"/>
        <pt x="94" y="56" on="0"/>
        <pt x="146" y="38" on="1"/>
        <pt x="166" y="32" on="0"/>
        <pt x="200" y="32" on="0"/>
        <pt x="248" y="38" on="0"/>
        <pt x="297" y="50" on="0"/>
        <pt x="361" y="80" on="0"/>
        <pt x="404" y="105" on="0"/>
        <pt x="462" y="139" on="0"/>
        <pt x="482" y="148" on="1"/>
        <pt x="491" y="128" on="0"/>
        <pt x="491" y="113" on="0"/>
        <pt x="482" y="109" on="1"/>
        <pt x="259" y="0" on="0"/>
        <pt x="122" y="0" on="0"/>
        <pt x="13" y="88" on="0"/>
        <pt x="13" y="157" on="1"/>
        <pt x="13" y="195" on="0"/>
        <pt x="55" y="281" on="0"/>
        <pt x="91" y="327" on="0"/>
        <pt x="127" y="369" on="1"/>
        <pt x="127" y="373" on="1"/>
        <pt x="117" y="461" on="1"/>
        <pt x="117" y="505" on="0"/>
        <pt x="171" y="634" on="0"/>
        <pt x="264" y="738" on="0"/>
        <pt x="350" y="738" on="0"/>
        <pt x="402" y="677" on="0"/>
        <pt x="402" y="636" on="1"/>
        <pt x="402" y="635" on="0"/>
        <pt x="403" y="621" on="0"/>
        <pt x="402" y="613" on="0"/>
        <pt x="401" y="608" on="1"/>
        <pt x="399" y="596" on="0"/>
        <pt x="387" y="596" on="1"/>
        <pt x="382" y="596" on="1"/>
        <pt x="370" y="667" on="0"/>
        <pt x="346" y="695" on="1"/>
        <pt x="333" y="709" on="0"/>
        <pt x="318" y="709" on="1"/>
        <pt x="251" y="709" on="0"/>
        <pt x="146" y="539" on="0"/>
        <pt x="146" y="468" on="1"/>
        <pt x="146" y="440" on="0"/>
        <pt x="156" y="396" on="1"/>
        <pt x="165" y="396" on="1"/>
        <pt x="189" y="396" on="0"/>
        <pt x="298" y="436" on="0"/>
        <pt x="326" y="436" on="1"/>
        <pt x="336" y="436" on="0"/>
      </contour>
      <contour>
        <pt x="193" y="364" on="1"/>
        <pt x="193" y="340" on="0"/>
        <pt x="250" y="340" on="1"/>
        <pt x="285" y="340" on="0"/>
        <pt x="357" y="364" on="0"/>
        <pt x="373" y="388" on="1"/>
        <pt x="359" y="408" on="0"/>
        <pt x="303" y="408" on="0"/>
        <pt x="193" y="382" on="0"/>
      </contour>
      <contour>
        <pt x="257" y="813" on="0"/>
        <pt x="245" y="832" on="0"/>
        <pt x="227" y="862" on="0"/>
        <pt x="227" y="891" on="0"/>
        <pt x="250" y="891" on="0"/>
        <pt x="275" y="857" on="0"/>
        <pt x="290" y="826" on="0"/>
        <pt x="315" y="794" on="0"/>
        <pt x="321" y="780" on="0"/>
        <pt x="321" y="778" on="1"/>
        <pt x="321" y="770" on="0"/>
        <pt x="316" y="768" on="1"/>
        <pt x="309" y="769" on="0"/>
        <pt x="297" y="775" on="0"/>
        <pt x="288" y="779" on="0"/>
        <pt x="282" y="784" on="1"/>
        <pt x="274" y="792" on="1"/>
        <pt x="272" y="795" on="0"/>
        <pt x="260" y="810" on="0"/>
      </contour>
    </TTGlyph>
    <TTGlyph name="Eth" xMin="5" yMin="-5" xMax="662" yMax="809">
      <contour>
        <pt x="94" y="128" on="1"/>
        <pt x="132" y="166" on="0"/>
        <pt x="191" y="166" on="0"/>
        <pt x="242" y="119" on="0"/>
        <pt x="274" y="64" on="0"/>
        <pt x="329" y="17" on="0"/>
        <pt x="362" y="17" on="1"/>
        <pt x="416" y="17" on="0"/>
        <pt x="543" y="134" on="0"/>
        <pt x="625" y="288" on="0"/>
        <pt x="625" y="341" on="1"/>
        <pt x="625" y="346" on="1"/>
        <pt x="581" y="305" on="0"/>
        <pt x="497" y="270" on="0"/>
        <pt x="386" y="270" on="0"/>
        <pt x="309" y="311" on="0"/>
        <pt x="288" y="347" on="1"/>
        <pt x="246" y="416" on="0"/>
        <pt x="246" y="521" on="1"/>
        <pt x="246" y="612" on="0"/>
        <pt x="290" y="704" on="1"/>
        <pt x="311" y="750" on="0"/>
        <pt x="388" y="809" on="0"/>
        <pt x="491" y="809" on="0"/>
        <pt x="582" y="741" on="0"/>
        <pt x="608" y="689" on="1"/>
        <pt x="662" y="581" on="0"/>
        <pt x="662" y="473" on="1"/>
        <pt x="662" y="464" on="0"/>
        <pt x="662" y="455" on="1"/>
        <pt x="662" y="375" on="0"/>
        <pt x="597" y="178" on="0"/>
        <pt x="478" y="23" on="0"/>
        <pt x="400" y="0" on="1"/>
        <pt x="381" y="-5" on="0"/>
        <pt x="362" y="-5" on="1"/>
        <pt x="301" y="-5" on="0"/>
        <pt x="237" y="52" on="1"/>
        <pt x="233" y="57" on="0"/>
        <pt x="196" y="116" on="0"/>
        <pt x="165" y="139" on="0"/>
        <pt x="161" y="138" on="1"/>
        <pt x="138" y="132" on="0"/>
        <pt x="106" y="84" on="0"/>
        <pt x="99" y="60" on="1"/>
        <pt x="81" y="-5" on="0"/>
        <pt x="50" y="-5" on="1"/>
        <pt x="58" y="43" on="1"/>
        <pt x="87" y="270" on="1"/>
        <pt x="15" y="269" on="1"/>
        <pt x="5" y="268" on="0"/>
        <pt x="5" y="294" on="0"/>
        <pt x="9" y="303" on="0"/>
        <pt x="18" y="306" on="0"/>
        <pt x="25" y="307" on="0"/>
        <pt x="41" y="306" on="0"/>
        <pt x="60" y="308" on="0"/>
        <pt x="92" y="308" on="1"/>
        <pt x="124" y="553" on="1"/>
        <pt x="127" y="588" on="0"/>
        <pt x="129" y="600" on="1"/>
        <pt x="132" y="629" on="1"/>
        <pt x="154" y="629" on="1"/>
        <pt x="154" y="594" on="0"/>
        <pt x="124" y="376" on="0"/>
        <pt x="116" y="309" on="1"/>
        <pt x="255" y="311" on="1"/>
        <pt x="260" y="311" on="1"/>
        <pt x="274" y="311" on="0"/>
        <pt x="274" y="282" on="0"/>
        <pt x="266" y="274" on="0"/>
        <pt x="255" y="274" on="1"/>
        <pt x="112" y="271" on="1"/>
        <pt x="108" y="249" on="0"/>
        <pt x="98" y="154" on="0"/>
      </contour>
      <contour>
        <pt x="274" y="418" on="0"/>
        <pt x="358" y="298" on="0"/>
        <pt x="450" y="298" on="1"/>
        <pt x="462" y="297" on="0"/>
        <pt x="474" y="297" on="1"/>
        <pt x="575" y="297" on="0"/>
        <pt x="614" y="389" on="1"/>
        <pt x="633" y="435" on="0"/>
        <pt x="633" y="540" on="0"/>
        <pt x="616" y="597" on="1"/>
        <pt x="583" y="713" on="0"/>
        <pt x="507" y="764" on="1"/>
        <pt x="477" y="784" on="0"/>
        <pt x="445" y="790" on="1"/>
        <pt x="401" y="790" on="0"/>
        <pt x="331" y="733" on="0"/>
        <pt x="312" y="689" on="1"/>
        <pt x="274" y="601" on="0"/>
      </contour>
    </TTGlyph>
    <TTGlyph name="Euro" xMin="10" yMin="0" xMax="464" yMax="712">
      <contour>
        <pt x="34" y="282" on="1"/>
        <pt x="65" y="283" on="1"/>
        <pt x="84" y="283" on="1"/>
        <pt x="86" y="332" on="0"/>
        <pt x="92" y="369" on="1"/>
        <pt x="39" y="369" on="1"/>
        <pt x="32" y="369" on="0"/>
        <pt x="10" y="383" on="0"/>
        <pt x="10" y="391" on="1"/>
        <pt x="10" y="407" on="0"/>
        <pt x="67" y="407" on="0"/>
        <pt x="99" y="406" on="1"/>
        <pt x="124" y="551" on="0"/>
        <pt x="187" y="639" on="1"/>
        <pt x="239" y="712" on="0"/>
        <pt x="298" y="712" on="1"/>
        <pt x="370" y="712" on="0"/>
        <pt x="445" y="618" on="1"/>
        <pt x="444" y="608" on="0"/>
        <pt x="430" y="608" on="1"/>
        <pt x="427" y="608" on="1"/>
        <pt x="426" y="609" on="1"/>
        <pt x="363" y="679" on="0"/>
        <pt x="305" y="679" on="1"/>
        <pt x="253" y="679" on="0"/>
        <pt x="208" y="610" on="1"/>
        <pt x="159" y="533" on="0"/>
        <pt x="136" y="405" on="1"/>
        <pt x="296" y="399" on="0"/>
        <pt x="310" y="376" on="1"/>
        <pt x="301" y="368" on="1"/>
        <pt x="129" y="369" on="1"/>
        <pt x="121" y="322" on="0"/>
        <pt x="120" y="283" on="1"/>
        <pt x="258" y="283" on="1"/>
        <pt x="311" y="283" on="0"/>
        <pt x="329" y="272" on="1"/>
        <pt x="320" y="252" on="0"/>
        <pt x="119" y="245" on="1"/>
        <pt x="124" y="138" on="0"/>
        <pt x="184" y="74" on="1"/>
        <pt x="217" y="38" on="0"/>
        <pt x="261" y="38" on="1"/>
        <pt x="343" y="38" on="0"/>
        <pt x="439" y="92" on="0"/>
        <pt x="454" y="156" on="1"/>
        <pt x="464" y="153" on="0"/>
        <pt x="463" y="120" on="0"/>
        <pt x="463" y="118" on="1"/>
        <pt x="425" y="0" on="0"/>
        <pt x="261" y="0" on="1"/>
        <pt x="201" y="0" on="0"/>
        <pt x="111" y="97" on="0"/>
        <pt x="91" y="160" on="1"/>
        <pt x="83" y="198" on="0"/>
        <pt x="83" y="244" on="1"/>
        <pt x="55" y="243" on="0"/>
        <pt x="10" y="243" on="0"/>
        <pt x="10" y="264" on="1"/>
        <pt x="10" y="279" on="0"/>
        <pt x="21" y="282" on="1"/>
        <pt x="28" y="282" on="0"/>
      </contour>
    </TTGlyph>
    <TTGlyph name="F" xMin="4" yMin="8" xMax="761" yMax="832">
      <contour>
        <pt x="144" y="526" on="1"/>
        <pt x="143" y="558" on="1"/>
        <pt x="143" y="639" on="0"/>
        <pt x="165" y="643" on="1"/>
        <pt x="180" y="635" on="0"/>
        <pt x="184" y="606" on="1"/>
        <pt x="281" y="547" on="0"/>
        <pt x="369" y="547" on="1"/>
        <pt x="425" y="547" on="0"/>
        <pt x="600" y="619" on="0"/>
        <pt x="618" y="661" on="1"/>
        <pt x="623" y="672" on="0"/>
        <pt x="640" y="726" on="0"/>
        <pt x="656" y="765" on="0"/>
        <pt x="668" y="786" on="1"/>
        <pt x="695" y="832" on="0"/>
        <pt x="742" y="832" on="1"/>
        <pt x="761" y="832" on="0"/>
        <pt x="761" y="781" on="0"/>
        <pt x="742" y="757" on="1"/>
        <pt x="685" y="686" on="0"/>
        <pt x="647" y="643" on="1"/>
        <pt x="648" y="631" on="0"/>
        <pt x="648" y="566" on="0"/>
        <pt x="609" y="386" on="0"/>
        <pt x="609" y="345" on="1"/>
        <pt x="609" y="330" on="0"/>
        <pt x="637" y="330" on="1"/>
        <pt x="686" y="330" on="0"/>
        <pt x="751" y="388" on="1"/>
        <pt x="761" y="378" on="1"/>
        <pt x="761" y="375" on="0"/>
        <pt x="738" y="345" on="0"/>
        <pt x="732" y="341" on="1"/>
        <pt x="696" y="315" on="0"/>
        <pt x="651" y="299" on="0"/>
        <pt x="600" y="293" on="1"/>
        <pt x="521" y="125" on="0"/>
        <pt x="453" y="68" on="1"/>
        <pt x="423" y="43" on="0"/>
        <pt x="337" y="8" on="0"/>
        <pt x="216" y="8" on="0"/>
        <pt x="47" y="72" on="0"/>
        <pt x="4" y="123" on="1"/>
        <pt x="28" y="161" on="0"/>
        <pt x="67" y="161" on="1"/>
        <pt x="74" y="161" on="0"/>
        <pt x="80" y="151" on="1"/>
        <pt x="50" y="137" on="0"/>
        <pt x="50" y="127" on="1"/>
        <pt x="50" y="101" on="0"/>
        <pt x="245" y="36" on="0"/>
        <pt x="289" y="36" on="1"/>
        <pt x="385" y="36" on="0"/>
        <pt x="507" y="153" on="0"/>
        <pt x="553" y="256" on="1"/>
        <pt x="563" y="277" on="0"/>
        <pt x="563" y="313" on="0"/>
        <pt x="544" y="331" on="0"/>
        <pt x="529" y="331" on="1"/>
        <pt x="525" y="331" on="1"/>
        <pt x="507" y="322" on="0"/>
        <pt x="496" y="311" on="1"/>
        <pt x="486" y="315" on="0"/>
        <pt x="486" y="330" on="1"/>
        <pt x="486" y="397" on="0"/>
        <pt x="510" y="397" on="1"/>
        <pt x="522" y="397" on="0"/>
        <pt x="560" y="349" on="0"/>
        <pt x="577" y="349" on="1"/>
        <pt x="580" y="349" on="1"/>
        <pt x="603" y="425" on="0"/>
        <pt x="606" y="522" on="1"/>
        <pt x="607" y="553" on="0"/>
        <pt x="607" y="614" on="1"/>
        <pt x="600" y="614" on="1"/>
        <pt x="466" y="517" on="0"/>
        <pt x="355" y="517" on="1"/>
        <pt x="326" y="517" on="0"/>
        <pt x="218" y="559" on="0"/>
        <pt x="193" y="559" on="1"/>
        <pt x="182" y="559" on="0"/>
        <pt x="156" y="526" on="0"/>
      </contour>
      <contour>
        <pt x="742" y="804" on="1"/>
        <pt x="737" y="804" on="1"/>
        <pt x="710" y="804" on="0"/>
        <pt x="665" y="732" on="0"/>
        <pt x="665" y="704" on="1"/>
        <pt x="665" y="699" on="1"/>
        <pt x="725" y="752" on="0"/>
      </contour>
    </TTGlyph>
    <TTGlyph name="G" xMin="4" yMin="9" xMax="846" yMax="974">
      <contour>
        <pt x="439" y="577" on="1"/>
        <pt x="452" y="576" on="0"/>
        <pt x="454" y="576" on="1"/>
        <pt x="515" y="576" on="0"/>
        <pt x="692" y="701" on="0"/>
        <pt x="714" y="757" on="1"/>
        <pt x="716" y="762" on="0"/>
        <pt x="730" y="864" on="0"/>
        <pt x="732" y="869" on="1"/>
        <pt x="736" y="900" on="0"/>
        <pt x="790" y="974" on="0"/>
        <pt x="846" y="974" on="0"/>
        <pt x="846" y="931" on="1"/>
        <pt x="846" y="909" on="0"/>
        <pt x="821" y="855" on="0"/>
        <pt x="797" y="822" on="0"/>
        <pt x="753" y="768" on="0"/>
        <pt x="751" y="765" on="1"/>
        <pt x="751" y="695" on="0"/>
        <pt x="770" y="431" on="0"/>
        <pt x="772" y="355" on="0"/>
        <pt x="772" y="295" on="0"/>
        <pt x="755" y="191" on="0"/>
        <pt x="709" y="80" on="0"/>
        <pt x="616" y="10" on="0"/>
        <pt x="473" y="9" on="0"/>
        <pt x="363" y="130" on="0"/>
        <pt x="363" y="213" on="1"/>
        <pt x="363" y="268" on="0"/>
        <pt x="445" y="352" on="0"/>
        <pt x="499" y="352" on="1"/>
        <pt x="499" y="341" on="0"/>
        <pt x="445" y="303" on="0"/>
        <pt x="391" y="244" on="0"/>
        <pt x="391" y="208" on="1"/>
        <pt x="391" y="138" on="0"/>
        <pt x="492" y="37" on="0"/>
        <pt x="616" y="38" on="0"/>
        <pt x="692" y="102" on="0"/>
        <pt x="709" y="150" on="1"/>
        <pt x="745" y="252" on="0"/>
        <pt x="745" y="347" on="1"/>
        <pt x="742" y="463" on="1"/>
        <pt x="730" y="594" on="0"/>
        <pt x="714" y="709" on="1"/>
        <pt x="629" y="637" on="0"/>
        <pt x="514" y="566" on="0"/>
        <pt x="429" y="539" on="1"/>
        <pt x="429" y="538" on="0"/>
        <pt x="420" y="529" on="1"/>
        <pt x="222" y="237" on="1"/>
        <pt x="205" y="223" on="0"/>
        <pt x="138" y="137" on="0"/>
        <pt x="74" y="84" on="0"/>
        <pt x="37" y="84" on="1"/>
        <pt x="20" y="84" on="0"/>
        <pt x="8" y="95" on="0"/>
        <pt x="4" y="104" on="1"/>
        <pt x="13" y="113" on="1"/>
        <pt x="108" y="141" on="0"/>
        <pt x="179" y="225" on="1"/>
        <pt x="238" y="294" on="0"/>
        <pt x="361" y="485" on="0"/>
        <pt x="392" y="529" on="1"/>
        <pt x="393" y="539" on="1"/>
        <pt x="393" y="548" on="0"/>
        <pt x="380" y="565" on="1"/>
        <pt x="344" y="615" on="0"/>
        <pt x="344" y="662" on="1"/>
        <pt x="344" y="664" on="0"/>
        <pt x="344" y="693" on="0"/>
        <pt x="346" y="720" on="0"/>
        <pt x="352" y="740" on="1"/>
        <pt x="362" y="777" on="0"/>
        <pt x="407" y="777" on="1"/>
        <pt x="438" y="777" on="0"/>
        <pt x="468" y="729" on="0"/>
        <pt x="468" y="654" on="0"/>
      </contour>
      <contour>
        <pt x="373" y="670" on="1"/>
        <pt x="373" y="631" on="0"/>
        <pt x="393" y="585" on="0"/>
        <pt x="407" y="585" on="1"/>
        <pt x="409" y="585" on="1"/>
        <pt x="410" y="585" on="0"/>
        <pt x="411" y="586" on="1"/>
        <pt x="439" y="605" on="0"/>
        <pt x="445" y="643" on="1"/>
        <pt x="447" y="656" on="0"/>
        <pt x="449" y="703" on="0"/>
        <pt x="431" y="747" on="0"/>
        <pt x="411" y="747" on="1"/>
        <pt x="373" y="747" on="0"/>
      </contour>
      <contour>
        <pt x="819" y="938" on="1"/>
        <pt x="794" y="938" on="0"/>
        <pt x="760" y="869" on="0"/>
        <pt x="760" y="841" on="1"/>
        <pt x="760" y="840" on="0"/>
        <pt x="761" y="822" on="1"/>
        <pt x="819" y="870" on="0"/>
      </contour>
    </TTGlyph>
    <TTGlyph name="H" xMin="6" yMin="-28" xMax="870" yMax="814">
      <contour>
        <pt x="284" y="636" on="1"/>
        <pt x="286" y="592" on="0"/>
        <pt x="368" y="592" on="1"/>
        <pt x="434" y="592" on="0"/>
        <pt x="568" y="640" on="0"/>
        <pt x="564" y="663" on="1"/>
        <pt x="577" y="719" on="0"/>
        <pt x="596" y="756" on="1"/>
        <pt x="624" y="814" on="0"/>
        <pt x="640" y="814" on="1"/>
        <pt x="661" y="809" on="0"/>
        <pt x="661" y="786" on="1"/>
        <pt x="661" y="752" on="0"/>
        <pt x="611" y="677" on="1"/>
        <pt x="605" y="667" on="0"/>
        <pt x="602" y="663" on="1"/>
        <pt x="573" y="627" on="0"/>
        <pt x="573" y="515" on="1"/>
        <pt x="590" y="499" on="0"/>
        <pt x="714" y="408" on="0"/>
        <pt x="787" y="326" on="0"/>
        <pt x="800" y="275" on="1"/>
        <pt x="848" y="738" on="1"/>
        <pt x="870" y="734" on="1"/>
        <pt x="825" y="146" on="0"/>
        <pt x="819" y="1" on="1"/>
        <pt x="814" y="-11" on="0"/>
        <pt x="786" y="-11" on="1"/>
        <pt x="786" y="219" on="1"/>
        <pt x="786" y="233" on="0"/>
        <pt x="748" y="321" on="0"/>
        <pt x="739" y="323" on="1"/>
        <pt x="682" y="295" on="0"/>
        <pt x="581" y="295" on="0"/>
        <pt x="545" y="304" on="1"/>
        <pt x="481" y="117" on="0"/>
        <pt x="396" y="38" on="1"/>
        <pt x="326" y="-28" on="0"/>
        <pt x="229" y="-28" on="1"/>
        <pt x="224" y="-28" on="0"/>
        <pt x="219" y="-28" on="1"/>
        <pt x="189" y="-28" on="0"/>
        <pt x="85" y="19" on="0"/>
        <pt x="4" y="88" on="0"/>
        <pt x="6" y="115" on="1"/>
        <pt x="12" y="163" on="0"/>
        <pt x="82" y="191" on="1"/>
        <pt x="82" y="182" on="1"/>
        <pt x="33" y="133" on="0"/>
        <pt x="33" y="121" on="1"/>
        <pt x="33" y="94" on="0"/>
        <pt x="108" y="35" on="0"/>
        <pt x="200" y="1" on="0"/>
        <pt x="229" y="1" on="1"/>
        <pt x="292" y="1" on="0"/>
        <pt x="425" y="110" on="0"/>
        <pt x="508" y="257" on="0"/>
        <pt x="508" y="314" on="1"/>
        <pt x="508" y="332" on="0"/>
        <pt x="468" y="386" on="0"/>
        <pt x="468" y="414" on="1"/>
        <pt x="468" y="471" on="0"/>
        <pt x="535" y="493" on="1"/>
        <pt x="537" y="506" on="0"/>
        <pt x="542" y="531" on="1"/>
        <pt x="552" y="575" on="0"/>
        <pt x="552" y="608" on="0"/>
        <pt x="552" y="614" on="1"/>
        <pt x="521" y="591" on="0"/>
        <pt x="402" y="576" on="1"/>
        <pt x="363" y="570" on="0"/>
        <pt x="335" y="570" on="1"/>
        <pt x="278" y="570" on="0"/>
        <pt x="270" y="592" on="1"/>
        <pt x="270" y="636" on="0"/>
      </contour>
      <contour>
        <pt x="545" y="342" on="1"/>
        <pt x="565" y="318" on="0"/>
        <pt x="621" y="318" on="1"/>
        <pt x="696" y="318" on="0"/>
        <pt x="733" y="342" on="1"/>
        <pt x="666" y="409" on="0"/>
        <pt x="658" y="419" on="0"/>
        <pt x="639" y="433" on="0"/>
        <pt x="621" y="445" on="0"/>
        <pt x="610" y="452" on="1"/>
        <pt x="585" y="467" on="0"/>
        <pt x="573" y="465" on="1"/>
        <pt x="562" y="462" on="0"/>
        <pt x="548" y="360" on="1"/>
        <pt x="546" y="345" on="0"/>
      </contour>
      <contour>
        <pt x="539" y="457" on="1"/>
        <pt x="498" y="457" on="0"/>
        <pt x="498" y="412" on="1"/>
        <pt x="498" y="387" on="0"/>
        <pt x="516" y="361" on="1"/>
        <pt x="539" y="409" on="0"/>
      </contour>
      <contour>
        <pt x="643" y="780" on="1"/>
        <pt x="626" y="780" on="0"/>
        <pt x="612" y="735" on="0"/>
        <pt x="612" y="715" on="1"/>
        <pt x="612" y="711" on="1"/>
        <pt x="643" y="752" on="0"/>
      </contour>
    </TTGlyph>
    <TTGlyph name="I" xMin="13" yMin="-1" xMax="554" yMax="766">
      <contour>
        <pt x="56" y="-1" on="0"/>
        <pt x="13" y="14" on="0"/>
        <pt x="13" y="48" on="0"/>
        <pt x="28" y="48" on="1"/>
        <pt x="38" y="48" on="0"/>
        <pt x="72" y="37" on="0"/>
        <pt x="84" y="37" on="1"/>
        <pt x="153" y="37" on="0"/>
        <pt x="293" y="112" on="0"/>
        <pt x="402" y="235" on="0"/>
        <pt x="488" y="382" on="0"/>
        <pt x="535" y="535" on="0"/>
        <pt x="535" y="669" on="0"/>
        <pt x="475" y="738" on="0"/>
        <pt x="408" y="738" on="1"/>
        <pt x="370" y="738" on="0"/>
        <pt x="307" y="659" on="0"/>
        <pt x="278" y="565" on="0"/>
        <pt x="278" y="530" on="1"/>
        <pt x="278" y="424" on="0"/>
        <pt x="373" y="396" on="1"/>
        <pt x="354" y="388" on="1"/>
        <pt x="352" y="386" on="0"/>
        <pt x="307" y="408" on="0"/>
        <pt x="297" y="416" on="1"/>
        <pt x="248" y="446" on="0"/>
        <pt x="248" y="532" on="1"/>
        <pt x="248" y="577" on="0"/>
        <pt x="283" y="682" on="0"/>
        <pt x="359" y="766" on="0"/>
        <pt x="406" y="766" on="1"/>
        <pt x="554" y="766" on="0"/>
        <pt x="554" y="417" on="0"/>
        <pt x="342" y="109" on="0"/>
        <pt x="184" y="28" on="1"/>
        <pt x="128" y="-1" on="0"/>
        <pt x="76" y="-1" on="1"/>
      </contour>
    </TTGlyph>
    <TTGlyph name="Iacute" xMin="13" yMin="-1" xMax="554" yMax="922">
      <contour>
        <pt x="56" y="-1" on="0"/>
        <pt x="13" y="14" on="0"/>
        <pt x="13" y="48" on="0"/>
        <pt x="28" y="48" on="1"/>
        <pt x="38" y="48" on="0"/>
        <pt x="72" y="37" on="0"/>
        <pt x="84" y="37" on="1"/>
        <pt x="153" y="37" on="0"/>
        <pt x="293" y="112" on="0"/>
        <pt x="402" y="235" on="0"/>
        <pt x="488" y="382" on="0"/>
        <pt x="535" y="535" on="0"/>
        <pt x="535" y="669" on="0"/>
        <pt x="475" y="738" on="0"/>
        <pt x="408" y="738" on="1"/>
        <pt x="370" y="738" on="0"/>
        <pt x="307" y="659" on="0"/>
        <pt x="278" y="565" on="0"/>
        <pt x="278" y="530" on="1"/>
        <pt x="278" y="424" on="0"/>
        <pt x="373" y="396" on="1"/>
        <pt x="354" y="388" on="1"/>
        <pt x="352" y="386" on="0"/>
        <pt x="307" y="408" on="0"/>
        <pt x="297" y="416" on="1"/>
        <pt x="248" y="446" on="0"/>
        <pt x="248" y="532" on="1"/>
        <pt x="248" y="577" on="0"/>
        <pt x="283" y="682" on="0"/>
        <pt x="359" y="766" on="0"/>
        <pt x="406" y="766" on="1"/>
        <pt x="554" y="766" on="0"/>
        <pt x="554" y="417" on="0"/>
        <pt x="342" y="109" on="0"/>
        <pt x="184" y="28" on="1"/>
        <pt x="128" y="-1" on="0"/>
        <pt x="76" y="-1" on="1"/>
      </contour>
      <contour>
        <pt x="349" y="789" on="1"/>
        <pt x="344" y="791" on="0"/>
        <pt x="344" y="802" on="0"/>
        <pt x="351" y="815" on="0"/>
        <pt x="380" y="852" on="0"/>
        <pt x="387" y="869" on="1"/>
        <pt x="413" y="922" on="0"/>
        <pt x="440" y="922" on="1"/>
        <pt x="451" y="922" on="0"/>
        <pt x="451" y="889" on="0"/>
        <pt x="414" y="831" on="0"/>
        <pt x="378" y="796" on="0"/>
      </contour>
    </TTGlyph>
    <TTGlyph name="Icircumflex" xMin="13" yMin="-1" xMax="554" yMax="1000">
      <contour>
        <pt x="56" y="-1" on="0"/>
        <pt x="13" y="14" on="0"/>
        <pt x="13" y="48" on="0"/>
        <pt x="28" y="48" on="1"/>
        <pt x="38" y="48" on="0"/>
        <pt x="72" y="37" on="0"/>
        <pt x="84" y="37" on="1"/>
        <pt x="153" y="37" on="0"/>
        <pt x="293" y="112" on="0"/>
        <pt x="402" y="235" on="0"/>
        <pt x="488" y="382" on="0"/>
        <pt x="535" y="535" on="0"/>
        <pt x="535" y="669" on="0"/>
        <pt x="475" y="738" on="0"/>
        <pt x="408" y="738" on="1"/>
        <pt x="370" y="738" on="0"/>
        <pt x="307" y="659" on="0"/>
        <pt x="278" y="565" on="0"/>
        <pt x="278" y="530" on="1"/>
        <pt x="278" y="424" on="0"/>
        <pt x="373" y="396" on="1"/>
        <pt x="354" y="388" on="1"/>
        <pt x="352" y="386" on="0"/>
        <pt x="307" y="408" on="0"/>
        <pt x="297" y="416" on="1"/>
        <pt x="248" y="446" on="0"/>
        <pt x="248" y="532" on="1"/>
        <pt x="248" y="577" on="0"/>
        <pt x="283" y="682" on="0"/>
        <pt x="359" y="766" on="0"/>
        <pt x="406" y="766" on="1"/>
        <pt x="554" y="766" on="0"/>
        <pt x="554" y="417" on="0"/>
        <pt x="342" y="109" on="0"/>
        <pt x="184" y="28" on="1"/>
        <pt x="128" y="-1" on="0"/>
        <pt x="76" y="-1" on="1"/>
      </contour>
      <contour>
        <pt x="441" y="1000" on="1"/>
        <pt x="442" y="999" on="0"/>
        <pt x="444" y="999" on="1"/>
        <pt x="447" y="999" on="1"/>
        <pt x="447" y="968" on="0"/>
        <pt x="472" y="908" on="0"/>
        <pt x="483" y="885" on="1"/>
        <pt x="500" y="850" on="1"/>
        <pt x="509" y="834" on="0"/>
        <pt x="509" y="832" on="1"/>
        <pt x="509" y="831" on="1"/>
        <pt x="510" y="829" on="1"/>
        <pt x="510" y="824" on="0"/>
        <pt x="499" y="815" on="0"/>
        <pt x="486" y="815" on="0"/>
        <pt x="483" y="821" on="1"/>
        <pt x="473" y="841" on="0"/>
        <pt x="441" y="921" on="1"/>
        <pt x="425" y="945" on="1"/>
        <pt x="410" y="936" on="0"/>
        <pt x="373" y="875" on="0"/>
        <pt x="339" y="826" on="0"/>
        <pt x="324" y="826" on="1"/>
        <pt x="318" y="826" on="0"/>
        <pt x="315" y="832" on="1"/>
        <pt x="327" y="861" on="0"/>
        <pt x="411" y="978" on="0"/>
      </contour>
    </TTGlyph>
    <TTGlyph name="Idieresis" xMin="13" yMin="-1" xMax="554" yMax="866">
      <contour>
        <pt x="56" y="-1" on="0"/>
        <pt x="13" y="14" on="0"/>
        <pt x="13" y="48" on="0"/>
        <pt x="28" y="48" on="1"/>
        <pt x="38" y="48" on="0"/>
        <pt x="72" y="37" on="0"/>
        <pt x="84" y="37" on="1"/>
        <pt x="153" y="37" on="0"/>
        <pt x="293" y="112" on="0"/>
        <pt x="402" y="235" on="0"/>
        <pt x="488" y="382" on="0"/>
        <pt x="535" y="535" on="0"/>
        <pt x="535" y="669" on="0"/>
        <pt x="475" y="738" on="0"/>
        <pt x="408" y="738" on="1"/>
        <pt x="370" y="738" on="0"/>
        <pt x="307" y="659" on="0"/>
        <pt x="278" y="565" on="0"/>
        <pt x="278" y="530" on="1"/>
        <pt x="278" y="424" on="0"/>
        <pt x="373" y="396" on="1"/>
        <pt x="354" y="388" on="1"/>
        <pt x="352" y="386" on="0"/>
        <pt x="307" y="408" on="0"/>
        <pt x="297" y="416" on="1"/>
        <pt x="248" y="446" on="0"/>
        <pt x="248" y="532" on="1"/>
        <pt x="248" y="577" on="0"/>
        <pt x="283" y="682" on="0"/>
        <pt x="359" y="766" on="0"/>
        <pt x="406" y="766" on="1"/>
        <pt x="554" y="766" on="0"/>
        <pt x="554" y="417" on="0"/>
        <pt x="342" y="109" on="0"/>
        <pt x="184" y="28" on="1"/>
        <pt x="128" y="-1" on="0"/>
        <pt x="76" y="-1" on="1"/>
      </contour>
      <contour>
        <pt x="317" y="866" on="1"/>
        <pt x="324" y="866" on="0"/>
        <pt x="346" y="845" on="0"/>
        <pt x="346" y="836" on="1"/>
        <pt x="340" y="813" on="0"/>
        <pt x="324" y="813" on="1"/>
        <pt x="320" y="813" on="0"/>
        <pt x="316" y="815" on="1"/>
        <pt x="295" y="822" on="0"/>
        <pt x="295" y="858" on="0"/>
      </contour>
      <contour>
        <pt x="441" y="866" on="1"/>
        <pt x="448" y="866" on="0"/>
        <pt x="469" y="845" on="0"/>
        <pt x="469" y="836" on="1"/>
        <pt x="463" y="813" on="0"/>
        <pt x="448" y="813" on="1"/>
        <pt x="444" y="813" on="0"/>
        <pt x="439" y="815" on="1"/>
        <pt x="419" y="822" on="0"/>
        <pt x="419" y="858" on="0"/>
      </contour>
    </TTGlyph>
    <TTGlyph name="Igrave" xMin="20" yMin="-9" xMax="561" yMax="909">
      <contour>
        <pt x="63" y="-9" on="0"/>
        <pt x="20" y="6" on="0"/>
        <pt x="20" y="40" on="0"/>
        <pt x="35" y="40" on="1"/>
        <pt x="44" y="40" on="0"/>
        <pt x="78" y="29" on="0"/>
        <pt x="91" y="29" on="1"/>
        <pt x="160" y="29" on="0"/>
        <pt x="300" y="104" on="0"/>
        <pt x="409" y="227" on="0"/>
        <pt x="495" y="374" on="0"/>
        <pt x="542" y="527" on="0"/>
        <pt x="542" y="661" on="0"/>
        <pt x="482" y="730" on="0"/>
        <pt x="415" y="730" on="1"/>
        <pt x="377" y="730" on="0"/>
        <pt x="314" y="651" on="0"/>
        <pt x="285" y="557" on="0"/>
        <pt x="285" y="522" on="1"/>
        <pt x="285" y="416" on="0"/>
        <pt x="380" y="388" on="1"/>
        <pt x="361" y="380" on="1"/>
        <pt x="359" y="378" on="0"/>
        <pt x="314" y="400" on="0"/>
        <pt x="304" y="408" on="1"/>
        <pt x="255" y="438" on="0"/>
        <pt x="255" y="524" on="1"/>
        <pt x="255" y="569" on="0"/>
        <pt x="290" y="674" on="0"/>
        <pt x="366" y="758" on="0"/>
        <pt x="413" y="758" on="1"/>
        <pt x="561" y="758" on="0"/>
        <pt x="561" y="409" on="0"/>
        <pt x="349" y="101" on="0"/>
        <pt x="191" y="20" on="1"/>
        <pt x="135" y="-9" on="0"/>
        <pt x="83" y="-9" on="1"/>
      </contour>
      <contour>
        <pt x="345" y="831" on="0"/>
        <pt x="333" y="850" on="0"/>
        <pt x="315" y="880" on="0"/>
        <pt x="315" y="909" on="0"/>
        <pt x="338" y="909" on="0"/>
        <pt x="363" y="875" on="0"/>
        <pt x="378" y="844" on="0"/>
        <pt x="403" y="812" on="0"/>
        <pt x="409" y="798" on="0"/>
        <pt x="409" y="796" on="1"/>
        <pt x="409" y="788" on="0"/>
        <pt x="404" y="786" on="1"/>
        <pt x="397" y="787" on="0"/>
        <pt x="385" y="793" on="0"/>
        <pt x="376" y="797" on="0"/>
        <pt x="370" y="802" on="1"/>
        <pt x="362" y="810" on="1"/>
        <pt x="360" y="813" on="0"/>
        <pt x="348" y="828" on="0"/>
      </contour>
    </TTGlyph>
    <TTGlyph name="J" xMin="-43" yMin="-436" xMax="639" yMax="738">
      <contour>
        <pt x="479" y="49" on="1"/>
        <pt x="567" y="57" on="1"/>
        <pt x="581" y="57" on="0"/>
        <pt x="581" y="42" on="1"/>
        <pt x="581" y="23" on="0"/>
        <pt x="526" y="13" on="0"/>
        <pt x="464" y="7" on="0"/>
        <pt x="458" y="-9" on="1"/>
        <pt x="432" y="-126" on="0"/>
        <pt x="353" y="-287" on="0"/>
        <pt x="283" y="-376" on="0"/>
        <pt x="181" y="-436" on="0"/>
        <pt x="77" y="-436" on="0"/>
        <pt x="8" y="-383" on="0"/>
        <pt x="-10" y="-340" on="1"/>
        <pt x="-43" y="-258" on="0"/>
        <pt x="-43" y="-164" on="1"/>
        <pt x="-43" y="-93" on="0"/>
        <pt x="-18" y="-30" on="1"/>
        <pt x="-5" y="4" on="0"/>
        <pt x="48" y="48" on="0"/>
        <pt x="119" y="48" on="0"/>
        <pt x="119" y="32" on="1"/>
        <pt x="118" y="28" on="1"/>
        <pt x="108" y="29" on="0"/>
        <pt x="78" y="29" on="0"/>
        <pt x="35" y="9" on="0"/>
        <pt x="7" y="-35" on="0"/>
        <pt x="-2" y="-66" on="1"/>
        <pt x="-15" y="-115" on="0"/>
        <pt x="-15" y="-210" on="0"/>
        <pt x="-2" y="-284" on="0"/>
        <pt x="28" y="-360" on="0"/>
        <pt x="87" y="-408" on="0"/>
        <pt x="127" y="-408" on="1"/>
        <pt x="189" y="-408" on="0"/>
        <pt x="299" y="-319" on="0"/>
        <pt x="336" y="-250" on="1"/>
        <pt x="408" y="-115" on="0"/>
        <pt x="429" y="9" on="1"/>
        <pt x="289" y="52" on="0"/>
        <pt x="289" y="169" on="1"/>
        <pt x="288" y="186" on="0"/>
        <pt x="288" y="234" on="0"/>
        <pt x="301" y="302" on="0"/>
        <pt x="348" y="375" on="0"/>
        <pt x="390" y="425" on="0"/>
        <pt x="477" y="515" on="0"/>
        <pt x="505" y="547" on="1"/>
        <pt x="511" y="562" on="0"/>
        <pt x="520" y="617" on="0"/>
        <pt x="528" y="664" on="0"/>
        <pt x="536" y="688" on="1"/>
        <pt x="553" y="738" on="0"/>
        <pt x="606" y="738" on="1"/>
        <pt x="628" y="738" on="0"/>
        <pt x="639" y="727" on="0"/>
        <pt x="639" y="675" on="0"/>
        <pt x="609" y="622" on="0"/>
        <pt x="551" y="557" on="0"/>
        <pt x="538" y="537" on="0"/>
        <pt x="533" y="505" on="0"/>
        <pt x="528" y="456" on="1"/>
        <pt x="507" y="275" on="0"/>
        <pt x="479" y="93" on="0"/>
      </contour>
      <contour>
        <pt x="315" y="175" on="1"/>
        <pt x="315" y="128" on="0"/>
        <pt x="380" y="46" on="0"/>
        <pt x="426" y="46" on="1"/>
        <pt x="436" y="46" on="0"/>
        <pt x="439" y="56" on="1"/>
        <pt x="496" y="454" on="1"/>
        <pt x="496" y="491" on="1"/>
        <pt x="431" y="441" on="0"/>
        <pt x="315" y="250" on="0"/>
      </contour>
      <contour>
        <pt x="612" y="714" on="1"/>
        <pt x="581" y="714" on="0"/>
        <pt x="552" y="649" on="0"/>
        <pt x="552" y="614" on="1"/>
        <pt x="553" y="607" on="0"/>
        <pt x="553" y="605" on="1"/>
        <pt x="612" y="651" on="0"/>
      </contour>
    </TTGlyph>
    <TTGlyph name="K" xMin="9" yMin="-437" xMax="1426" yMax="764">
      <contour>
        <pt x="567" y="300" on="1"/>
        <pt x="567" y="291" on="1"/>
        <pt x="575" y="276" on="0"/>
        <pt x="684" y="67" on="0"/>
        <pt x="776" y="-94" on="0"/>
        <pt x="900" y="-289" on="0"/>
        <pt x="1015" y="-401" on="0"/>
        <pt x="1058" y="-401" on="1"/>
        <pt x="1157" y="-401" on="0"/>
        <pt x="1298" y="-326" on="0"/>
        <pt x="1368" y="-247" on="1"/>
        <pt x="1397" y="-208" on="0"/>
        <pt x="1397" y="-136" on="0"/>
        <pt x="1335" y="-81" on="0"/>
        <pt x="1291" y="-67" on="1"/>
        <pt x="1291" y="-55" on="1"/>
        <pt x="1351" y="-55" on="0"/>
        <pt x="1426" y="-119" on="0"/>
        <pt x="1426" y="-227" on="0"/>
        <pt x="1351" y="-327" on="0"/>
        <pt x="1240" y="-395" on="0"/>
        <pt x="1118" y="-437" on="0"/>
        <pt x="1069" y="-437" on="1"/>
        <pt x="1067" y="-437" on="0"/>
        <pt x="1066" y="-437" on="1"/>
        <pt x="1018" y="-437" on="0"/>
        <pt x="894" y="-325" on="0"/>
        <pt x="770" y="-143" on="0"/>
        <pt x="661" y="37" on="0"/>
        <pt x="559" y="215" on="0"/>
        <pt x="539" y="243" on="1"/>
        <pt x="530" y="240" on="0"/>
        <pt x="530" y="233" on="1"/>
        <pt x="466" y="87" on="0"/>
        <pt x="426" y="29" on="1"/>
        <pt x="331" y="-106" on="0"/>
        <pt x="180" y="-107" on="1"/>
        <pt x="123" y="-107" on="1"/>
        <pt x="63" y="-91" on="0"/>
        <pt x="9" y="22" on="0"/>
        <pt x="9" y="91" on="1"/>
        <pt x="9" y="168" on="0"/>
        <pt x="31" y="201" on="1"/>
        <pt x="41" y="216" on="0"/>
        <pt x="56" y="216" on="1"/>
        <pt x="86" y="216" on="0"/>
        <pt x="86" y="200" on="1"/>
        <pt x="74" y="190" on="0"/>
        <pt x="62" y="172" on="1"/>
        <pt x="37" y="140" on="0"/>
        <pt x="37" y="90" on="1"/>
        <pt x="37" y="-79" on="0"/>
        <pt x="184" y="-79" on="1"/>
        <pt x="268" y="-79" on="0"/>
        <pt x="417" y="32" on="0"/>
        <pt x="499" y="198" on="0"/>
        <pt x="499" y="280" on="1"/>
        <pt x="397" y="271" on="1"/>
        <pt x="347" y="271" on="0"/>
        <pt x="274" y="317" on="0"/>
        <pt x="274" y="366" on="1"/>
        <pt x="274" y="386" on="0"/>
        <pt x="296" y="398" on="1"/>
        <pt x="326" y="414" on="0"/>
        <pt x="424" y="414" on="0"/>
        <pt x="488" y="385" on="0"/>
        <pt x="520" y="346" on="1"/>
        <pt x="530" y="366" on="1"/>
        <pt x="536" y="375" on="0"/>
        <pt x="568" y="548" on="0"/>
        <pt x="567" y="557" on="0"/>
        <pt x="565" y="570" on="0"/>
        <pt x="565" y="571" on="1"/>
        <pt x="542" y="570" on="0"/>
        <pt x="393" y="552" on="0"/>
        <pt x="332" y="552" on="0"/>
        <pt x="332" y="558" on="1"/>
        <pt x="332" y="567" on="0"/>
        <pt x="379" y="590" on="1"/>
        <pt x="455" y="588" on="1"/>
        <pt x="529" y="588" on="0"/>
        <pt x="567" y="612" on="1"/>
        <pt x="591" y="626" on="0"/>
        <pt x="610" y="699" on="1"/>
        <pt x="616" y="724" on="0"/>
        <pt x="646" y="764" on="0"/>
        <pt x="670" y="764" on="1"/>
        <pt x="680" y="764" on="0"/>
        <pt x="691" y="754" on="0"/>
        <pt x="692" y="743" on="0"/>
        <pt x="692" y="736" on="1"/>
        <pt x="692" y="727" on="1"/>
        <pt x="692" y="677" on="0"/>
        <pt x="615" y="612" on="1"/>
        <pt x="558" y="346" on="1"/>
        <pt x="558" y="340" on="1"/>
        <pt x="618" y="340" on="0"/>
        <pt x="742" y="394" on="0"/>
        <pt x="796" y="439" on="1"/>
        <pt x="892" y="518" on="0"/>
        <pt x="974" y="630" on="1"/>
        <pt x="993" y="630" on="1"/>
        <pt x="993" y="612" on="1"/>
        <pt x="993" y="604" on="0"/>
        <pt x="908" y="498" on="1"/>
        <pt x="800" y="367" on="0"/>
      </contour>
      <contour>
        <pt x="373" y="376" on="1"/>
        <pt x="311" y="381" on="0"/>
        <pt x="311" y="361" on="1"/>
        <pt x="311" y="330" on="0"/>
        <pt x="363" y="299" on="0"/>
        <pt x="396" y="299" on="1"/>
        <pt x="426" y="298" on="1"/>
        <pt x="477" y="298" on="0"/>
        <pt x="482" y="319" on="1"/>
        <pt x="459" y="376" on="0"/>
      </contour>
      <contour>
        <pt x="661" y="725" on="1"/>
        <pt x="643" y="715" on="0"/>
        <pt x="643" y="682" on="1"/>
        <pt x="643" y="679" on="1"/>
        <pt x="662" y="697" on="0"/>
        <pt x="662" y="724" on="0"/>
      </contour>
    </TTGlyph>
    <TTGlyph name="L" xMin="31" yMin="-462" xMax="1457" yMax="696">
      <contour>
        <pt x="617" y="157" on="1"/>
        <pt x="607" y="157" on="1"/>
        <pt x="581" y="139" on="0"/>
        <pt x="405" y="46" on="0"/>
        <pt x="400" y="43" on="1"/>
        <pt x="340" y="13" on="0"/>
        <pt x="224" y="13" on="1"/>
        <pt x="119" y="13" on="0"/>
        <pt x="62" y="70" on="1"/>
        <pt x="31" y="102" on="0"/>
        <pt x="31" y="148" on="1"/>
        <pt x="31" y="218" on="0"/>
        <pt x="99" y="256" on="1"/>
        <pt x="155" y="288" on="0"/>
        <pt x="234" y="303" on="1"/>
        <pt x="283" y="313" on="0"/>
        <pt x="314" y="317" on="1"/>
        <pt x="332" y="317" on="1"/>
        <pt x="403" y="317" on="0"/>
        <pt x="523" y="269" on="1"/>
        <pt x="524" y="269" on="0"/>
        <pt x="540" y="260" on="0"/>
        <pt x="556" y="252" on="0"/>
        <pt x="566" y="248" on="1"/>
        <pt x="585" y="238" on="0"/>
        <pt x="607" y="223" on="0"/>
        <pt x="607" y="222" on="1"/>
        <pt x="622" y="213" on="0"/>
        <pt x="626" y="213" on="1"/>
        <pt x="705" y="315" on="0"/>
        <pt x="721" y="367" on="1"/>
        <pt x="714" y="366" on="0"/>
        <pt x="675" y="366" on="0"/>
        <pt x="567" y="389" on="0"/>
        <pt x="442" y="436" on="0"/>
        <pt x="352" y="519" on="0"/>
        <pt x="352" y="566" on="1"/>
        <pt x="352" y="585" on="0"/>
        <pt x="367" y="585" on="1"/>
        <pt x="376" y="574" on="1"/>
        <pt x="384" y="563" on="0"/>
        <pt x="409" y="530" on="0"/>
        <pt x="424" y="512" on="1"/>
        <pt x="459" y="469" on="0"/>
        <pt x="474" y="462" on="1"/>
        <pt x="588" y="400" on="0"/>
        <pt x="701" y="400" on="1"/>
        <pt x="735" y="400" on="0"/>
        <pt x="748" y="411" on="1"/>
        <pt x="994" y="656" on="1"/>
        <pt x="1007" y="670" on="0"/>
        <pt x="1034" y="681" on="1"/>
        <pt x="1071" y="696" on="0"/>
        <pt x="1098" y="696" on="1"/>
        <pt x="1163" y="696" on="0"/>
        <pt x="1165" y="644" on="1"/>
        <pt x="1165" y="595" on="0"/>
        <pt x="1120" y="514" on="0"/>
        <pt x="1057" y="463" on="0"/>
        <pt x="1008" y="441" on="1"/>
        <pt x="939" y="410" on="0"/>
        <pt x="838" y="383" on="1"/>
        <pt x="822" y="379" on="0"/>
        <pt x="815" y="377" on="1"/>
        <pt x="813" y="375" on="0"/>
        <pt x="768" y="359" on="0"/>
        <pt x="765" y="357" on="1"/>
        <pt x="753" y="339" on="0"/>
        <pt x="660" y="193" on="1"/>
        <pt x="714" y="124" on="0"/>
        <pt x="814" y="-104" on="1"/>
        <pt x="848" y="-184" on="0"/>
        <pt x="928" y="-334" on="0"/>
        <pt x="1033" y="-423" on="0"/>
        <pt x="1093" y="-423" on="1"/>
        <pt x="1095" y="-423" on="0"/>
        <pt x="1096" y="-423" on="1"/>
        <pt x="1240" y="-423" on="0"/>
        <pt x="1291" y="-411" on="1"/>
        <pt x="1401" y="-387" on="0"/>
        <pt x="1422" y="-288" on="1"/>
        <pt x="1427" y="-262" on="0"/>
        <pt x="1427" y="-184" on="0"/>
        <pt x="1367" y="-96" on="0"/>
        <pt x="1322" y="-76" on="1"/>
        <pt x="1341" y="-74" on="1"/>
        <pt x="1397" y="-74" on="0"/>
        <pt x="1457" y="-174" on="0"/>
        <pt x="1457" y="-278" on="0"/>
        <pt x="1434" y="-350" on="0"/>
        <pt x="1400" y="-398" on="0"/>
        <pt x="1339" y="-431" on="0"/>
        <pt x="1285" y="-449" on="0"/>
        <pt x="1242" y="-454" on="1"/>
        <pt x="1179" y="-460" on="0"/>
        <pt x="1086" y="-460" on="1"/>
        <pt x="1076" y="-462" on="0"/>
        <pt x="1067" y="-462" on="1"/>
        <pt x="1026" y="-462" on="0"/>
        <pt x="937" y="-399" on="0"/>
        <pt x="862" y="-283" on="0"/>
        <pt x="783" y="-132" on="0"/>
        <pt x="752" y="-62" on="1"/>
        <pt x="676" y="107" on="0"/>
      </contour>
      <contour>
        <pt x="118" y="244" on="0"/>
        <pt x="67" y="188" on="0"/>
        <pt x="67" y="109" on="0"/>
        <pt x="92" y="84" on="1"/>
        <pt x="135" y="42" on="0"/>
        <pt x="219" y="42" on="1"/>
        <pt x="340" y="42" on="0"/>
        <pt x="390" y="71" on="1"/>
        <pt x="425" y="89" on="0"/>
        <pt x="558" y="162" on="0"/>
        <pt x="561" y="165" on="1"/>
        <pt x="579" y="184" on="1"/>
        <pt x="557" y="225" on="0"/>
        <pt x="382" y="280" on="0"/>
        <pt x="278" y="280" on="0"/>
        <pt x="203" y="270" on="0"/>
      </contour>
      <contour>
        <pt x="1132" y="629" on="1"/>
        <pt x="1132" y="667" on="0"/>
        <pt x="1090" y="667" on="1"/>
        <pt x="1077" y="667" on="0"/>
        <pt x="1038" y="653" on="0"/>
        <pt x="1022" y="637" on="1"/>
        <pt x="814" y="419" on="1"/>
        <pt x="829" y="419" on="1"/>
        <pt x="881" y="419" on="0"/>
        <pt x="1019" y="470" on="0"/>
        <pt x="1132" y="571" on="0"/>
      </contour>
    </TTGlyph>
    <TTGlyph name="Lacute" xMin="31" yMin="-462" xMax="1457" yMax="857">
      <contour>
        <pt x="617" y="157" on="1"/>
        <pt x="607" y="157" on="1"/>
        <pt x="581" y="139" on="0"/>
        <pt x="405" y="46" on="0"/>
        <pt x="400" y="43" on="1"/>
        <pt x="340" y="13" on="0"/>
        <pt x="224" y="13" on="1"/>
        <pt x="119" y="13" on="0"/>
        <pt x="62" y="70" on="1"/>
        <pt x="31" y="102" on="0"/>
        <pt x="31" y="148" on="1"/>
        <pt x="31" y="218" on="0"/>
        <pt x="99" y="256" on="1"/>
        <pt x="155" y="288" on="0"/>
        <pt x="234" y="303" on="1"/>
        <pt x="283" y="313" on="0"/>
        <pt x="314" y="317" on="1"/>
        <pt x="332" y="317" on="1"/>
        <pt x="403" y="317" on="0"/>
        <pt x="523" y="269" on="1"/>
        <pt x="524" y="269" on="0"/>
        <pt x="540" y="260" on="0"/>
        <pt x="556" y="252" on="0"/>
        <pt x="566" y="248" on="1"/>
        <pt x="585" y="238" on="0"/>
        <pt x="607" y="223" on="0"/>
        <pt x="607" y="222" on="1"/>
        <pt x="622" y="213" on="0"/>
        <pt x="626" y="213" on="1"/>
        <pt x="705" y="315" on="0"/>
        <pt x="721" y="367" on="1"/>
        <pt x="714" y="366" on="0"/>
        <pt x="675" y="366" on="0"/>
        <pt x="567" y="389" on="0"/>
        <pt x="442" y="436" on="0"/>
        <pt x="352" y="519" on="0"/>
        <pt x="352" y="566" on="1"/>
        <pt x="352" y="585" on="0"/>
        <pt x="367" y="585" on="1"/>
        <pt x="376" y="574" on="1"/>
        <pt x="384" y="563" on="0"/>
        <pt x="409" y="530" on="0"/>
        <pt x="424" y="512" on="1"/>
        <pt x="459" y="469" on="0"/>
        <pt x="474" y="462" on="1"/>
        <pt x="588" y="400" on="0"/>
        <pt x="701" y="400" on="1"/>
        <pt x="735" y="400" on="0"/>
        <pt x="748" y="411" on="1"/>
        <pt x="994" y="656" on="1"/>
        <pt x="1007" y="670" on="0"/>
        <pt x="1034" y="681" on="1"/>
        <pt x="1071" y="696" on="0"/>
        <pt x="1098" y="696" on="1"/>
        <pt x="1163" y="696" on="0"/>
        <pt x="1165" y="644" on="1"/>
        <pt x="1165" y="595" on="0"/>
        <pt x="1120" y="514" on="0"/>
        <pt x="1057" y="463" on="0"/>
        <pt x="1008" y="441" on="1"/>
        <pt x="939" y="410" on="0"/>
        <pt x="838" y="383" on="1"/>
        <pt x="822" y="379" on="0"/>
        <pt x="815" y="377" on="1"/>
        <pt x="813" y="375" on="0"/>
        <pt x="768" y="359" on="0"/>
        <pt x="765" y="357" on="1"/>
        <pt x="753" y="339" on="0"/>
        <pt x="660" y="193" on="1"/>
        <pt x="714" y="124" on="0"/>
        <pt x="814" y="-104" on="1"/>
        <pt x="848" y="-184" on="0"/>
        <pt x="928" y="-334" on="0"/>
        <pt x="1033" y="-423" on="0"/>
        <pt x="1093" y="-423" on="1"/>
        <pt x="1095" y="-423" on="0"/>
        <pt x="1096" y="-423" on="1"/>
        <pt x="1240" y="-423" on="0"/>
        <pt x="1291" y="-411" on="1"/>
        <pt x="1401" y="-387" on="0"/>
        <pt x="1422" y="-288" on="1"/>
        <pt x="1427" y="-262" on="0"/>
        <pt x="1427" y="-184" on="0"/>
        <pt x="1367" y="-96" on="0"/>
        <pt x="1322" y="-76" on="1"/>
        <pt x="1341" y="-74" on="1"/>
        <pt x="1397" y="-74" on="0"/>
        <pt x="1457" y="-174" on="0"/>
        <pt x="1457" y="-278" on="0"/>
        <pt x="1434" y="-350" on="0"/>
        <pt x="1400" y="-398" on="0"/>
        <pt x="1339" y="-431" on="0"/>
        <pt x="1285" y="-449" on="0"/>
        <pt x="1242" y="-454" on="1"/>
        <pt x="1179" y="-460" on="0"/>
        <pt x="1086" y="-460" on="1"/>
        <pt x="1076" y="-462" on="0"/>
        <pt x="1067" y="-462" on="1"/>
        <pt x="1026" y="-462" on="0"/>
        <pt x="937" y="-399" on="0"/>
        <pt x="862" y="-283" on="0"/>
        <pt x="783" y="-132" on="0"/>
        <pt x="752" y="-62" on="1"/>
        <pt x="676" y="107" on="0"/>
      </contour>
      <contour>
        <pt x="118" y="244" on="0"/>
        <pt x="67" y="188" on="0"/>
        <pt x="67" y="109" on="0"/>
        <pt x="92" y="84" on="1"/>
        <pt x="135" y="42" on="0"/>
        <pt x="219" y="42" on="1"/>
        <pt x="340" y="42" on="0"/>
        <pt x="390" y="71" on="1"/>
        <pt x="425" y="89" on="0"/>
        <pt x="558" y="162" on="0"/>
        <pt x="561" y="165" on="1"/>
        <pt x="579" y="184" on="1"/>
        <pt x="557" y="225" on="0"/>
        <pt x="382" y="280" on="0"/>
        <pt x="278" y="280" on="0"/>
        <pt x="203" y="270" on="0"/>
      </contour>
      <contour>
        <pt x="1132" y="629" on="1"/>
        <pt x="1132" y="667" on="0"/>
        <pt x="1090" y="667" on="1"/>
        <pt x="1077" y="667" on="0"/>
        <pt x="1038" y="653" on="0"/>
        <pt x="1022" y="637" on="1"/>
        <pt x="814" y="419" on="1"/>
        <pt x="829" y="419" on="1"/>
        <pt x="881" y="419" on="0"/>
        <pt x="1019" y="470" on="0"/>
        <pt x="1132" y="571" on="0"/>
      </contour>
      <contour>
        <pt x="1010" y="724" on="1"/>
        <pt x="1005" y="726" on="0"/>
        <pt x="1005" y="737" on="0"/>
        <pt x="1012" y="750" on="0"/>
        <pt x="1041" y="787" on="0"/>
        <pt x="1048" y="804" on="1"/>
        <pt x="1074" y="857" on="0"/>
        <pt x="1101" y="857" on="1"/>
        <pt x="1112" y="857" on="0"/>
        <pt x="1112" y="824" on="0"/>
        <pt x="1075" y="766" on="0"/>
        <pt x="1039" y="731" on="0"/>
      </contour>
    </TTGlyph>
    <TTGlyph name="Lcaron" xMin="31" yMin="-462" xMax="1457" yMax="833">
      <contour>
        <pt x="1322" y="-76" on="1"/>
        <pt x="1341" y="-74" on="1"/>
        <pt x="1397" y="-74" on="0"/>
        <pt x="1457" y="-174" on="0"/>
        <pt x="1457" y="-278" on="0"/>
        <pt x="1434" y="-350" on="0"/>
        <pt x="1400" y="-398" on="0"/>
        <pt x="1339" y="-431" on="0"/>
        <pt x="1285" y="-449" on="0"/>
        <pt x="1242" y="-454" on="1"/>
        <pt x="1179" y="-460" on="0"/>
        <pt x="1086" y="-460" on="1"/>
        <pt x="1076" y="-462" on="0"/>
        <pt x="1067" y="-462" on="1"/>
        <pt x="1026" y="-462" on="0"/>
        <pt x="937" y="-399" on="0"/>
        <pt x="862" y="-283" on="0"/>
        <pt x="783" y="-132" on="0"/>
        <pt x="752" y="-62" on="1"/>
        <pt x="676" y="107" on="0"/>
        <pt x="617" y="157" on="1"/>
        <pt x="607" y="157" on="1"/>
        <pt x="581" y="139" on="0"/>
        <pt x="405" y="46" on="0"/>
        <pt x="400" y="43" on="1"/>
        <pt x="340" y="13" on="0"/>
        <pt x="224" y="13" on="1"/>
        <pt x="119" y="13" on="0"/>
        <pt x="62" y="70" on="1"/>
        <pt x="31" y="102" on="0"/>
        <pt x="31" y="148" on="1"/>
        <pt x="31" y="218" on="0"/>
        <pt x="99" y="256" on="1"/>
        <pt x="155" y="288" on="0"/>
        <pt x="234" y="303" on="1"/>
        <pt x="283" y="313" on="0"/>
        <pt x="314" y="317" on="1"/>
        <pt x="332" y="317" on="1"/>
        <pt x="403" y="317" on="0"/>
        <pt x="523" y="269" on="1"/>
        <pt x="579" y="241" on="1"/>
        <pt x="607" y="224" on="0"/>
        <pt x="607" y="222" on="1"/>
        <pt x="618" y="217" on="1"/>
        <pt x="625" y="213" on="0"/>
        <pt x="626" y="213" on="1"/>
        <pt x="705" y="315" on="0"/>
        <pt x="721" y="367" on="1"/>
        <pt x="714" y="366" on="0"/>
        <pt x="675" y="366" on="0"/>
        <pt x="567" y="389" on="0"/>
        <pt x="442" y="436" on="0"/>
        <pt x="352" y="519" on="0"/>
        <pt x="352" y="566" on="1"/>
        <pt x="352" y="585" on="0"/>
        <pt x="367" y="585" on="1"/>
        <pt x="376" y="574" on="1"/>
        <pt x="384" y="563" on="0"/>
        <pt x="409" y="530" on="0"/>
        <pt x="424" y="512" on="1"/>
        <pt x="459" y="469" on="0"/>
        <pt x="474" y="462" on="1"/>
        <pt x="588" y="400" on="0"/>
        <pt x="701" y="400" on="1"/>
        <pt x="735" y="400" on="0"/>
        <pt x="748" y="411" on="1"/>
        <pt x="994" y="656" on="1"/>
        <pt x="1007" y="670" on="0"/>
        <pt x="1034" y="681" on="1"/>
        <pt x="1071" y="696" on="0"/>
        <pt x="1098" y="696" on="1"/>
        <pt x="1163" y="696" on="0"/>
        <pt x="1165" y="644" on="1"/>
        <pt x="1165" y="595" on="0"/>
        <pt x="1120" y="514" on="0"/>
        <pt x="1057" y="463" on="0"/>
        <pt x="1008" y="441" on="1"/>
        <pt x="939" y="410" on="0"/>
        <pt x="838" y="383" on="1"/>
        <pt x="822" y="379" on="0"/>
        <pt x="815" y="377" on="1"/>
        <pt x="813" y="375" on="0"/>
        <pt x="768" y="359" on="0"/>
        <pt x="765" y="357" on="1"/>
        <pt x="753" y="339" on="0"/>
        <pt x="660" y="193" on="1"/>
        <pt x="714" y="124" on="0"/>
        <pt x="814" y="-104" on="1"/>
        <pt x="848" y="-184" on="0"/>
        <pt x="928" y="-334" on="0"/>
        <pt x="1033" y="-423" on="0"/>
        <pt x="1093" y="-423" on="1"/>
        <pt x="1095" y="-423" on="0"/>
        <pt x="1096" y="-423" on="1"/>
        <pt x="1240" y="-423" on="0"/>
        <pt x="1291" y="-411" on="1"/>
        <pt x="1401" y="-387" on="0"/>
        <pt x="1422" y="-288" on="1"/>
        <pt x="1427" y="-262" on="0"/>
        <pt x="1427" y="-184" on="0"/>
        <pt x="1367" y="-96" on="0"/>
      </contour>
      <contour>
        <pt x="118" y="244" on="0"/>
        <pt x="67" y="188" on="0"/>
        <pt x="67" y="109" on="0"/>
        <pt x="92" y="84" on="1"/>
        <pt x="135" y="42" on="0"/>
        <pt x="219" y="42" on="1"/>
        <pt x="340" y="42" on="0"/>
        <pt x="390" y="71" on="1"/>
        <pt x="425" y="89" on="0"/>
        <pt x="558" y="162" on="0"/>
        <pt x="561" y="165" on="1"/>
        <pt x="579" y="184" on="1"/>
        <pt x="557" y="225" on="0"/>
        <pt x="382" y="280" on="0"/>
        <pt x="278" y="280" on="0"/>
        <pt x="203" y="270" on="0"/>
      </contour>
      <contour>
        <pt x="1132" y="629" on="1"/>
        <pt x="1132" y="667" on="0"/>
        <pt x="1090" y="667" on="1"/>
        <pt x="1077" y="667" on="0"/>
        <pt x="1038" y="653" on="0"/>
        <pt x="1022" y="637" on="1"/>
        <pt x="814" y="419" on="1"/>
        <pt x="829" y="419" on="1"/>
        <pt x="881" y="419" on="0"/>
        <pt x="1019" y="470" on="0"/>
        <pt x="1132" y="571" on="0"/>
      </contour>
      <contour>
        <pt x="893" y="759" on="1"/>
        <pt x="976" y="829" on="1"/>
        <pt x="980" y="833" on="0"/>
        <pt x="1014" y="833" on="0"/>
        <pt x="1014" y="822" on="1"/>
        <pt x="1013" y="820" on="1"/>
        <pt x="1013" y="819" on="1"/>
        <pt x="899" y="702" on="1"/>
        <pt x="812" y="746" on="0"/>
        <pt x="742" y="819" on="1"/>
        <pt x="742" y="820" on="0"/>
        <pt x="748" y="822" on="1"/>
        <pt x="759" y="826" on="1"/>
        <pt x="770" y="832" on="0"/>
        <pt x="777" y="832" on="1"/>
      </contour>
    </TTGlyph>
    <TTGlyph name="Lslash" xMin="31" yMin="-462" xMax="1457" yMax="696">
      <contour>
        <pt x="1322" y="-76" on="1"/>
        <pt x="1341" y="-74" on="1"/>
        <pt x="1397" y="-74" on="0"/>
        <pt x="1457" y="-174" on="0"/>
        <pt x="1457" y="-278" on="0"/>
        <pt x="1434" y="-350" on="0"/>
        <pt x="1400" y="-398" on="0"/>
        <pt x="1339" y="-431" on="0"/>
        <pt x="1285" y="-449" on="0"/>
        <pt x="1242" y="-454" on="1"/>
        <pt x="1179" y="-460" on="0"/>
        <pt x="1086" y="-460" on="1"/>
        <pt x="1076" y="-462" on="0"/>
        <pt x="1067" y="-462" on="1"/>
        <pt x="1026" y="-462" on="0"/>
        <pt x="937" y="-399" on="0"/>
        <pt x="862" y="-283" on="0"/>
        <pt x="783" y="-132" on="0"/>
        <pt x="752" y="-62" on="1"/>
        <pt x="676" y="107" on="0"/>
        <pt x="617" y="157" on="1"/>
        <pt x="607" y="157" on="1"/>
        <pt x="581" y="139" on="0"/>
        <pt x="405" y="46" on="0"/>
        <pt x="400" y="43" on="1"/>
        <pt x="340" y="13" on="0"/>
        <pt x="224" y="13" on="1"/>
        <pt x="119" y="13" on="0"/>
        <pt x="62" y="70" on="1"/>
        <pt x="31" y="102" on="0"/>
        <pt x="31" y="148" on="1"/>
        <pt x="31" y="218" on="0"/>
        <pt x="99" y="256" on="1"/>
        <pt x="155" y="288" on="0"/>
        <pt x="234" y="303" on="1"/>
        <pt x="283" y="313" on="0"/>
        <pt x="314" y="317" on="1"/>
        <pt x="332" y="317" on="1"/>
        <pt x="403" y="317" on="0"/>
        <pt x="523" y="269" on="1"/>
        <pt x="579" y="241" on="1"/>
        <pt x="607" y="224" on="0"/>
        <pt x="607" y="222" on="1"/>
        <pt x="618" y="217" on="1"/>
        <pt x="625" y="213" on="0"/>
        <pt x="626" y="213" on="1"/>
        <pt x="678" y="284" on="1"/>
        <pt x="592" y="283" on="1"/>
        <pt x="581" y="283" on="0"/>
        <pt x="581" y="308" on="0"/>
        <pt x="585" y="317" on="0"/>
        <pt x="594" y="320" on="0"/>
        <pt x="601" y="321" on="0"/>
        <pt x="617" y="320" on="0"/>
        <pt x="628" y="321" on="0"/>
        <pt x="672" y="322" on="0"/>
        <pt x="701" y="322" on="1"/>
        <pt x="716" y="348" on="0"/>
        <pt x="721" y="367" on="1"/>
        <pt x="714" y="366" on="0"/>
        <pt x="675" y="366" on="0"/>
        <pt x="567" y="389" on="0"/>
        <pt x="442" y="436" on="0"/>
        <pt x="352" y="519" on="0"/>
        <pt x="352" y="566" on="1"/>
        <pt x="352" y="585" on="0"/>
        <pt x="367" y="585" on="1"/>
        <pt x="376" y="574" on="1"/>
        <pt x="384" y="563" on="0"/>
        <pt x="409" y="530" on="0"/>
        <pt x="424" y="512" on="1"/>
        <pt x="459" y="469" on="0"/>
        <pt x="474" y="462" on="1"/>
        <pt x="588" y="400" on="0"/>
        <pt x="701" y="400" on="1"/>
        <pt x="735" y="400" on="0"/>
        <pt x="748" y="411" on="1"/>
        <pt x="994" y="656" on="1"/>
        <pt x="1007" y="670" on="0"/>
        <pt x="1034" y="681" on="1"/>
        <pt x="1071" y="696" on="0"/>
        <pt x="1098" y="696" on="1"/>
        <pt x="1163" y="696" on="0"/>
        <pt x="1165" y="644" on="1"/>
        <pt x="1165" y="595" on="0"/>
        <pt x="1120" y="514" on="0"/>
        <pt x="1057" y="463" on="0"/>
        <pt x="1008" y="441" on="1"/>
        <pt x="939" y="410" on="0"/>
        <pt x="838" y="383" on="1"/>
        <pt x="822" y="379" on="0"/>
        <pt x="815" y="377" on="1"/>
        <pt x="813" y="375" on="0"/>
        <pt x="768" y="359" on="0"/>
        <pt x="765" y="357" on="1"/>
        <pt x="760" y="351" on="0"/>
        <pt x="742" y="322" on="1"/>
        <pt x="753" y="323" on="0"/>
        <pt x="774" y="323" on="1"/>
        <pt x="812" y="325" on="1"/>
        <pt x="817" y="325" on="1"/>
        <pt x="832" y="325" on="0"/>
        <pt x="832" y="305" on="1"/>
        <pt x="832" y="288" on="0"/>
        <pt x="812" y="287" on="1"/>
        <pt x="717" y="285" on="1"/>
        <pt x="660" y="193" on="1"/>
        <pt x="714" y="124" on="0"/>
        <pt x="814" y="-104" on="1"/>
        <pt x="848" y="-184" on="0"/>
        <pt x="928" y="-334" on="0"/>
        <pt x="1033" y="-423" on="0"/>
        <pt x="1093" y="-423" on="1"/>
        <pt x="1095" y="-423" on="0"/>
        <pt x="1096" y="-423" on="1"/>
        <pt x="1240" y="-423" on="0"/>
        <pt x="1291" y="-411" on="1"/>
        <pt x="1401" y="-387" on="0"/>
        <pt x="1422" y="-288" on="1"/>
        <pt x="1427" y="-262" on="0"/>
        <pt x="1427" y="-184" on="0"/>
        <pt x="1367" y="-96" on="0"/>
      </contour>
      <contour>
        <pt x="118" y="244" on="0"/>
        <pt x="67" y="188" on="0"/>
        <pt x="67" y="109" on="0"/>
        <pt x="92" y="84" on="1"/>
        <pt x="135" y="42" on="0"/>
        <pt x="219" y="42" on="1"/>
        <pt x="340" y="42" on="0"/>
        <pt x="390" y="71" on="1"/>
        <pt x="425" y="89" on="0"/>
        <pt x="558" y="162" on="0"/>
        <pt x="561" y="165" on="1"/>
        <pt x="579" y="184" on="1"/>
        <pt x="557" y="225" on="0"/>
        <pt x="382" y="280" on="0"/>
        <pt x="278" y="280" on="0"/>
        <pt x="203" y="270" on="0"/>
      </contour>
      <contour>
        <pt x="1132" y="629" on="1"/>
        <pt x="1132" y="667" on="0"/>
        <pt x="1090" y="667" on="1"/>
        <pt x="1077" y="667" on="0"/>
        <pt x="1038" y="653" on="0"/>
        <pt x="1022" y="637" on="1"/>
        <pt x="814" y="419" on="1"/>
        <pt x="829" y="419" on="1"/>
        <pt x="881" y="419" on="0"/>
        <pt x="1019" y="470" on="0"/>
        <pt x="1132" y="571" on="0"/>
      </contour>
    </TTGlyph>
    <TTGlyph name="M" xMin="23" yMin="-307" xMax="1063" yMax="723">
      <contour>
        <pt x="516" y="574" on="1"/>
        <pt x="515" y="530" on="1"/>
        <pt x="515" y="517" on="1"/>
        <pt x="485" y="309" on="0"/>
        <pt x="477" y="281" on="1"/>
        <pt x="497" y="316" on="0"/>
        <pt x="595" y="502" on="0"/>
        <pt x="657" y="611" on="0"/>
        <pt x="747" y="716" on="0"/>
        <pt x="784" y="723" on="1"/>
        <pt x="828" y="723" on="0"/>
        <pt x="828" y="589" on="1"/>
        <pt x="828" y="564" on="1"/>
        <pt x="827" y="493" on="0"/>
        <pt x="805" y="352" on="1"/>
        <pt x="772" y="132" on="0"/>
        <pt x="772" y="19" on="0"/>
        <pt x="785" y="-79" on="0"/>
        <pt x="809" y="-137" on="1"/>
        <pt x="859" y="-257" on="0"/>
        <pt x="1026" y="-285" on="1"/>
        <pt x="1053" y="-275" on="0"/>
        <pt x="1063" y="-275" on="0"/>
        <pt x="1063" y="-276" on="1"/>
        <pt x="1063" y="-285" on="0"/>
        <pt x="1002" y="-307" on="0"/>
        <pt x="983" y="-307" on="0"/>
        <pt x="978" y="-305" on="1"/>
        <pt x="880" y="-305" on="0"/>
        <pt x="822" y="-234" on="1"/>
        <pt x="771" y="-170" on="0"/>
        <pt x="751" y="-78" on="1"/>
        <pt x="748" y="-39" on="0"/>
        <pt x="748" y="116" on="0"/>
        <pt x="788" y="492" on="0"/>
        <pt x="790" y="564" on="1"/>
        <pt x="789" y="641" on="1"/>
        <pt x="786" y="670" on="0"/>
        <pt x="775" y="670" on="1"/>
        <pt x="685" y="600" on="0"/>
        <pt x="613" y="469" on="1"/>
        <pt x="574" y="398" on="0"/>
        <pt x="543" y="334" on="0"/>
        <pt x="520" y="284" on="1"/>
        <pt x="487" y="212" on="0"/>
        <pt x="449" y="91" on="1"/>
        <pt x="441" y="83" on="0"/>
        <pt x="423" y="83" on="0"/>
        <pt x="420" y="91" on="1"/>
        <pt x="420" y="150" on="0"/>
        <pt x="487" y="545" on="1"/>
        <pt x="481" y="575" on="0"/>
        <pt x="456" y="552" on="1"/>
        <pt x="449" y="546" on="0"/>
        <pt x="263" y="311" on="0"/>
        <pt x="241" y="281" on="1"/>
        <pt x="237" y="270" on="0"/>
        <pt x="198" y="133" on="0"/>
        <pt x="194" y="121" on="1"/>
        <pt x="178" y="71" on="0"/>
        <pt x="105" y="-4" on="0"/>
        <pt x="61" y="-4" on="1"/>
        <pt x="26" y="-4" on="0"/>
        <pt x="24" y="8" on="1"/>
        <pt x="23" y="14" on="0"/>
        <pt x="23" y="26" on="1"/>
        <pt x="23" y="58" on="0"/>
        <pt x="42" y="83" on="1"/>
        <pt x="213" y="290" on="0"/>
        <pt x="231" y="385" on="1"/>
        <pt x="239" y="393" on="0"/>
        <pt x="239" y="575" on="0"/>
        <pt x="232" y="575" on="1"/>
        <pt x="231" y="575" on="0"/>
        <pt x="231" y="574" on="1"/>
        <pt x="47" y="498" on="1"/>
        <pt x="41" y="498" on="0"/>
        <pt x="32" y="507" on="0"/>
        <pt x="32" y="513" on="1"/>
        <pt x="32" y="524" on="0"/>
        <pt x="66" y="532" on="1"/>
        <pt x="80" y="536" on="1"/>
        <pt x="90" y="541" on="0"/>
        <pt x="124" y="560" on="1"/>
        <pt x="200" y="602" on="0"/>
        <pt x="231" y="604" on="1"/>
        <pt x="251" y="604" on="0"/>
        <pt x="263" y="585" on="0"/>
        <pt x="268" y="574" on="0"/>
        <pt x="270" y="553" on="0"/>
        <pt x="271" y="542" on="0"/>
        <pt x="270" y="518" on="0"/>
        <pt x="270" y="491" on="0"/>
        <pt x="260" y="382" on="0"/>
        <pt x="260" y="347" on="1"/>
        <pt x="430" y="570" on="0"/>
        <pt x="465" y="602" on="1"/>
        <pt x="480" y="616" on="0"/>
        <pt x="499" y="616" on="0"/>
        <pt x="507" y="602" on="0"/>
      </contour>
      <contour>
        <pt x="60" y="25" on="1"/>
        <pt x="87" y="25" on="0"/>
        <pt x="143" y="82" on="0"/>
        <pt x="156" y="111" on="1"/>
        <pt x="174" y="156" on="1"/>
        <pt x="191" y="202" on="0"/>
        <pt x="194" y="215" on="1"/>
        <pt x="194" y="220" on="1"/>
        <pt x="192" y="217" on="0"/>
        <pt x="158" y="178" on="0"/>
        <pt x="135" y="151" on="0"/>
        <pt x="99" y="105" on="0"/>
        <pt x="88" y="88" on="1"/>
        <pt x="60" y="46" on="0"/>
      </contour>
    </TTGlyph>
    <TTGlyph name="N" xMin="13" yMin="-109" xMax="817" yMax="704">
      <contour>
        <pt x="561" y="175" on="1"/>
        <pt x="563" y="71" on="1"/>
        <pt x="583" y="-90" on="0"/>
        <pt x="742" y="-90" on="1"/>
        <pt x="750" y="-90" on="0"/>
        <pt x="810" y="-82" on="0"/>
        <pt x="817" y="-80" on="1"/>
        <pt x="798" y="-109" on="0"/>
        <pt x="638" y="-109" on="0"/>
        <pt x="553" y="-30" on="0"/>
        <pt x="534" y="52" on="1"/>
        <pt x="533" y="170" on="1"/>
        <pt x="533" y="239" on="0"/>
        <pt x="563" y="509" on="0"/>
        <pt x="563" y="577" on="1"/>
        <pt x="563" y="639" on="1"/>
        <pt x="241" y="336" on="1"/>
        <pt x="222" y="184" on="1"/>
        <pt x="215" y="123" on="0"/>
        <pt x="130" y="-5" on="0"/>
        <pt x="75" y="-5" on="1"/>
        <pt x="48" y="-5" on="0"/>
        <pt x="12" y="33" on="0"/>
        <pt x="13" y="62" on="1"/>
        <pt x="18" y="114" on="0"/>
        <pt x="89" y="235" on="0"/>
        <pt x="152" y="305" on="0"/>
        <pt x="202" y="355" on="1"/>
        <pt x="204" y="365" on="0"/>
        <pt x="204" y="464" on="0"/>
        <pt x="184" y="553" on="1"/>
        <pt x="181" y="563" on="0"/>
        <pt x="165" y="563" on="1"/>
        <pt x="164" y="563" on="0"/>
        <pt x="156" y="562" on="1"/>
        <pt x="86" y="507" on="0"/>
        <pt x="22" y="507" on="1"/>
        <pt x="22" y="527" on="0"/>
        <pt x="32" y="532" on="1"/>
        <pt x="36" y="534" on="0"/>
        <pt x="55" y="541" on="0"/>
        <pt x="72" y="547" on="0"/>
        <pt x="169" y="598" on="0"/>
        <pt x="175" y="600" on="1"/>
        <pt x="184" y="601" on="1"/>
        <pt x="195" y="601" on="0"/>
        <pt x="211" y="584" on="0"/>
        <pt x="213" y="572" on="1"/>
        <pt x="242" y="375" on="1"/>
        <pt x="581" y="704" on="1"/>
        <pt x="600" y="686" on="1"/>
        <pt x="604" y="628" on="1"/>
        <pt x="604" y="552" on="0"/>
        <pt x="561" y="252" on="0"/>
      </contour>
      <contour>
        <pt x="103" y="206" on="0"/>
        <pt x="50" y="110" on="0"/>
        <pt x="50" y="23" on="0"/>
        <pt x="70" y="23" on="1"/>
        <pt x="105" y="23" on="0"/>
        <pt x="161" y="88" on="0"/>
        <pt x="176" y="135" on="1"/>
        <pt x="205" y="231" on="0"/>
        <pt x="205" y="298" on="1"/>
        <pt x="194" y="298" on="1"/>
        <pt x="192" y="298" on="0"/>
        <pt x="147" y="252" on="0"/>
        <pt x="138" y="241" on="1"/>
      </contour>
    </TTGlyph>
    <TTGlyph name="Nacute" xMin="13" yMin="-109" xMax="817" yMax="886">
      <contour>
        <pt x="561" y="175" on="1"/>
        <pt x="563" y="71" on="1"/>
        <pt x="583" y="-90" on="0"/>
        <pt x="742" y="-90" on="1"/>
        <pt x="750" y="-90" on="0"/>
        <pt x="810" y="-82" on="0"/>
        <pt x="817" y="-80" on="1"/>
        <pt x="798" y="-109" on="0"/>
        <pt x="638" y="-109" on="0"/>
        <pt x="553" y="-30" on="0"/>
        <pt x="534" y="52" on="1"/>
        <pt x="533" y="170" on="1"/>
        <pt x="533" y="239" on="0"/>
        <pt x="563" y="509" on="0"/>
        <pt x="563" y="577" on="1"/>
        <pt x="563" y="639" on="1"/>
        <pt x="241" y="336" on="1"/>
        <pt x="222" y="184" on="1"/>
        <pt x="215" y="123" on="0"/>
        <pt x="130" y="-5" on="0"/>
        <pt x="75" y="-5" on="1"/>
        <pt x="48" y="-5" on="0"/>
        <pt x="12" y="33" on="0"/>
        <pt x="13" y="62" on="1"/>
        <pt x="18" y="114" on="0"/>
        <pt x="89" y="235" on="0"/>
        <pt x="152" y="305" on="0"/>
        <pt x="202" y="355" on="1"/>
        <pt x="204" y="365" on="0"/>
        <pt x="204" y="464" on="0"/>
        <pt x="184" y="553" on="1"/>
        <pt x="181" y="563" on="0"/>
        <pt x="165" y="563" on="1"/>
        <pt x="164" y="563" on="0"/>
        <pt x="156" y="562" on="1"/>
        <pt x="86" y="507" on="0"/>
        <pt x="22" y="507" on="1"/>
        <pt x="22" y="527" on="0"/>
        <pt x="32" y="532" on="1"/>
        <pt x="36" y="534" on="0"/>
        <pt x="55" y="541" on="0"/>
        <pt x="72" y="547" on="0"/>
        <pt x="169" y="598" on="0"/>
        <pt x="175" y="600" on="1"/>
        <pt x="184" y="601" on="1"/>
        <pt x="195" y="601" on="0"/>
        <pt x="211" y="584" on="0"/>
        <pt x="213" y="572" on="1"/>
        <pt x="242" y="375" on="1"/>
        <pt x="581" y="704" on="1"/>
        <pt x="600" y="686" on="1"/>
        <pt x="604" y="628" on="1"/>
        <pt x="604" y="552" on="0"/>
        <pt x="561" y="252" on="0"/>
      </contour>
      <contour>
        <pt x="103" y="206" on="0"/>
        <pt x="50" y="110" on="0"/>
        <pt x="50" y="23" on="0"/>
        <pt x="70" y="23" on="1"/>
        <pt x="105" y="23" on="0"/>
        <pt x="161" y="88" on="0"/>
        <pt x="176" y="135" on="1"/>
        <pt x="205" y="231" on="0"/>
        <pt x="205" y="298" on="1"/>
        <pt x="194" y="298" on="1"/>
        <pt x="192" y="298" on="0"/>
        <pt x="147" y="252" on="0"/>
        <pt x="138" y="241" on="1"/>
      </contour>
      <contour>
        <pt x="461" y="753" on="1"/>
        <pt x="456" y="755" on="0"/>
        <pt x="456" y="766" on="0"/>
        <pt x="463" y="779" on="0"/>
        <pt x="492" y="816" on="0"/>
        <pt x="499" y="833" on="1"/>
        <pt x="525" y="886" on="0"/>
        <pt x="552" y="886" on="1"/>
        <pt x="563" y="886" on="0"/>
        <pt x="563" y="853" on="0"/>
        <pt x="526" y="795" on="0"/>
        <pt x="490" y="760" on="0"/>
      </contour>
    </TTGlyph>
    <TTGlyph name="Ncaron" xMin="13" yMin="-109" xMax="817" yMax="864">
      <contour>
        <pt x="561" y="175" on="1"/>
        <pt x="563" y="71" on="1"/>
        <pt x="583" y="-90" on="0"/>
        <pt x="742" y="-90" on="1"/>
        <pt x="750" y="-90" on="0"/>
        <pt x="810" y="-82" on="0"/>
        <pt x="817" y="-80" on="1"/>
        <pt x="798" y="-109" on="0"/>
        <pt x="638" y="-109" on="0"/>
        <pt x="553" y="-30" on="0"/>
        <pt x="534" y="52" on="1"/>
        <pt x="533" y="170" on="1"/>
        <pt x="533" y="239" on="0"/>
        <pt x="563" y="509" on="0"/>
        <pt x="563" y="577" on="1"/>
        <pt x="563" y="639" on="1"/>
        <pt x="241" y="336" on="1"/>
        <pt x="222" y="184" on="1"/>
        <pt x="215" y="123" on="0"/>
        <pt x="130" y="-5" on="0"/>
        <pt x="75" y="-5" on="1"/>
        <pt x="48" y="-5" on="0"/>
        <pt x="12" y="33" on="0"/>
        <pt x="13" y="62" on="1"/>
        <pt x="18" y="114" on="0"/>
        <pt x="89" y="235" on="0"/>
        <pt x="152" y="305" on="0"/>
        <pt x="202" y="355" on="1"/>
        <pt x="204" y="365" on="0"/>
        <pt x="204" y="464" on="0"/>
        <pt x="184" y="553" on="1"/>
        <pt x="181" y="563" on="0"/>
        <pt x="165" y="563" on="1"/>
        <pt x="164" y="563" on="0"/>
        <pt x="156" y="562" on="1"/>
        <pt x="86" y="507" on="0"/>
        <pt x="22" y="507" on="1"/>
        <pt x="22" y="527" on="0"/>
        <pt x="32" y="532" on="1"/>
        <pt x="36" y="534" on="0"/>
        <pt x="55" y="541" on="0"/>
        <pt x="72" y="547" on="0"/>
        <pt x="169" y="598" on="0"/>
        <pt x="175" y="600" on="1"/>
        <pt x="184" y="601" on="1"/>
        <pt x="195" y="601" on="0"/>
        <pt x="211" y="584" on="0"/>
        <pt x="213" y="572" on="1"/>
        <pt x="242" y="375" on="1"/>
        <pt x="581" y="704" on="1"/>
        <pt x="600" y="686" on="1"/>
        <pt x="604" y="628" on="1"/>
        <pt x="604" y="552" on="0"/>
        <pt x="561" y="252" on="0"/>
      </contour>
      <contour>
        <pt x="103" y="206" on="0"/>
        <pt x="50" y="110" on="0"/>
        <pt x="50" y="23" on="0"/>
        <pt x="70" y="23" on="1"/>
        <pt x="105" y="23" on="0"/>
        <pt x="161" y="88" on="0"/>
        <pt x="176" y="135" on="1"/>
        <pt x="205" y="231" on="0"/>
        <pt x="205" y="298" on="1"/>
        <pt x="194" y="298" on="1"/>
        <pt x="192" y="298" on="0"/>
        <pt x="147" y="252" on="0"/>
        <pt x="138" y="241" on="1"/>
      </contour>
      <contour>
        <pt x="593" y="851" on="1"/>
        <pt x="544" y="738" on="0"/>
        <pt x="475" y="738" on="1"/>
        <pt x="434" y="738" on="0"/>
        <pt x="354" y="805" on="0"/>
        <pt x="321" y="851" on="1"/>
        <pt x="323" y="853" on="0"/>
        <pt x="352" y="862" on="0"/>
        <pt x="356" y="862" on="1"/>
        <pt x="384" y="834" on="1"/>
        <pt x="406" y="812" on="0"/>
        <pt x="428" y="792" on="0"/>
        <pt x="465" y="774" on="0"/>
        <pt x="482" y="774" on="0"/>
        <pt x="501" y="780" on="0"/>
        <pt x="539" y="821" on="0"/>
        <pt x="555" y="860" on="1"/>
        <pt x="559" y="864" on="0"/>
        <pt x="594" y="864" on="0"/>
        <pt x="594" y="853" on="1"/>
        <pt x="593" y="852" on="1"/>
      </contour>
    </TTGlyph>
    <TTGlyph name="Ntilde" xMin="13" yMin="-109" xMax="817" yMax="863">
      <contour>
        <pt x="561" y="175" on="1"/>
        <pt x="563" y="71" on="1"/>
        <pt x="583" y="-90" on="0"/>
        <pt x="742" y="-90" on="1"/>
        <pt x="750" y="-90" on="0"/>
        <pt x="810" y="-82" on="0"/>
        <pt x="817" y="-80" on="1"/>
        <pt x="798" y="-109" on="0"/>
        <pt x="638" y="-109" on="0"/>
        <pt x="553" y="-30" on="0"/>
        <pt x="534" y="52" on="1"/>
        <pt x="533" y="170" on="1"/>
        <pt x="533" y="239" on="0"/>
        <pt x="563" y="509" on="0"/>
        <pt x="563" y="577" on="1"/>
        <pt x="563" y="639" on="1"/>
        <pt x="241" y="336" on="1"/>
        <pt x="222" y="184" on="1"/>
        <pt x="215" y="123" on="0"/>
        <pt x="130" y="-5" on="0"/>
        <pt x="75" y="-5" on="1"/>
        <pt x="48" y="-5" on="0"/>
        <pt x="12" y="33" on="0"/>
        <pt x="13" y="62" on="1"/>
        <pt x="18" y="114" on="0"/>
        <pt x="89" y="235" on="0"/>
        <pt x="152" y="305" on="0"/>
        <pt x="202" y="355" on="1"/>
        <pt x="204" y="365" on="0"/>
        <pt x="204" y="464" on="0"/>
        <pt x="184" y="553" on="1"/>
        <pt x="181" y="563" on="0"/>
        <pt x="165" y="563" on="1"/>
        <pt x="164" y="563" on="0"/>
        <pt x="156" y="562" on="1"/>
        <pt x="86" y="507" on="0"/>
        <pt x="22" y="507" on="1"/>
        <pt x="22" y="527" on="0"/>
        <pt x="32" y="532" on="1"/>
        <pt x="36" y="534" on="0"/>
        <pt x="55" y="541" on="0"/>
        <pt x="72" y="547" on="0"/>
        <pt x="169" y="598" on="0"/>
        <pt x="175" y="600" on="1"/>
        <pt x="184" y="601" on="1"/>
        <pt x="195" y="601" on="0"/>
        <pt x="211" y="584" on="0"/>
        <pt x="213" y="572" on="1"/>
        <pt x="242" y="375" on="1"/>
        <pt x="581" y="704" on="1"/>
        <pt x="600" y="686" on="1"/>
        <pt x="604" y="628" on="1"/>
        <pt x="604" y="552" on="0"/>
        <pt x="561" y="252" on="0"/>
      </contour>
      <contour>
        <pt x="103" y="206" on="0"/>
        <pt x="50" y="110" on="0"/>
        <pt x="50" y="23" on="0"/>
        <pt x="70" y="23" on="1"/>
        <pt x="105" y="23" on="0"/>
        <pt x="161" y="88" on="0"/>
        <pt x="176" y="135" on="1"/>
        <pt x="205" y="231" on="0"/>
        <pt x="205" y="298" on="1"/>
        <pt x="194" y="298" on="1"/>
        <pt x="192" y="298" on="0"/>
        <pt x="147" y="252" on="0"/>
        <pt x="138" y="241" on="1"/>
      </contour>
      <contour>
        <pt x="396" y="704" on="0"/>
        <pt x="314" y="756" on="0"/>
        <pt x="269" y="756" on="0"/>
        <pt x="235" y="717" on="1"/>
        <pt x="224" y="717" on="1"/>
        <pt x="224" y="720" on="0"/>
        <pt x="224" y="723" on="1"/>
        <pt x="224" y="760" on="0"/>
        <pt x="267" y="787" on="0"/>
        <pt x="291" y="787" on="0"/>
        <pt x="299" y="784" on="1"/>
        <pt x="322" y="784" on="0"/>
        <pt x="398" y="740" on="0"/>
        <pt x="423" y="740" on="1"/>
        <pt x="436" y="740" on="0"/>
        <pt x="451" y="740" on="0"/>
        <pt x="467" y="741" on="0"/>
        <pt x="472" y="744" on="0"/>
        <pt x="484" y="749" on="0"/>
        <pt x="488" y="757" on="0"/>
        <pt x="491" y="762" on="1"/>
        <pt x="496" y="770" on="0"/>
        <pt x="496" y="823" on="0"/>
        <pt x="481" y="847" on="0"/>
        <pt x="459" y="847" on="1"/>
        <pt x="459" y="863" on="0"/>
        <pt x="504" y="863" on="0"/>
        <pt x="526" y="825" on="0"/>
        <pt x="526" y="798" on="1"/>
        <pt x="526" y="744" on="0"/>
        <pt x="471" y="704" on="0"/>
        <pt x="423" y="704" on="1"/>
      </contour>
    </TTGlyph>
    <TTGlyph name="O" xMin="23" yMin="9" xMax="544" yMax="908">
      <contour>
        <pt x="488" y="586" on="1"/>
        <pt x="477" y="369" on="1"/>
        <pt x="477" y="359" on="1"/>
        <pt x="544" y="388" on="1"/>
        <pt x="544" y="382" on="1"/>
        <pt x="544" y="375" on="0"/>
        <pt x="532" y="368" on="0"/>
        <pt x="516" y="360" on="1"/>
        <pt x="469" y="336" on="0"/>
        <pt x="464" y="327" on="0"/>
        <pt x="441" y="248" on="0"/>
        <pt x="439" y="245" on="1"/>
        <pt x="340" y="9" on="0"/>
        <pt x="175" y="9" on="1"/>
        <pt x="104" y="9" on="0"/>
        <pt x="71" y="60" on="1"/>
        <pt x="37" y="112" on="0"/>
        <pt x="31" y="160" on="1"/>
        <pt x="23" y="234" on="0"/>
        <pt x="23" y="289" on="1"/>
        <pt x="24" y="368" on="1"/>
        <pt x="24" y="388" on="1"/>
        <pt x="24" y="405" on="0"/>
        <pt x="42" y="520" on="1"/>
        <pt x="49" y="559" on="0"/>
        <pt x="66" y="600" on="1"/>
        <pt x="96" y="676" on="0"/>
        <pt x="138" y="676" on="1"/>
        <pt x="138" y="661" on="1"/>
        <pt x="50" y="514" on="0"/>
        <pt x="50" y="282" on="1"/>
        <pt x="50" y="196" on="0"/>
        <pt x="82" y="94" on="0"/>
        <pt x="138" y="47" on="1"/>
        <pt x="150" y="38" on="0"/>
        <pt x="169" y="38" on="1"/>
        <pt x="263" y="38" on="0"/>
        <pt x="408" y="211" on="0"/>
        <pt x="429" y="311" on="1"/>
        <pt x="413" y="310" on="0"/>
        <pt x="397" y="310" on="1"/>
        <pt x="282" y="310" on="0"/>
        <pt x="175" y="423" on="0"/>
        <pt x="175" y="567" on="1"/>
        <pt x="175" y="648" on="0"/>
        <pt x="204" y="779" on="0"/>
        <pt x="240" y="855" on="0"/>
        <pt x="306" y="908" on="0"/>
        <pt x="378" y="908" on="0"/>
        <pt x="428" y="871" on="0"/>
        <pt x="444" y="841" on="1"/>
        <pt x="474" y="787" on="0"/>
        <pt x="487" y="728" on="1"/>
      </contour>
      <contour>
        <pt x="459" y="445" on="1"/>
        <pt x="467" y="633" on="1"/>
        <pt x="467" y="699" on="0"/>
        <pt x="452" y="757" on="1"/>
        <pt x="423" y="869" on="0"/>
        <pt x="355" y="879" on="1"/>
        <pt x="350" y="880" on="0"/>
        <pt x="345" y="880" on="1"/>
        <pt x="316" y="880" on="0"/>
        <pt x="264" y="827" on="0"/>
        <pt x="232" y="741" on="0"/>
        <pt x="221" y="690" on="1"/>
        <pt x="202" y="601" on="0"/>
        <pt x="202" y="490" on="0"/>
        <pt x="233" y="397" on="0"/>
        <pt x="309" y="330" on="0"/>
        <pt x="363" y="330" on="1"/>
        <pt x="390" y="329" on="1"/>
        <pt x="433" y="329" on="0"/>
        <pt x="439" y="349" on="1"/>
        <pt x="447" y="408" on="0"/>
        <pt x="459" y="435" on="1"/>
      </contour>
    </TTGlyph>
    <TTGlyph name="OE" xMin="23" yMin="2" xMax="858" yMax="908">
      <contour>
        <pt x="770" y="618" on="1"/>
        <pt x="770" y="598" on="0"/>
        <pt x="754" y="598" on="1"/>
        <pt x="750" y="598" on="1"/>
        <pt x="731" y="673" on="0"/>
        <pt x="700" y="712" on="0"/>
        <pt x="685" y="712" on="1"/>
        <pt x="618" y="712" on="0"/>
        <pt x="512" y="541" on="0"/>
        <pt x="512" y="470" on="1"/>
        <pt x="512" y="441" on="0"/>
        <pt x="523" y="398" on="1"/>
        <pt x="532" y="398" on="1"/>
        <pt x="556" y="398" on="0"/>
        <pt x="663" y="438" on="0"/>
        <pt x="693" y="438" on="1"/>
        <pt x="714" y="438" on="1"/>
        <pt x="769" y="438" on="0"/>
        <pt x="769" y="373" on="0"/>
        <pt x="738" y="350" on="1"/>
        <pt x="686" y="313" on="0"/>
        <pt x="608" y="313" on="1"/>
        <pt x="588" y="313" on="0"/>
        <pt x="533" y="343" on="0"/>
        <pt x="517" y="343" on="1"/>
        <pt x="512" y="343" on="1"/>
        <pt x="473" y="314" on="0"/>
        <pt x="447" y="271" on="1"/>
        <pt x="440" y="244" on="0"/>
        <pt x="422" y="206" on="1"/>
        <pt x="418" y="193" on="0"/>
        <pt x="418" y="112" on="0"/>
        <pt x="462" y="58" on="0"/>
        <pt x="512" y="40" on="1"/>
        <pt x="541" y="35" on="0"/>
        <pt x="601" y="35" on="0"/>
        <pt x="685" y="57" on="0"/>
        <pt x="830" y="141" on="0"/>
        <pt x="849" y="149" on="1"/>
        <pt x="858" y="129" on="0"/>
        <pt x="858" y="116" on="0"/>
        <pt x="849" y="111" on="1"/>
        <pt x="625" y="2" on="0"/>
        <pt x="495" y="2" on="0"/>
        <pt x="389" y="78" on="0"/>
        <pt x="381" y="137" on="1"/>
        <pt x="291" y="9" on="0"/>
        <pt x="175" y="9" on="1"/>
        <pt x="104" y="9" on="0"/>
        <pt x="71" y="60" on="1"/>
        <pt x="37" y="112" on="0"/>
        <pt x="31" y="160" on="1"/>
        <pt x="23" y="234" on="0"/>
        <pt x="23" y="289" on="1"/>
        <pt x="23" y="346" on="1"/>
        <pt x="24" y="381" on="1"/>
        <pt x="24" y="388" on="1"/>
        <pt x="24" y="405" on="0"/>
        <pt x="42" y="520" on="1"/>
        <pt x="49" y="559" on="0"/>
        <pt x="66" y="600" on="1"/>
        <pt x="96" y="676" on="0"/>
        <pt x="138" y="676" on="1"/>
        <pt x="138" y="661" on="1"/>
        <pt x="50" y="514" on="0"/>
        <pt x="50" y="282" on="1"/>
        <pt x="50" y="196" on="0"/>
        <pt x="82" y="94" on="0"/>
        <pt x="138" y="47" on="1"/>
        <pt x="150" y="38" on="0"/>
        <pt x="169" y="38" on="1"/>
        <pt x="233" y="38" on="0"/>
        <pt x="347" y="125" on="0"/>
        <pt x="383" y="193" on="1"/>
        <pt x="392" y="231" on="0"/>
        <pt x="422" y="281" on="1"/>
        <pt x="425" y="296" on="1"/>
        <pt x="427" y="306" on="0"/>
        <pt x="429" y="311" on="1"/>
        <pt x="413" y="310" on="0"/>
        <pt x="397" y="310" on="1"/>
        <pt x="282" y="310" on="0"/>
        <pt x="175" y="423" on="0"/>
        <pt x="175" y="567" on="1"/>
        <pt x="175" y="648" on="0"/>
        <pt x="204" y="779" on="0"/>
        <pt x="240" y="855" on="0"/>
        <pt x="306" y="908" on="0"/>
        <pt x="378" y="908" on="0"/>
        <pt x="428" y="871" on="0"/>
        <pt x="444" y="841" on="1"/>
        <pt x="474" y="787" on="0"/>
        <pt x="487" y="728" on="1"/>
        <pt x="488" y="657" on="1"/>
        <pt x="488" y="586" on="1"/>
        <pt x="488" y="563" on="0"/>
        <pt x="486" y="523" on="1"/>
        <pt x="510" y="601" on="0"/>
        <pt x="623" y="740" on="0"/>
        <pt x="679" y="740" on="1"/>
        <pt x="717" y="740" on="0"/>
        <pt x="769" y="678" on="0"/>
        <pt x="769" y="638" on="1"/>
      </contour>
      <contour>
        <pt x="459" y="445" on="1"/>
        <pt x="467" y="633" on="1"/>
        <pt x="467" y="699" on="0"/>
        <pt x="452" y="757" on="1"/>
        <pt x="423" y="869" on="0"/>
        <pt x="355" y="879" on="1"/>
        <pt x="350" y="880" on="0"/>
        <pt x="345" y="880" on="1"/>
        <pt x="316" y="880" on="0"/>
        <pt x="264" y="827" on="0"/>
        <pt x="232" y="741" on="0"/>
        <pt x="221" y="690" on="1"/>
        <pt x="202" y="601" on="0"/>
        <pt x="202" y="490" on="0"/>
        <pt x="233" y="397" on="0"/>
        <pt x="309" y="330" on="0"/>
        <pt x="363" y="330" on="1"/>
        <pt x="390" y="329" on="1"/>
        <pt x="433" y="329" on="0"/>
        <pt x="439" y="349" on="1"/>
        <pt x="447" y="408" on="0"/>
        <pt x="459" y="435" on="1"/>
      </contour>
      <contour>
        <pt x="561" y="366" on="1"/>
        <pt x="561" y="342" on="0"/>
        <pt x="616" y="342" on="1"/>
        <pt x="651" y="342" on="0"/>
        <pt x="723" y="365" on="0"/>
        <pt x="740" y="390" on="1"/>
        <pt x="727" y="409" on="0"/>
        <pt x="669" y="409" on="0"/>
        <pt x="561" y="385" on="0"/>
      </contour>
      <contour>
        <pt x="494" y="371" on="1"/>
        <pt x="494" y="375" on="1"/>
        <pt x="494" y="393" on="0"/>
        <pt x="479" y="429" on="1"/>
        <pt x="477" y="409" on="0"/>
        <pt x="477" y="399" on="1"/>
        <pt x="477" y="359" on="1"/>
        <pt x="488" y="364" on="1"/>
        <pt x="490" y="366" on="0"/>
        <pt x="490" y="367" on="1"/>
      </contour>
    </TTGlyph>
    <TTGlyph name="Oacute" xMin="23" yMin="9" xMax="544" yMax="1041">
      <contour>
        <pt x="488" y="586" on="1"/>
        <pt x="477" y="369" on="1"/>
        <pt x="477" y="359" on="1"/>
        <pt x="544" y="388" on="1"/>
        <pt x="544" y="382" on="1"/>
        <pt x="544" y="375" on="0"/>
        <pt x="532" y="368" on="0"/>
        <pt x="516" y="360" on="1"/>
        <pt x="469" y="336" on="0"/>
        <pt x="464" y="327" on="0"/>
        <pt x="441" y="248" on="0"/>
        <pt x="439" y="245" on="1"/>
        <pt x="340" y="9" on="0"/>
        <pt x="175" y="9" on="1"/>
        <pt x="104" y="9" on="0"/>
        <pt x="71" y="60" on="1"/>
        <pt x="37" y="112" on="0"/>
        <pt x="31" y="160" on="1"/>
        <pt x="23" y="234" on="0"/>
        <pt x="23" y="289" on="1"/>
        <pt x="24" y="368" on="1"/>
        <pt x="24" y="388" on="1"/>
        <pt x="24" y="405" on="0"/>
        <pt x="42" y="520" on="1"/>
        <pt x="49" y="559" on="0"/>
        <pt x="66" y="600" on="1"/>
        <pt x="96" y="676" on="0"/>
        <pt x="138" y="676" on="1"/>
        <pt x="138" y="661" on="1"/>
        <pt x="50" y="514" on="0"/>
        <pt x="50" y="282" on="1"/>
        <pt x="50" y="196" on="0"/>
        <pt x="82" y="94" on="0"/>
        <pt x="138" y="47" on="1"/>
        <pt x="150" y="38" on="0"/>
        <pt x="169" y="38" on="1"/>
        <pt x="263" y="38" on="0"/>
        <pt x="408" y="211" on="0"/>
        <pt x="429" y="311" on="1"/>
        <pt x="413" y="310" on="0"/>
        <pt x="397" y="310" on="1"/>
        <pt x="282" y="310" on="0"/>
        <pt x="175" y="423" on="0"/>
        <pt x="175" y="567" on="1"/>
        <pt x="175" y="648" on="0"/>
        <pt x="204" y="779" on="0"/>
        <pt x="240" y="855" on="0"/>
        <pt x="306" y="908" on="0"/>
        <pt x="378" y="908" on="0"/>
        <pt x="428" y="871" on="0"/>
        <pt x="444" y="841" on="1"/>
        <pt x="474" y="787" on="0"/>
        <pt x="487" y="728" on="1"/>
      </contour>
      <contour>
        <pt x="459" y="445" on="1"/>
        <pt x="467" y="633" on="1"/>
        <pt x="467" y="699" on="0"/>
        <pt x="452" y="757" on="1"/>
        <pt x="423" y="869" on="0"/>
        <pt x="355" y="879" on="1"/>
        <pt x="350" y="880" on="0"/>
        <pt x="345" y="880" on="1"/>
        <pt x="316" y="880" on="0"/>
        <pt x="264" y="827" on="0"/>
        <pt x="232" y="741" on="0"/>
        <pt x="221" y="690" on="1"/>
        <pt x="202" y="601" on="0"/>
        <pt x="202" y="490" on="0"/>
        <pt x="233" y="397" on="0"/>
        <pt x="309" y="330" on="0"/>
        <pt x="363" y="330" on="1"/>
        <pt x="390" y="329" on="1"/>
        <pt x="433" y="329" on="0"/>
        <pt x="439" y="349" on="1"/>
        <pt x="447" y="408" on="0"/>
        <pt x="459" y="435" on="1"/>
      </contour>
      <contour>
        <pt x="212" y="908" on="1"/>
        <pt x="207" y="910" on="0"/>
        <pt x="207" y="921" on="0"/>
        <pt x="214" y="934" on="0"/>
        <pt x="243" y="971" on="0"/>
        <pt x="250" y="988" on="1"/>
        <pt x="276" y="1041" on="0"/>
        <pt x="303" y="1041" on="1"/>
        <pt x="314" y="1041" on="0"/>
        <pt x="314" y="1008" on="0"/>
        <pt x="277" y="950" on="0"/>
        <pt x="241" y="915" on="0"/>
      </contour>
    </TTGlyph>
    <TTGlyph name="Ocircumflex" xMin="23" yMin="9" xMax="544" yMax="1151">
      <contour>
        <pt x="488" y="586" on="1"/>
        <pt x="477" y="369" on="1"/>
        <pt x="477" y="359" on="1"/>
        <pt x="544" y="388" on="1"/>
        <pt x="544" y="382" on="1"/>
        <pt x="544" y="375" on="0"/>
        <pt x="532" y="368" on="0"/>
        <pt x="516" y="360" on="1"/>
        <pt x="469" y="336" on="0"/>
        <pt x="464" y="327" on="0"/>
        <pt x="441" y="248" on="0"/>
        <pt x="439" y="245" on="1"/>
        <pt x="340" y="9" on="0"/>
        <pt x="175" y="9" on="1"/>
        <pt x="104" y="9" on="0"/>
        <pt x="71" y="60" on="1"/>
        <pt x="37" y="112" on="0"/>
        <pt x="31" y="160" on="1"/>
        <pt x="23" y="234" on="0"/>
        <pt x="23" y="289" on="1"/>
        <pt x="24" y="368" on="1"/>
        <pt x="24" y="388" on="1"/>
        <pt x="24" y="405" on="0"/>
        <pt x="42" y="520" on="1"/>
        <pt x="49" y="559" on="0"/>
        <pt x="66" y="600" on="1"/>
        <pt x="96" y="676" on="0"/>
        <pt x="138" y="676" on="1"/>
        <pt x="138" y="661" on="1"/>
        <pt x="50" y="514" on="0"/>
        <pt x="50" y="282" on="1"/>
        <pt x="50" y="196" on="0"/>
        <pt x="82" y="94" on="0"/>
        <pt x="138" y="47" on="1"/>
        <pt x="150" y="38" on="0"/>
        <pt x="169" y="38" on="1"/>
        <pt x="263" y="38" on="0"/>
        <pt x="408" y="211" on="0"/>
        <pt x="429" y="311" on="1"/>
        <pt x="413" y="310" on="0"/>
        <pt x="397" y="310" on="1"/>
        <pt x="282" y="310" on="0"/>
        <pt x="175" y="423" on="0"/>
        <pt x="175" y="567" on="1"/>
        <pt x="175" y="648" on="0"/>
        <pt x="204" y="779" on="0"/>
        <pt x="240" y="855" on="0"/>
        <pt x="306" y="908" on="0"/>
        <pt x="378" y="908" on="0"/>
        <pt x="428" y="871" on="0"/>
        <pt x="444" y="841" on="1"/>
        <pt x="474" y="787" on="0"/>
        <pt x="487" y="728" on="1"/>
      </contour>
      <contour>
        <pt x="459" y="445" on="1"/>
        <pt x="467" y="633" on="1"/>
        <pt x="467" y="699" on="0"/>
        <pt x="452" y="757" on="1"/>
        <pt x="423" y="869" on="0"/>
        <pt x="355" y="879" on="1"/>
        <pt x="350" y="880" on="0"/>
        <pt x="345" y="880" on="1"/>
        <pt x="316" y="880" on="0"/>
        <pt x="264" y="827" on="0"/>
        <pt x="232" y="741" on="0"/>
        <pt x="221" y="690" on="1"/>
        <pt x="202" y="601" on="0"/>
        <pt x="202" y="490" on="0"/>
        <pt x="233" y="397" on="0"/>
        <pt x="309" y="330" on="0"/>
        <pt x="363" y="330" on="1"/>
        <pt x="390" y="329" on="1"/>
        <pt x="433" y="329" on="0"/>
        <pt x="439" y="349" on="1"/>
        <pt x="447" y="408" on="0"/>
        <pt x="459" y="435" on="1"/>
      </contour>
      <contour>
        <pt x="312" y="1151" on="1"/>
        <pt x="313" y="1150" on="0"/>
        <pt x="315" y="1150" on="1"/>
        <pt x="318" y="1150" on="1"/>
        <pt x="318" y="1119" on="0"/>
        <pt x="343" y="1059" on="0"/>
        <pt x="354" y="1036" on="1"/>
        <pt x="370" y="1001" on="1"/>
        <pt x="380" y="985" on="0"/>
        <pt x="380" y="983" on="1"/>
        <pt x="380" y="982" on="1"/>
        <pt x="381" y="980" on="1"/>
        <pt x="381" y="975" on="0"/>
        <pt x="370" y="966" on="0"/>
        <pt x="357" y="966" on="0"/>
        <pt x="354" y="972" on="1"/>
        <pt x="344" y="992" on="0"/>
        <pt x="312" y="1072" on="1"/>
        <pt x="296" y="1096" on="1"/>
        <pt x="281" y="1087" on="0"/>
        <pt x="244" y="1026" on="0"/>
        <pt x="210" y="977" on="0"/>
        <pt x="195" y="977" on="1"/>
        <pt x="189" y="977" on="0"/>
        <pt x="186" y="983" on="1"/>
        <pt x="198" y="1012" on="0"/>
        <pt x="282" y="1129" on="0"/>
      </contour>
    </TTGlyph>
    <TTGlyph name="Odieresis" xMin="23" yMin="9" xMax="544" yMax="1025">
      <contour>
        <pt x="488" y="586" on="1"/>
        <pt x="477" y="369" on="1"/>
        <pt x="477" y="359" on="1"/>
        <pt x="544" y="388" on="1"/>
        <pt x="544" y="382" on="1"/>
        <pt x="544" y="375" on="0"/>
        <pt x="532" y="368" on="0"/>
        <pt x="516" y="360" on="1"/>
        <pt x="469" y="336" on="0"/>
        <pt x="464" y="327" on="0"/>
        <pt x="441" y="248" on="0"/>
        <pt x="439" y="245" on="1"/>
        <pt x="340" y="9" on="0"/>
        <pt x="175" y="9" on="1"/>
        <pt x="104" y="9" on="0"/>
        <pt x="71" y="60" on="1"/>
        <pt x="37" y="112" on="0"/>
        <pt x="31" y="160" on="1"/>
        <pt x="23" y="234" on="0"/>
        <pt x="23" y="289" on="1"/>
        <pt x="24" y="368" on="1"/>
        <pt x="24" y="388" on="1"/>
        <pt x="24" y="405" on="0"/>
        <pt x="42" y="520" on="1"/>
        <pt x="49" y="559" on="0"/>
        <pt x="66" y="600" on="1"/>
        <pt x="96" y="676" on="0"/>
        <pt x="138" y="676" on="1"/>
        <pt x="138" y="661" on="1"/>
        <pt x="50" y="514" on="0"/>
        <pt x="50" y="282" on="1"/>
        <pt x="50" y="196" on="0"/>
        <pt x="82" y="94" on="0"/>
        <pt x="138" y="47" on="1"/>
        <pt x="150" y="38" on="0"/>
        <pt x="169" y="38" on="1"/>
        <pt x="263" y="38" on="0"/>
        <pt x="408" y="211" on="0"/>
        <pt x="429" y="311" on="1"/>
        <pt x="413" y="310" on="0"/>
        <pt x="397" y="310" on="1"/>
        <pt x="282" y="310" on="0"/>
        <pt x="175" y="423" on="0"/>
        <pt x="175" y="567" on="1"/>
        <pt x="175" y="648" on="0"/>
        <pt x="204" y="779" on="0"/>
        <pt x="240" y="855" on="0"/>
        <pt x="306" y="908" on="0"/>
        <pt x="378" y="908" on="0"/>
        <pt x="428" y="871" on="0"/>
        <pt x="444" y="841" on="1"/>
        <pt x="474" y="787" on="0"/>
        <pt x="487" y="728" on="1"/>
      </contour>
      <contour>
        <pt x="459" y="445" on="1"/>
        <pt x="467" y="633" on="1"/>
        <pt x="467" y="699" on="0"/>
        <pt x="452" y="757" on="1"/>
        <pt x="423" y="869" on="0"/>
        <pt x="355" y="879" on="1"/>
        <pt x="350" y="880" on="0"/>
        <pt x="345" y="880" on="1"/>
        <pt x="316" y="880" on="0"/>
        <pt x="264" y="827" on="0"/>
        <pt x="232" y="741" on="0"/>
        <pt x="221" y="690" on="1"/>
        <pt x="202" y="601" on="0"/>
        <pt x="202" y="490" on="0"/>
        <pt x="233" y="397" on="0"/>
        <pt x="309" y="330" on="0"/>
        <pt x="363" y="330" on="1"/>
        <pt x="390" y="329" on="1"/>
        <pt x="433" y="329" on="0"/>
        <pt x="439" y="349" on="1"/>
        <pt x="447" y="408" on="0"/>
        <pt x="459" y="435" on="1"/>
      </contour>
      <contour>
        <pt x="246" y="1025" on="1"/>
        <pt x="253" y="1025" on="0"/>
        <pt x="275" y="1004" on="0"/>
        <pt x="275" y="995" on="1"/>
        <pt x="269" y="972" on="0"/>
        <pt x="253" y="972" on="1"/>
        <pt x="249" y="972" on="0"/>
        <pt x="245" y="974" on="1"/>
        <pt x="224" y="981" on="0"/>
        <pt x="224" y="1017" on="0"/>
      </contour>
      <contour>
        <pt x="370" y="1025" on="1"/>
        <pt x="377" y="1025" on="0"/>
        <pt x="398" y="1004" on="0"/>
        <pt x="398" y="995" on="1"/>
        <pt x="392" y="972" on="0"/>
        <pt x="377" y="972" on="1"/>
        <pt x="373" y="972" on="0"/>
        <pt x="368" y="974" on="1"/>
        <pt x="348" y="981" on="0"/>
        <pt x="348" y="1017" on="0"/>
      </contour>
    </TTGlyph>
    <TTGlyph name="Ograve" xMin="23" yMin="9" xMax="544" yMax="1050">
      <contour>
        <pt x="488" y="586" on="1"/>
        <pt x="477" y="369" on="1"/>
        <pt x="477" y="359" on="1"/>
        <pt x="544" y="388" on="1"/>
        <pt x="544" y="382" on="1"/>
        <pt x="544" y="375" on="0"/>
        <pt x="532" y="368" on="0"/>
        <pt x="516" y="360" on="1"/>
        <pt x="469" y="336" on="0"/>
        <pt x="464" y="327" on="0"/>
        <pt x="441" y="248" on="0"/>
        <pt x="439" y="245" on="1"/>
        <pt x="340" y="9" on="0"/>
        <pt x="175" y="9" on="1"/>
        <pt x="104" y="9" on="0"/>
        <pt x="71" y="60" on="1"/>
        <pt x="37" y="112" on="0"/>
        <pt x="31" y="160" on="1"/>
        <pt x="23" y="234" on="0"/>
        <pt x="23" y="289" on="1"/>
        <pt x="24" y="368" on="1"/>
        <pt x="24" y="388" on="1"/>
        <pt x="24" y="405" on="0"/>
        <pt x="42" y="520" on="1"/>
        <pt x="49" y="559" on="0"/>
        <pt x="66" y="600" on="1"/>
        <pt x="96" y="676" on="0"/>
        <pt x="138" y="676" on="1"/>
        <pt x="138" y="661" on="1"/>
        <pt x="50" y="514" on="0"/>
        <pt x="50" y="282" on="1"/>
        <pt x="50" y="196" on="0"/>
        <pt x="82" y="94" on="0"/>
        <pt x="138" y="47" on="1"/>
        <pt x="150" y="38" on="0"/>
        <pt x="169" y="38" on="1"/>
        <pt x="263" y="38" on="0"/>
        <pt x="408" y="211" on="0"/>
        <pt x="429" y="311" on="1"/>
        <pt x="413" y="310" on="0"/>
        <pt x="397" y="310" on="1"/>
        <pt x="282" y="310" on="0"/>
        <pt x="175" y="423" on="0"/>
        <pt x="175" y="567" on="1"/>
        <pt x="175" y="648" on="0"/>
        <pt x="204" y="779" on="0"/>
        <pt x="240" y="855" on="0"/>
        <pt x="306" y="908" on="0"/>
        <pt x="378" y="908" on="0"/>
        <pt x="428" y="871" on="0"/>
        <pt x="444" y="841" on="1"/>
        <pt x="474" y="787" on="0"/>
        <pt x="487" y="728" on="1"/>
      </contour>
      <contour>
        <pt x="459" y="445" on="1"/>
        <pt x="467" y="633" on="1"/>
        <pt x="467" y="699" on="0"/>
        <pt x="452" y="757" on="1"/>
        <pt x="423" y="869" on="0"/>
        <pt x="355" y="879" on="1"/>
        <pt x="350" y="880" on="0"/>
        <pt x="345" y="880" on="1"/>
        <pt x="316" y="880" on="0"/>
        <pt x="264" y="827" on="0"/>
        <pt x="232" y="741" on="0"/>
        <pt x="221" y="690" on="1"/>
        <pt x="202" y="601" on="0"/>
        <pt x="202" y="490" on="0"/>
        <pt x="233" y="397" on="0"/>
        <pt x="309" y="330" on="0"/>
        <pt x="363" y="330" on="1"/>
        <pt x="390" y="329" on="1"/>
        <pt x="433" y="329" on="0"/>
        <pt x="439" y="349" on="1"/>
        <pt x="447" y="408" on="0"/>
        <pt x="459" y="435" on="1"/>
      </contour>
      <contour>
        <pt x="274" y="972" on="0"/>
        <pt x="262" y="991" on="0"/>
        <pt x="244" y="1021" on="0"/>
        <pt x="244" y="1050" on="0"/>
        <pt x="267" y="1050" on="0"/>
        <pt x="292" y="1016" on="0"/>
        <pt x="307" y="985" on="0"/>
        <pt x="332" y="953" on="0"/>
        <pt x="338" y="940" on="0"/>
        <pt x="338" y="938" on="1"/>
        <pt x="338" y="930" on="0"/>
        <pt x="333" y="927" on="1"/>
        <pt x="326" y="928" on="0"/>
        <pt x="314" y="934" on="0"/>
        <pt x="305" y="938" on="0"/>
        <pt x="300" y="944" on="1"/>
        <pt x="292" y="952" on="1"/>
        <pt x="289" y="954" on="0"/>
        <pt x="277" y="969" on="0"/>
      </contour>
    </TTGlyph>
    <TTGlyph name="Ohungarumlaut" xMin="23" yMin="9" xMax="544" yMax="1118">
      <contour>
        <pt x="488" y="586" on="1"/>
        <pt x="477" y="369" on="1"/>
        <pt x="477" y="359" on="1"/>
        <pt x="544" y="388" on="1"/>
        <pt x="544" y="382" on="1"/>
        <pt x="544" y="375" on="0"/>
        <pt x="532" y="368" on="0"/>
        <pt x="516" y="360" on="1"/>
        <pt x="469" y="336" on="0"/>
        <pt x="464" y="327" on="0"/>
        <pt x="441" y="248" on="0"/>
        <pt x="439" y="245" on="1"/>
        <pt x="340" y="9" on="0"/>
        <pt x="175" y="9" on="1"/>
        <pt x="104" y="9" on="0"/>
        <pt x="71" y="60" on="1"/>
        <pt x="37" y="112" on="0"/>
        <pt x="31" y="160" on="1"/>
        <pt x="23" y="234" on="0"/>
        <pt x="23" y="289" on="1"/>
        <pt x="24" y="368" on="1"/>
        <pt x="24" y="388" on="1"/>
        <pt x="24" y="405" on="0"/>
        <pt x="42" y="520" on="1"/>
        <pt x="49" y="559" on="0"/>
        <pt x="66" y="600" on="1"/>
        <pt x="96" y="676" on="0"/>
        <pt x="138" y="676" on="1"/>
        <pt x="138" y="661" on="1"/>
        <pt x="50" y="514" on="0"/>
        <pt x="50" y="282" on="1"/>
        <pt x="50" y="196" on="0"/>
        <pt x="82" y="94" on="0"/>
        <pt x="138" y="47" on="1"/>
        <pt x="150" y="38" on="0"/>
        <pt x="169" y="38" on="1"/>
        <pt x="263" y="38" on="0"/>
        <pt x="408" y="211" on="0"/>
        <pt x="429" y="311" on="1"/>
        <pt x="413" y="310" on="0"/>
        <pt x="397" y="310" on="1"/>
        <pt x="282" y="310" on="0"/>
        <pt x="175" y="423" on="0"/>
        <pt x="175" y="567" on="1"/>
        <pt x="175" y="648" on="0"/>
        <pt x="204" y="779" on="0"/>
        <pt x="240" y="855" on="0"/>
        <pt x="306" y="908" on="0"/>
        <pt x="378" y="908" on="0"/>
        <pt x="428" y="871" on="0"/>
        <pt x="444" y="841" on="1"/>
        <pt x="474" y="787" on="0"/>
        <pt x="487" y="728" on="1"/>
      </contour>
      <contour>
        <pt x="459" y="445" on="1"/>
        <pt x="467" y="633" on="1"/>
        <pt x="467" y="699" on="0"/>
        <pt x="452" y="757" on="1"/>
        <pt x="423" y="869" on="0"/>
        <pt x="355" y="879" on="1"/>
        <pt x="350" y="880" on="0"/>
        <pt x="345" y="880" on="1"/>
        <pt x="316" y="880" on="0"/>
        <pt x="264" y="827" on="0"/>
        <pt x="232" y="741" on="0"/>
        <pt x="221" y="690" on="1"/>
        <pt x="202" y="601" on="0"/>
        <pt x="202" y="490" on="0"/>
        <pt x="233" y="397" on="0"/>
        <pt x="309" y="330" on="0"/>
        <pt x="363" y="330" on="1"/>
        <pt x="390" y="329" on="1"/>
        <pt x="433" y="329" on="0"/>
        <pt x="439" y="349" on="1"/>
        <pt x="447" y="408" on="0"/>
        <pt x="459" y="435" on="1"/>
      </contour>
      <contour>
        <pt x="230" y="986" on="1"/>
        <pt x="223" y="988" on="0"/>
        <pt x="223" y="999" on="0"/>
        <pt x="231" y="1011" on="0"/>
        <pt x="258" y="1048" on="0"/>
        <pt x="267" y="1065" on="1"/>
        <pt x="296" y="1118" on="0"/>
        <pt x="320" y="1118" on="1"/>
        <pt x="330" y="1118" on="0"/>
        <pt x="329" y="1085" on="0"/>
        <pt x="312" y="1056" on="1"/>
        <pt x="298" y="1036" on="0"/>
        <pt x="290" y="1025" on="1"/>
        <pt x="265" y="993" on="0"/>
      </contour>
      <contour>
        <pt x="327" y="981" on="1"/>
        <pt x="321" y="983" on="0"/>
        <pt x="321" y="994" on="0"/>
        <pt x="328" y="1005" on="0"/>
        <pt x="356" y="1043" on="0"/>
        <pt x="365" y="1061" on="1"/>
        <pt x="391" y="1114" on="0"/>
        <pt x="418" y="1114" on="1"/>
        <pt x="429" y="1114" on="0"/>
        <pt x="429" y="1081" on="0"/>
        <pt x="391" y="1023" on="0"/>
        <pt x="355" y="988" on="0"/>
      </contour>
    </TTGlyph>
    <TTGlyph name="Oslash" xMin="23" yMin="-1" xMax="544" yMax="958">
      <contour>
        <pt x="488" y="586" on="1"/>
        <pt x="477" y="369" on="1"/>
        <pt x="477" y="359" on="1"/>
        <pt x="544" y="388" on="1"/>
        <pt x="544" y="382" on="1"/>
        <pt x="544" y="375" on="0"/>
        <pt x="532" y="368" on="0"/>
        <pt x="516" y="360" on="1"/>
        <pt x="469" y="336" on="0"/>
        <pt x="464" y="327" on="0"/>
        <pt x="441" y="248" on="0"/>
        <pt x="439" y="245" on="1"/>
        <pt x="340" y="9" on="0"/>
        <pt x="175" y="9" on="1"/>
        <pt x="106" y="9" on="0"/>
        <pt x="67" y="65" on="1"/>
        <pt x="42" y="1" on="1"/>
        <pt x="40" y="-1" on="0"/>
        <pt x="39" y="-1" on="1"/>
        <pt x="38" y="-1" on="1"/>
        <pt x="24" y="-1" on="0"/>
        <pt x="24" y="50" on="1"/>
        <pt x="24" y="53" on="1"/>
        <pt x="24" y="60" on="0"/>
        <pt x="44" y="111" on="1"/>
        <pt x="23" y="174" on="0"/>
        <pt x="23" y="289" on="1"/>
        <pt x="23" y="346" on="1"/>
        <pt x="24" y="381" on="1"/>
        <pt x="24" y="388" on="1"/>
        <pt x="24" y="405" on="0"/>
        <pt x="42" y="520" on="1"/>
        <pt x="49" y="559" on="0"/>
        <pt x="66" y="600" on="1"/>
        <pt x="96" y="676" on="0"/>
        <pt x="138" y="676" on="1"/>
        <pt x="138" y="661" on="1"/>
        <pt x="50" y="514" on="0"/>
        <pt x="50" y="282" on="1"/>
        <pt x="50" y="195" on="0"/>
        <pt x="63" y="155" on="1"/>
        <pt x="101" y="245" on="0"/>
        <pt x="192" y="430" on="1"/>
        <pt x="175" y="484" on="0"/>
        <pt x="175" y="603" on="0"/>
        <pt x="182" y="680" on="0"/>
        <pt x="204" y="779" on="0"/>
        <pt x="240" y="855" on="0"/>
        <pt x="306" y="908" on="0"/>
        <pt x="383" y="908" on="0"/>
        <pt x="414" y="880" on="1"/>
        <pt x="440" y="928" on="0"/>
        <pt x="453" y="956" on="1"/>
        <pt x="461" y="958" on="1"/>
        <pt x="474" y="958" on="0"/>
        <pt x="483" y="927" on="0"/>
        <pt x="481" y="908" on="1"/>
        <pt x="479" y="905" on="0"/>
        <pt x="473" y="888" on="1"/>
        <pt x="457" y="841" on="0"/>
        <pt x="453" y="841" on="1"/>
        <pt x="449" y="834" on="1"/>
        <pt x="474" y="787" on="0"/>
        <pt x="487" y="728" on="1"/>
        <pt x="488" y="657" on="1"/>
      </contour>
      <contour>
        <pt x="429" y="311" on="1"/>
        <pt x="411" y="310" on="0"/>
        <pt x="395" y="310" on="1"/>
        <pt x="333" y="310" on="0"/>
        <pt x="238" y="344" on="0"/>
        <pt x="209" y="391" on="1"/>
        <pt x="123" y="207" on="0"/>
        <pt x="84" y="108" on="1"/>
        <pt x="105" y="74" on="0"/>
        <pt x="138" y="47" on="1"/>
        <pt x="150" y="38" on="0"/>
        <pt x="169" y="38" on="1"/>
        <pt x="263" y="38" on="0"/>
        <pt x="408" y="211" on="0"/>
      </contour>
      <contour>
        <pt x="459" y="445" on="1"/>
        <pt x="467" y="633" on="1"/>
        <pt x="467" y="747" on="0"/>
        <pt x="434" y="810" on="1"/>
        <pt x="317" y="607" on="0"/>
        <pt x="226" y="425" on="1"/>
        <pt x="267" y="330" on="0"/>
        <pt x="363" y="330" on="1"/>
        <pt x="390" y="329" on="1"/>
        <pt x="433" y="329" on="0"/>
        <pt x="439" y="349" on="1"/>
        <pt x="447" y="408" on="0"/>
        <pt x="459" y="435" on="1"/>
      </contour>
      <contour>
        <pt x="401" y="855" on="1"/>
        <pt x="376" y="880" on="0"/>
        <pt x="316" y="880" on="0"/>
        <pt x="264" y="827" on="0"/>
        <pt x="232" y="741" on="0"/>
        <pt x="221" y="690" on="1"/>
        <pt x="202" y="601" on="0"/>
        <pt x="202" y="504" on="0"/>
        <pt x="211" y="468" on="1"/>
        <pt x="240" y="528" on="0"/>
      </contour>
    </TTGlyph>
    <TTGlyph name="Otilde" xMin="23" yMin="9" xMax="544" yMax="1092">
      <contour>
        <pt x="488" y="586" on="1"/>
        <pt x="477" y="369" on="1"/>
        <pt x="477" y="359" on="1"/>
        <pt x="544" y="388" on="1"/>
        <pt x="544" y="382" on="1"/>
        <pt x="544" y="375" on="0"/>
        <pt x="532" y="368" on="0"/>
        <pt x="516" y="360" on="1"/>
        <pt x="469" y="336" on="0"/>
        <pt x="464" y="327" on="0"/>
        <pt x="441" y="248" on="0"/>
        <pt x="439" y="245" on="1"/>
        <pt x="340" y="9" on="0"/>
        <pt x="175" y="9" on="1"/>
        <pt x="104" y="9" on="0"/>
        <pt x="71" y="60" on="1"/>
        <pt x="37" y="112" on="0"/>
        <pt x="31" y="160" on="1"/>
        <pt x="23" y="234" on="0"/>
        <pt x="23" y="289" on="1"/>
        <pt x="24" y="368" on="1"/>
        <pt x="24" y="388" on="1"/>
        <pt x="24" y="405" on="0"/>
        <pt x="42" y="520" on="1"/>
        <pt x="49" y="559" on="0"/>
        <pt x="66" y="600" on="1"/>
        <pt x="96" y="676" on="0"/>
        <pt x="138" y="676" on="1"/>
        <pt x="138" y="661" on="1"/>
        <pt x="50" y="514" on="0"/>
        <pt x="50" y="282" on="1"/>
        <pt x="50" y="196" on="0"/>
        <pt x="82" y="94" on="0"/>
        <pt x="138" y="47" on="1"/>
        <pt x="150" y="38" on="0"/>
        <pt x="169" y="38" on="1"/>
        <pt x="263" y="38" on="0"/>
        <pt x="408" y="211" on="0"/>
        <pt x="429" y="311" on="1"/>
        <pt x="413" y="310" on="0"/>
        <pt x="397" y="310" on="1"/>
        <pt x="282" y="310" on="0"/>
        <pt x="175" y="423" on="0"/>
        <pt x="175" y="567" on="1"/>
        <pt x="175" y="648" on="0"/>
        <pt x="204" y="779" on="0"/>
        <pt x="240" y="855" on="0"/>
        <pt x="306" y="908" on="0"/>
        <pt x="378" y="908" on="0"/>
        <pt x="428" y="871" on="0"/>
        <pt x="444" y="841" on="1"/>
        <pt x="474" y="787" on="0"/>
        <pt x="487" y="728" on="1"/>
      </contour>
      <contour>
        <pt x="459" y="445" on="1"/>
        <pt x="467" y="633" on="1"/>
        <pt x="467" y="699" on="0"/>
        <pt x="452" y="757" on="1"/>
        <pt x="423" y="869" on="0"/>
        <pt x="355" y="879" on="1"/>
        <pt x="350" y="880" on="0"/>
        <pt x="345" y="880" on="1"/>
        <pt x="316" y="880" on="0"/>
        <pt x="264" y="827" on="0"/>
        <pt x="232" y="741" on="0"/>
        <pt x="221" y="690" on="1"/>
        <pt x="202" y="601" on="0"/>
        <pt x="202" y="490" on="0"/>
        <pt x="233" y="397" on="0"/>
        <pt x="309" y="330" on="0"/>
        <pt x="363" y="330" on="1"/>
        <pt x="390" y="329" on="1"/>
        <pt x="433" y="329" on="0"/>
        <pt x="439" y="349" on="1"/>
        <pt x="447" y="408" on="0"/>
        <pt x="459" y="435" on="1"/>
      </contour>
      <contour>
        <pt x="318" y="933" on="0"/>
        <pt x="236" y="985" on="0"/>
        <pt x="191" y="985" on="0"/>
        <pt x="157" y="946" on="1"/>
        <pt x="146" y="946" on="1"/>
        <pt x="146" y="949" on="0"/>
        <pt x="146" y="952" on="1"/>
        <pt x="146" y="989" on="0"/>
        <pt x="189" y="1016" on="0"/>
        <pt x="213" y="1016" on="0"/>
        <pt x="221" y="1013" on="1"/>
        <pt x="244" y="1013" on="0"/>
        <pt x="320" y="969" on="0"/>
        <pt x="345" y="969" on="1"/>
        <pt x="358" y="969" on="0"/>
        <pt x="373" y="969" on="0"/>
        <pt x="389" y="970" on="0"/>
        <pt x="394" y="973" on="0"/>
        <pt x="406" y="978" on="0"/>
        <pt x="410" y="986" on="0"/>
        <pt x="413" y="991" on="1"/>
        <pt x="418" y="999" on="0"/>
        <pt x="418" y="1052" on="0"/>
        <pt x="403" y="1076" on="0"/>
        <pt x="381" y="1076" on="1"/>
        <pt x="381" y="1092" on="0"/>
        <pt x="426" y="1092" on="0"/>
        <pt x="448" y="1054" on="0"/>
        <pt x="448" y="1027" on="1"/>
        <pt x="448" y="973" on="0"/>
        <pt x="393" y="933" on="0"/>
        <pt x="345" y="933" on="1"/>
      </contour>
    </TTGlyph>
    <TTGlyph name="P" xMin="12" yMin="-1" xMax="738" yMax="849">
      <contour>
        <pt x="52" y="-1" on="0"/>
        <pt x="12" y="59" on="0"/>
        <pt x="12" y="131" on="0"/>
        <pt x="24" y="184" on="0"/>
        <pt x="56" y="235" on="0"/>
        <pt x="77" y="264" on="0"/>
        <pt x="131" y="324" on="0"/>
        <pt x="157" y="357" on="0"/>
        <pt x="279" y="493" on="0"/>
        <pt x="302" y="517" on="1"/>
        <pt x="340" y="601" on="0"/>
        <pt x="340" y="707" on="1"/>
        <pt x="340" y="720" on="0"/>
        <pt x="339" y="733" on="1"/>
        <pt x="313" y="733" on="0"/>
        <pt x="217" y="697" on="0"/>
        <pt x="180" y="697" on="1"/>
        <pt x="180" y="722" on="1"/>
        <pt x="224" y="722" on="0"/>
        <pt x="280" y="733" on="0"/>
        <pt x="312" y="753" on="1"/>
        <pt x="317" y="756" on="0"/>
        <pt x="375" y="814" on="0"/>
        <pt x="390" y="814" on="1"/>
        <pt x="390" y="777" on="0"/>
        <pt x="359" y="636" on="0"/>
        <pt x="359" y="589" on="0"/>
        <pt x="359" y="583" on="1"/>
        <pt x="567" y="792" on="1"/>
        <pt x="625" y="849" on="0"/>
        <pt x="692" y="849" on="1"/>
        <pt x="717" y="849" on="0"/>
        <pt x="738" y="831" on="0"/>
        <pt x="738" y="757" on="0"/>
        <pt x="688" y="611" on="0"/>
        <pt x="609" y="473" on="0"/>
        <pt x="495" y="375" on="0"/>
        <pt x="396" y="375" on="0"/>
        <pt x="340" y="423" on="1"/>
        <pt x="320" y="317" on="0"/>
        <pt x="302" y="262" on="1"/>
        <pt x="299" y="248" on="0"/>
        <pt x="265" y="170" on="0"/>
        <pt x="246" y="134" on="0"/>
        <pt x="206" y="69" on="0"/>
        <pt x="169" y="30" on="0"/>
        <pt x="116" y="-1" on="0"/>
      </contour>
      <contour>
        <pt x="40" y="102" on="1"/>
        <pt x="40" y="28" on="0"/>
        <pt x="89" y="28" on="1"/>
        <pt x="132" y="28" on="0"/>
        <pt x="209" y="104" on="0"/>
        <pt x="260" y="216" on="0"/>
        <pt x="279" y="280" on="1"/>
        <pt x="315" y="403" on="0"/>
        <pt x="315" y="479" on="1"/>
        <pt x="303" y="479" on="0"/>
        <pt x="179" y="348" on="0"/>
        <pt x="134" y="290" on="0"/>
        <pt x="89" y="238" on="0"/>
        <pt x="74" y="216" on="0"/>
        <pt x="62" y="194" on="1"/>
        <pt x="40" y="156" on="0"/>
      </contour>
      <contour>
        <pt x="567" y="762" on="1"/>
        <pt x="439" y="634" on="0"/>
        <pt x="353" y="536" on="0"/>
        <pt x="349" y="524" on="0"/>
        <pt x="349" y="465" on="0"/>
        <pt x="394" y="404" on="0"/>
        <pt x="430" y="404" on="1"/>
        <pt x="484" y="404" on="0"/>
        <pt x="589" y="496" on="0"/>
        <pt x="659" y="629" on="0"/>
        <pt x="702" y="770" on="0"/>
        <pt x="702" y="821" on="1"/>
        <pt x="656" y="821" on="0"/>
        <pt x="611" y="792" on="1"/>
        <pt x="597" y="783" on="0"/>
      </contour>
    </TTGlyph>
    <TTGlyph name="Q" xMin="16" yMin="9" xMax="639" yMax="860">
      <contour>
        <pt x="478" y="603" on="1"/>
        <pt x="478" y="587" on="1"/>
        <pt x="478" y="352" on="0"/>
        <pt x="373" y="170" on="1"/>
        <pt x="390" y="116" on="0"/>
        <pt x="455" y="35" on="0"/>
        <pt x="502" y="35" on="1"/>
        <pt x="577" y="35" on="0"/>
        <pt x="638" y="85" on="1"/>
        <pt x="639" y="85" on="0"/>
        <pt x="639" y="80" on="1"/>
        <pt x="639" y="47" on="0"/>
        <pt x="542" y="9" on="0"/>
        <pt x="449" y="9" on="0"/>
        <pt x="383" y="68" on="0"/>
        <pt x="345" y="131" on="1"/>
        <pt x="312" y="96" on="0"/>
        <pt x="274" y="61" on="0"/>
        <pt x="200" y="20" on="0"/>
        <pt x="116" y="20" on="0"/>
        <pt x="37" y="93" on="0"/>
        <pt x="24" y="142" on="1"/>
        <pt x="16" y="183" on="0"/>
        <pt x="16" y="235" on="1"/>
        <pt x="16" y="425" on="0"/>
        <pt x="82" y="593" on="1"/>
        <pt x="125" y="705" on="0"/>
        <pt x="184" y="718" on="1"/>
        <pt x="230" y="718" on="1"/>
        <pt x="230" y="706" on="0"/>
        <pt x="199" y="685" on="0"/>
        <pt x="161" y="663" on="0"/>
        <pt x="156" y="652" on="1"/>
        <pt x="46" y="410" on="0"/>
        <pt x="46" y="107" on="0"/>
        <pt x="168" y="56" on="1"/>
        <pt x="175" y="54" on="0"/>
        <pt x="197" y="54" on="0"/>
        <pt x="241" y="76" on="0"/>
        <pt x="277" y="110" on="0"/>
        <pt x="321" y="155" on="0"/>
        <pt x="326" y="160" on="1"/>
        <pt x="318" y="190" on="0"/>
        <pt x="305" y="262" on="0"/>
        <pt x="289" y="341" on="0"/>
        <pt x="288" y="356" on="0"/>
        <pt x="275" y="428" on="0"/>
        <pt x="275" y="437" on="1"/>
        <pt x="268" y="519" on="1"/>
        <pt x="270" y="541" on="1"/>
        <pt x="270" y="551" on="0"/>
        <pt x="269" y="567" on="1"/>
        <pt x="271" y="579" on="0"/>
        <pt x="278" y="651" on="0"/>
        <pt x="284" y="698" on="0"/>
        <pt x="301" y="767" on="0"/>
        <pt x="312" y="790" on="1"/>
        <pt x="341" y="845" on="0"/>
        <pt x="391" y="860" on="1"/>
        <pt x="478" y="860" on="0"/>
      </contour>
      <contour>
        <pt x="316" y="699" on="1"/>
        <pt x="298" y="595" on="0"/>
        <pt x="297" y="546" on="0"/>
        <pt x="297" y="524" on="1"/>
        <pt x="297" y="399" on="0"/>
        <pt x="336" y="265" on="1"/>
        <pt x="339" y="251" on="0"/>
        <pt x="356" y="218" on="0"/>
        <pt x="369" y="218" on="0"/>
        <pt x="413" y="313" on="0"/>
        <pt x="420" y="341" on="1"/>
        <pt x="459" y="471" on="0"/>
        <pt x="459" y="654" on="0"/>
        <pt x="429" y="795" on="1"/>
        <pt x="426" y="808" on="0"/>
        <pt x="405" y="833" on="0"/>
        <pt x="391" y="833" on="1"/>
        <pt x="374" y="833" on="0"/>
        <pt x="322" y="728" on="0"/>
      </contour>
    </TTGlyph>
    <TTGlyph name="R" xMin="17" yMin="-34" xMax="652" yMax="731">
      <contour>
        <pt x="488" y="731" on="1"/>
        <pt x="525" y="731" on="0"/>
        <pt x="525" y="637" on="0"/>
        <pt x="478" y="558" on="1"/>
        <pt x="419" y="456" on="0"/>
        <pt x="345" y="414" on="1"/>
        <pt x="317" y="398" on="0"/>
        <pt x="291" y="395" on="1"/>
        <pt x="326" y="364" on="0"/>
        <pt x="404" y="198" on="1"/>
        <pt x="431" y="141" on="0"/>
        <pt x="507" y="50" on="0"/>
        <pt x="544" y="50" on="1"/>
        <pt x="620" y="50" on="0"/>
        <pt x="652" y="100" on="1"/>
        <pt x="652" y="26" on="0"/>
        <pt x="534" y="13" on="1"/>
        <pt x="489" y="15" on="0"/>
        <pt x="416" y="95" on="0"/>
        <pt x="367" y="203" on="0"/>
        <pt x="317" y="307" on="0"/>
        <pt x="250" y="364" on="0"/>
        <pt x="215" y="364" on="1"/>
        <pt x="205" y="364" on="0"/>
        <pt x="194" y="362" on="1"/>
        <pt x="153" y="170" on="0"/>
        <pt x="125" y="67" on="0"/>
        <pt x="115" y="21" on="0"/>
        <pt x="98" y="-11" on="0"/>
        <pt x="95" y="-17" on="0"/>
        <pt x="75" y="-32" on="0"/>
        <pt x="73" y="-34" on="1"/>
        <pt x="17" y="-32" on="0"/>
        <pt x="17" y="110" on="0"/>
        <pt x="72" y="264" on="1"/>
        <pt x="94" y="324" on="0"/>
        <pt x="114" y="378" on="1"/>
        <pt x="167" y="518" on="0"/>
        <pt x="177" y="575" on="1"/>
        <pt x="177" y="607" on="0"/>
        <pt x="162" y="628" on="0"/>
        <pt x="142" y="620" on="0"/>
        <pt x="105" y="600" on="0"/>
        <pt x="92" y="598" on="1"/>
        <pt x="92" y="622" on="1"/>
        <pt x="97" y="630" on="0"/>
        <pt x="161" y="670" on="0"/>
        <pt x="172" y="670" on="1"/>
        <pt x="193" y="670" on="0"/>
        <pt x="215" y="579" on="0"/>
        <pt x="215" y="536" on="1"/>
        <pt x="221" y="554" on="0"/>
        <pt x="292" y="614" on="1"/>
        <pt x="431" y="731" on="0"/>
      </contour>
      <contour>
        <pt x="150" y="378" on="1"/>
        <pt x="113" y="332" on="0"/>
        <pt x="47" y="98" on="0"/>
        <pt x="47" y="31" on="1"/>
        <pt x="52" y="9" on="0"/>
        <pt x="60" y="9" on="1"/>
        <pt x="71" y="9" on="0"/>
        <pt x="89" y="54" on="1"/>
        <pt x="127" y="150" on="0"/>
        <pt x="145" y="289" on="1"/>
        <pt x="151" y="332" on="0"/>
        <pt x="151" y="370" on="0"/>
      </contour>
      <contour>
        <pt x="504" y="665" on="1"/>
        <pt x="504" y="689" on="0"/>
        <pt x="483" y="689" on="1"/>
        <pt x="477" y="689" on="0"/>
        <pt x="442" y="681" on="0"/>
        <pt x="394" y="650" on="1"/>
        <pt x="374" y="630" on="0"/>
        <pt x="285" y="561" on="0"/>
        <pt x="230" y="514" on="0"/>
        <pt x="194" y="455" on="0"/>
        <pt x="194" y="422" on="0"/>
        <pt x="196" y="414" on="1"/>
        <pt x="216" y="406" on="0"/>
        <pt x="238" y="406" on="1"/>
        <pt x="284" y="406" on="0"/>
        <pt x="338" y="442" on="1"/>
        <pt x="416" y="496" on="0"/>
        <pt x="466" y="573" on="1"/>
        <pt x="504" y="631" on="0"/>
      </contour>
    </TTGlyph>
</ttFont>
